<svg xmlns="http://www.w3.org/2000/svg" xmlns:xlink="http://www.w3.org/1999/xlink" viewBox="0 0 1024 1024"><defs><style>.a{fill:url(#a);}.b{fill:url(#b);}.c{fill:url(#c);}.d{fill:url(#d);}.e{fill:url(#e);}.f{fill:url(#f);}.g{fill:url(#g);}.h{fill:url(#h);}.i{fill:url(#i);}.j{fill:url(#j);}.k{fill:url(#k);}.l{fill:url(#l);}.m{fill:url(#m);}.n{fill:url(#n);}.o{fill:url(#o);}.p{fill:url(#p);}.q{fill:url(#q);}.r{fill:url(#r);}.s{fill:url(#s);}.t{fill:url(#t);}.u{fill:url(#u);}.v{fill:url(#v);}.w{fill:url(#w);}.x{fill:url(#x);}.y{fill:url(#y);}.z{fill:url(#z);}.aa{fill:url(#aa);}.ab{fill:url(#ab);}.ac{fill:url(#ac);}.ad{fill:url(#ad);}.ae{fill:url(#ae);}.af{fill:url(#af);}.ag{fill:url(#ag);}.ah{fill:url(#ah);}.ai{fill:url(#ai);}.aj{fill:url(#aj);}.ak{fill:url(#ak);}.al{fill:url(#al);}.am{fill:url(#am);}.an{fill:url(#an);}.ao{fill:url(#ao);}.ap{fill:url(#ap);}.aq{fill:url(#aq);}.ar{fill:url(#ar);}.as{fill:url(#as);}.at{fill:url(#at);}.au{fill:url(#au);}.av{fill:url(#av);}</style><linearGradient id="a" x1="469.16" y1="487.43" x2="469.16" y2="845.12" gradientUnits="userSpaceOnUse"><stop offset="0" stop-color="#f4803e"/><stop offset="0.34" stop-color="#c46e38"/><stop offset="0.68" stop-color="#936138"/><stop offset="1" stop-color="#754c28"/></linearGradient><linearGradient id="b" x1="594.63" y1="487.45" x2="594.63" y2="845.21" xlink:href="#a"/><linearGradient id="c" x1="684.72" y1="487.45" x2="684.72" y2="845.21" xlink:href="#a"/><linearGradient id="d" x1="754.3" y1="487.44" x2="754.3" y2="845.22" xlink:href="#a"/><linearGradient id="e" x1="848.82" y1="487.47" x2="848.82" y2="845.26" xlink:href="#a"/><linearGradient id="f" x1="868.42" y1="487.45" x2="868.42" y2="845.17" xlink:href="#a"/><linearGradient id="g" x1="201.38" y1="487.46" x2="201.38" y2="845.11" xlink:href="#a"/><linearGradient id="h" x1="334.45" y1="487.47" x2="334.45" y2="845.15" xlink:href="#a"/><linearGradient id="i" x1="298.49" y1="487.43" x2="298.49" y2="845.2" xlink:href="#a"/><linearGradient id="j" x1="398.5" y1="487.49" x2="398.5" y2="845.58" xlink:href="#a"/><linearGradient id="k" x1="160.86" y1="487.31" x2="160.86" y2="845.24" gradientUnits="userSpaceOnUse"><stop offset="0.88" stop-color="#7d522d"/><stop offset="1" stop-color="#754c28"/></linearGradient><linearGradient id="l" x1="191.78" y1="486.9" x2="191.78" y2="845.35" xlink:href="#k"/><linearGradient id="m" x1="213.51" y1="487.44" x2="213.51" y2="845.22" xlink:href="#k"/><linearGradient id="n" x1="234.9" y1="487.73" x2="234.9" y2="845.14" xlink:href="#k"/><linearGradient id="o" x1="259.27" y1="486.96" x2="259.27" y2="845.34" xlink:href="#k"/><linearGradient id="p" x1="283.14" y1="487.14" x2="283.14" y2="845.28" xlink:href="#k"/><linearGradient id="q" x1="304.73" y1="487.44" x2="304.73" y2="845.22" xlink:href="#k"/><linearGradient id="r" x1="319.45" y1="487.4" x2="319.45" y2="845.21" xlink:href="#k"/><linearGradient id="s" x1="337.05" y1="486.96" x2="337.05" y2="845.34" xlink:href="#k"/><linearGradient id="t" x1="382.28" y1="487.73" x2="382.28" y2="845.14" xlink:href="#k"/><linearGradient id="u" x1="411.96" y1="487.4" x2="411.96" y2="845.21" xlink:href="#k"/><linearGradient id="v" x1="432.28" y1="487.59" x2="432.28" y2="845.19" xlink:href="#k"/><linearGradient id="w" x1="459.18" y1="487.59" x2="459.18" y2="845.19" xlink:href="#k"/><linearGradient id="x" x1="479.17" y1="487.73" x2="479.17" y2="845.14" xlink:href="#k"/><linearGradient id="y" x1="496.67" y1="486.96" x2="496.67" y2="845.34" xlink:href="#k"/><linearGradient id="z" x1="534.59" y1="487.73" x2="534.59" y2="845.14" xlink:href="#k"/><linearGradient id="aa" x1="564.08" y1="486.95" x2="564.08" y2="845.34" xlink:href="#k"/><linearGradient id="ab" x1="584.98" y1="486.96" x2="584.98" y2="845.34" xlink:href="#k"/><linearGradient id="ac" x1="602.5" y1="487.44" x2="602.5" y2="845.22" xlink:href="#k"/><linearGradient id="ad" x1="639.45" y1="487.03" x2="639.45" y2="845.33" xlink:href="#k"/><linearGradient id="ae" x1="670.67" y1="486.9" x2="670.67" y2="845.35" xlink:href="#k"/><linearGradient id="af" x1="691.09" y1="487.4" x2="691.09" y2="845.21" xlink:href="#k"/><linearGradient id="ag" x1="707.1" y1="486.96" x2="707.1" y2="845.34" xlink:href="#k"/><linearGradient id="ah" x1="723.3" y1="487.4" x2="723.3" y2="845.21" xlink:href="#k"/><linearGradient id="ai" x1="743.34" y1="487.14" x2="743.34" y2="845.28" xlink:href="#k"/><linearGradient id="aj" x1="767.72" y1="486.96" x2="767.72" y2="845.34" xlink:href="#k"/><linearGradient id="ak" x1="490.49" y1="487.3" x2="490.49" y2="844.63" xlink:href="#a"/><linearGradient id="al" x1="544.7" y1="487.3" x2="544.7" y2="844.63" xlink:href="#a"/><linearGradient id="am" x1="596.6" y1="487.3" x2="596.6" y2="844.63" xlink:href="#a"/><linearGradient id="an" x1="518.6" y1="487.36" x2="518.6" y2="844.84" xlink:href="#a"/><linearGradient id="ao" x1="570.55" y1="487.36" x2="570.55" y2="844.84" xlink:href="#a"/><linearGradient id="ap" x1="541.58" y1="487.69" x2="541.58" y2="845.78" xlink:href="#a"/><linearGradient id="aq" x1="448.31" y1="487.27" x2="448.31" y2="844.63" xlink:href="#a"/><linearGradient id="ar" x1="631.73" y1="487.27" x2="631.73" y2="844.63" xlink:href="#a"/><linearGradient id="as" x1="493.07" y1="487.41" x2="493.07" y2="844.78" xlink:href="#a"/><linearGradient id="at" x1="587.7" y1="487.41" x2="587.7" y2="844.78" xlink:href="#a"/><linearGradient id="au" x1="909.62" y1="487.43" x2="909.62" y2="845.12" xlink:href="#a"/><linearGradient id="av" x1="911.99" y1="487.43" x2="911.99" y2="845.08" xlink:href="#a"/></defs><path class="a" d="M535.78,698.32a29.08,29.08,0,0,1-4.67-7.9c-1.41-3.17-2.06-7.21-2.06-12.22V531.41a39.66,39.66,0,0,0-3.4-16.5,39,39,0,0,0-9.07-13,44.48,44.48,0,0,0-13.34-8.54,38.61,38.61,0,0,0-15.31-3.12A49.12,49.12,0,0,0,472.1,493a31.15,31.15,0,0,0-13.25,8.73l-.4.35A40,40,0,0,0,445,493.76a45.5,45.5,0,0,0-15.68-3.08,50.38,50.38,0,0,0-13.46,1.8,34.93,34.93,0,0,0-12,5.91,76.25,76.25,0,0,0-6.21-10.26c-.4.44-.71.87-1.08,1.3-2.62,3.28-5.18,6.54-7.9,9.74v27c.12,1.73.25,3.49.25,5.28V672.61h22.41V532.19a22.47,22.47,0,0,1,4.5-13.5c3-4.1,7.41-6.14,13.46-6.14a18.67,18.67,0,0,1,13.06,5.21A17.47,17.47,0,0,1,448,531.14V672.61h22.38V532.19a23.09,23.09,0,0,1,4.53-13.5c3-4.3,7.35-6.49,13-6.49s10,1.73,13.46,5.17,5.31,8.1,5.31,13.77v147A57.74,57.74,0,0,0,510.16,699a46.13,46.13,0,0,0,9.56,14.84,39.94,39.94,0,0,0,13.84,9A41.53,41.53,0,0,0,549.61,726V703.8A18.87,18.87,0,0,1,535.78,698.32Z"/><path class="b" d="M576.52,650.3c-5.77,0-9.94-2.19-12.53-6.69a28.08,28.08,0,0,1-3.92-14.84V616.14h42.57a11.18,11.18,0,0,0,8-3.14,10.67,10.67,0,0,0,3.14-7.93V579.74a58.57,58.57,0,0,0-2.41-16.9,40.48,40.48,0,0,0-7.59-14.27c-7.28-8.2-16.7-12.26-28.4-12.26a35.79,35.79,0,0,0-14.26,2.82,36.82,36.82,0,0,0-11.94,7.93,39.59,39.59,0,0,0-8.43,12.64A42.06,42.06,0,0,0,537.69,576v53.13a50.29,50.29,0,0,0,2.53,15.94,45.52,45.52,0,0,0,7.5,13.95,35.63,35.63,0,0,0,28.8,13.55h75V650.3ZM560.07,576c0-6.16,1.64-10.65,5-13.36s6.73-4.12,10.31-4.12c5.93,0,10.13,2,12.51,6s3.55,9.08,3.55,15.22v14.1h-31.4Z"/><path class="c" d="M666.6,650.3c-5.68,0-9.88-2.19-12.47-6.69a28.12,28.12,0,0,1-4-14.84V616.14h42.59a11.45,11.45,0,0,0,8.12-3.14,11.12,11.12,0,0,0,3.15-7.93V579.74a58.59,58.59,0,0,0-2.47-16.9,40.36,40.36,0,0,0-7.68-14.27c-7.17-8.2-16.64-12.26-28.37-12.26a37.06,37.06,0,0,0-26.12,10.75,39.17,39.17,0,0,0-8.46,12.64A42.07,42.07,0,0,0,627.77,576v53.13a50.07,50.07,0,0,0,2.59,15.94,46.24,46.24,0,0,0,7.53,13.95,35.44,35.44,0,0,0,12.1,9.83,36.35,36.35,0,0,0,16.61,3.72h75.07V650.3ZM650.15,576c0-6.16,1.69-10.65,5.09-13.36a16,16,0,0,1,10.25-4.12c6,0,10.21,2,12.47,6,2.47,4,3.58,9.08,3.58,15.22v14.1H650.15Z"/><path class="d" d="M717.84,672.61V582.37c0-12.14,3.37-22.46,10.25-31.08,6.91-8.45,16.51-12.75,28.64-12.75h26.49l7.53,22.31h-34a14.54,14.54,0,0,0-8,2,15.61,15.61,0,0,0-5.09,5.2,20.34,20.34,0,0,0-2.6,7.08,40.81,40.81,0,0,0-.83,7.6v89.89Z"/><path class="e" d="M786.83,600.61q0-19.74,9.17-33.3a100.69,100.69,0,0,1,20.71-22.87c7.26-5.9,14.63-11.85,22.35-17.77s13.31-12,16.85-18.19L872.37,520a74.34,74.34,0,0,1-10.9,15,123.17,123.17,0,0,1-13.76,12.82h17.53v81a28.76,28.76,0,0,0,4,14.84c2.59,4.5,6.79,6.69,12.53,6.69H910.8v22.31H881.72A42.9,42.9,0,0,1,866.78,670a29.64,29.64,0,0,1-12.38-8.57c-7.5,8-17.29,12-29.48,12a37.31,37.31,0,0,1-14.23-2.86A39.27,39.27,0,0,1,790,650.15a40.85,40.85,0,0,1-3.12-16.53Zm56-48.34-11.15,8.88a97.21,97.21,0,0,0-16.3,18.06c-4.1,6.09-6.08,13.16-6.08,21.4v33c0,5.68,1.67,10,5,12.93s7,4.5,10.68,4.5c6.42,0,11-2,13.61-6.11a26.41,26.41,0,0,0,4.27-14Z"/><path class="f" d="M919.81,538.54V689.68c0,13.84-2.38,26.25-6.94,37.09A79,79,0,0,1,894,754.28a78.24,78.24,0,0,1-27.69,16.56,83.57,83.57,0,0,1-33.22,4.22c-2.75-.24-5.43-.59-8-.95a56,56,0,0,1-8.06-1.73l6-21a54.62,54.62,0,0,0,5.68,1.07,31.52,31.52,0,0,0,5.62.39,58.73,58.73,0,0,0,22-2.93,59.86,59.86,0,0,0,20.31-11.55,58.77,58.77,0,0,0,14.94-20c3.89-8.18,5.77-17.79,5.77-28.91V538.54Z"/><path class="g" d="M265.4,620.64h44.36V448.13a69.71,69.71,0,0,0-13.86-4A75,75,0,0,0,283.58,443q-14.71,0-25.06,6.17a51.55,51.55,0,0,0-18.59,18.71,118.18,118.18,0,0,0-11.63,26.61,203.75,203.75,0,0,0-6.79,29.66c-1.67,10.14-3.09,19.22-4.3,27.32-1.26,9-2.46,18.83-3.7,29.3s-2.47,21.11-3.64,31.86c-1.48,12.49-4,22.74-7.47,30.77-3.71,8.09-7.66,14.55-12,19.41a41,41,0,0,1-14.26,10.09,39.45,39.45,0,0,1-15.25,3.13c-9.6,0-17.56-1.6-23.8-4.74a36.5,36.5,0,0,1-14.54-12.86c-5.43-8-8.09-18.44-8.09-31.15a98.21,98.21,0,0,1,1.42-17.18l-20.62-4A124.3,124.3,0,0,0,93,629.52q0,24.6,11,41.36a57.36,57.36,0,0,0,23.4,20.21c9.75,4.61,20.8,6.91,33.4,6.91a60.68,60.68,0,0,0,23.37-4.58A61.3,61.3,0,0,0,204.9,679.2,90.09,90.09,0,0,0,221.1,655c4.57-9.68,7.72-21.05,9.7-34.25h33.4A5.34,5.34,0,0,1,265.4,620.64ZM239,554.41c.77-5.2,1.73-11.92,3.15-20.38a249.35,249.35,0,0,1,5.52-25.63,137.83,137.83,0,0,1,8.83-24.15c3.61-7.47,7.93-12.83,13.12-15.95a24.78,24.78,0,0,1,7.31-3,45.72,45.72,0,0,1,10.72-1.09V598.71H233.45Z"/><rect class="h" x="323.43" y="470.87" width="22.04" height="201.14"/><rect class="i" x="287.23" y="610.23" width="22.53" height="61.79"/><rect class="j" x="388.72" y="470.87" width="19.57" height="53.3"/><path class="k" d="M163.6,767.18H152.27l-1.36,3.11a8.16,8.16,0,0,0-.62,2.55,2.34,2.34,0,0,0,1.11,2,8.31,8.31,0,0,0,3.12.6v.84H143.9v-.84a4.42,4.42,0,0,0,2.75-1.46,15.5,15.5,0,0,0,2.78-4.81l11.48-25.35h.49L173,769.86a13.76,13.76,0,0,0,2.68,4.61,2.9,2.9,0,0,0,2.2.95v.84h-15.5v-.84H163a5.11,5.11,0,0,0,2.72-.53,1.47,1.47,0,0,0,.43-1.16,2.08,2.08,0,0,0-.13-.86c0-.14-.24-.7-.61-1.76Zm-.78-1.67-4.75-11-4.94,11Z"/><path class="l" d="M201.35,754.31V771.5a6.3,6.3,0,0,0,.46,3.1,2.49,2.49,0,0,0,1.89.82v.84h-9v-2.92a11.06,11.06,0,0,1-3.15,2.7,7.24,7.24,0,0,1-3.49.89,5.06,5.06,0,0,1-3.33-1.16,7.31,7.31,0,0,1-2-2.68,20.67,20.67,0,0,1-.43-5.27v-8.74a6.39,6.39,0,0,0-.49-3.13,3.26,3.26,0,0,0-1.91-.78v-.86h8.95v15a18.69,18.69,0,0,0,.24,3,2.33,2.33,0,0,0,.75,1.06,1.68,1.68,0,0,0,1.07.35,2.3,2.3,0,0,0,1.52-.46,8.68,8.68,0,0,0,2.28-2.44V759.08c0-1.66-.06-2.68-.37-3.13a3.61,3.61,0,0,0-2-.78v-.86Z"/><path class="m" d="M215.61,746.34v8h5.25v2.36h-5.25v13.49a11.64,11.64,0,0,0,.18,2.44,1.56,1.56,0,0,0,.62.84,1.09,1.09,0,0,0,.8.35c1,0,2.1-.73,3-2.29l.68.5c-1.24,3.06-3.34,4.58-6.27,4.58a6.1,6.1,0,0,1-3.55-1.16,5.83,5.83,0,0,1-1.79-2.69,27.73,27.73,0,0,1-.24-4.28V756.67h-2.85v-.82a35.72,35.72,0,0,0,5.07-4.38,33.9,33.9,0,0,0,3.61-5.13Z"/><path class="n" d="M232,744.5v12.63a15.39,15.39,0,0,1,3.3-2.69,6.92,6.92,0,0,1,3.18-.78,5.68,5.68,0,0,1,3.52,1.16,5.93,5.93,0,0,1,2,2.74,21.61,21.61,0,0,1,.46,5.36v8.58c0,1.64.15,2.69.49,3.1a2.44,2.44,0,0,0,1.89.82v.84H235.67v-.84a2.75,2.75,0,0,0,1.73-1,5.9,5.9,0,0,0,.41-2.94v-9.79a29.79,29.79,0,0,0-.16-3.44,2.2,2.2,0,0,0-.8-1.09,1.4,1.4,0,0,0-1.11-.4,3.08,3.08,0,0,0-1.79.64,9.65,9.65,0,0,0-2,2.33V771.5a7.7,7.7,0,0,0,.34,2.94,2.49,2.49,0,0,0,1.88,1v.84H223v-.84a2.52,2.52,0,0,0,2-.95,7.51,7.51,0,0,0,.36-3V749.23c0-1.67-.15-2.66-.49-3.07a2.88,2.88,0,0,0-1.85-.85v-.81Z"/><path class="o" d="M268.49,764.5H256.36a11.16,11.16,0,0,0,2.38,6.83,4.84,4.84,0,0,0,3.85,2,4.72,4.72,0,0,0,2.66-.82,9.66,9.66,0,0,0,2.44-2.78l.8.47a13.25,13.25,0,0,1-4,5.21,8.63,8.63,0,0,1-5,1.51,8.34,8.34,0,0,1-7.4-3.79,13.33,13.33,0,0,1-2-7.51,12.51,12.51,0,0,1,3-8.73,9,9,0,0,1,6.95-3.24,7.51,7.51,0,0,1,5.8,2.74C267.53,758.19,268.4,761,268.49,764.5Zm-5.81-1.58a23.35,23.35,0,0,0-.4-5.19,3.84,3.84,0,0,0-1.36-2.11,1.7,1.7,0,0,0-1.23-.45,2.46,2.46,0,0,0-2,1.18,10.78,10.78,0,0,0-1.36,5.79v.78Z"/><path class="p" d="M280.25,754.31v2.82a12.3,12.3,0,0,1,3.27-2.66,7,7,0,0,1,3.4-.81,5.61,5.61,0,0,1,3.55,1.16,6.58,6.58,0,0,1,1.82,2.94,20.1,20.1,0,0,1,.37,5.16v8.55c0,1.67.15,2.72.49,3.13a2.38,2.38,0,0,0,1.88.82v.84H283.89v-.84a2.42,2.42,0,0,0,1.82-1.06,7,7,0,0,0,.34-2.89v-9.76a22.79,22.79,0,0,0-.18-3.44,2.29,2.29,0,0,0-.68-1.09,1.74,1.74,0,0,0-1.11-.4c-1.36,0-2.66,1-3.83,2.94v11.75c0,1.62.12,2.64.46,3.07a2.08,2.08,0,0,0,1.7.88v.84H271.24v-.84a2.57,2.57,0,0,0,2-.95,6.48,6.48,0,0,0,.43-3V759.08a6.39,6.39,0,0,0-.49-3.13,3.3,3.3,0,0,0-2-.78v-.86Z"/><path class="q" d="M306.83,746.34v8H312v2.36h-5.21v13.49a7.74,7.74,0,0,0,.24,2.44,1.57,1.57,0,0,0,1.42,1.19c1,0,1.95-.73,2.91-2.29l.64.5c-1.29,3.06-3.27,4.58-6.17,4.58a5.7,5.7,0,0,1-3.55-1.16,5.4,5.4,0,0,1-1.82-2.69,23.63,23.63,0,0,1-.25-4.28V756.67h-2.84v-.82a39.29,39.29,0,0,0,5.06-4.38,35.6,35.6,0,0,0,3.65-5.13Z"/><path class="r" d="M322.79,754.31v17.34c0,1.58.15,2.6.55,3a2.88,2.88,0,0,0,2,.76v.84H313.52v-.84a3.34,3.34,0,0,0,2.26-.88c.31-.35.46-1.31.46-2.89V758.86a5.59,5.59,0,0,0-.55-3,3.27,3.27,0,0,0-2.17-.74v-.86Zm-3.28-10.59a3.66,3.66,0,0,1,2.6,1.09,3.45,3.45,0,0,1,1,2.54,3.58,3.58,0,0,1-1,2.57,3.91,3.91,0,0,1-2.6,1.07,3.78,3.78,0,0,1-3.67-3.64,3.37,3.37,0,0,1,1.14-2.54A3.3,3.3,0,0,1,319.51,743.72Z"/><path class="s" d="M345.57,770.56l.74.55a11.56,11.56,0,0,1-3.89,4.38,9.4,9.4,0,0,1-4.88,1.44,8.47,8.47,0,0,1-7-3.35,12.25,12.25,0,0,1-2.72-8,13.37,13.37,0,0,1,2.41-7.9,9.37,9.37,0,0,1,8-4.07,8,8,0,0,1,5.43,1.71,4.92,4.92,0,0,1,2,3.88,2.78,2.78,0,0,1-.86,2.08,3,3,0,0,1-2.2.81,3.34,3.34,0,0,1-2.28-.88,5.37,5.37,0,0,1-1-3.3,4.34,4.34,0,0,0-.71-2.08,1.7,1.7,0,0,0-1.27-.57,2.39,2.39,0,0,0-2,1.16,10.6,10.6,0,0,0-1.17,5.6,19,19,0,0,0,.92,5.9,9.48,9.48,0,0,0,2.78,4.2,4.64,4.64,0,0,0,3,1,4.86,4.86,0,0,0,2.22-.51A10.56,10.56,0,0,0,345.57,770.56Z"/><path class="t" d="M382.52,765.45l8.67-21h13v.81h-1a4.9,4.9,0,0,0-2.29.49,2.73,2.73,0,0,0-1,1.12,12.12,12.12,0,0,0-.24,2.94v20.93a12.78,12.78,0,0,0,.24,3,2.64,2.64,0,0,0,1.12,1.1,3.8,3.8,0,0,0,2.16.53h1v.84H387.49v-.84h1a4,4,0,0,0,2.2-.53,2.59,2.59,0,0,0,1-1.16,10,10,0,0,0,.25-2.94V747.27l-12.22,29h-.56l-12.53-28.84v22.39a13.54,13.54,0,0,0,.19,2.89,4.06,4.06,0,0,0,1.23,1.93,5.8,5.8,0,0,0,3.27.79v.84h-11v-.84h.47a4.7,4.7,0,0,0,1.88-.36,3.32,3.32,0,0,0,1.42-1,4.58,4.58,0,0,0,.71-1.68c0-.19.06-1,.06-2.4v-20.1a13.93,13.93,0,0,0-.22-3,3.31,3.31,0,0,0-1.07-1.12,5.84,5.84,0,0,0-2.17-.43h-1.08v-.81h13.06Z"/><path class="u" d="M415.33,754.31v17.34a6,6,0,0,0,.49,3,3.11,3.11,0,0,0,2.1.76v.84H406v-.84a3.19,3.19,0,0,0,2.22-.88,5.75,5.75,0,0,0,.43-2.89V758.86a6.25,6.25,0,0,0-.43-3,3.71,3.71,0,0,0-2.22-.74v-.86ZM412,743.72a3.13,3.13,0,0,1,2.5,1.09,3.18,3.18,0,0,1,1.14,2.54,3.5,3.5,0,0,1-1.14,2.57A3.41,3.41,0,0,1,412,751a3.79,3.79,0,0,1-2.63-1.07,3.41,3.41,0,0,1-1-2.57,3.29,3.29,0,0,1,1-2.54A3.56,3.56,0,0,1,412,743.72Z"/><path class="v" d="M441.53,744.5v25.11a21.64,21.64,0,0,0,.16,3.09,1.83,1.83,0,0,0,.71,1.09,3.72,3.72,0,0,0,1.82.52v.83L435,776.93v-3.55a10,10,0,0,1-3,2.77,5.24,5.24,0,0,1-2.91.78,7.79,7.79,0,0,1-6.76-3.79,13.85,13.85,0,0,1-1.94-7.48,15.88,15.88,0,0,1,1.23-6.33,9.17,9.17,0,0,1,3.37-4.27,8.77,8.77,0,0,1,4.66-1.4,6.29,6.29,0,0,1,2.75.62A10.44,10.44,0,0,1,435,756.4v-6.59a10.14,10.14,0,0,0-.24-3,2.7,2.7,0,0,0-.81-1.06,6.54,6.54,0,0,0-2.22-.26v-1ZM435,759.25c-1.2-2.19-2.62-3.3-4.26-3.3a2.88,2.88,0,0,0-1.51.48,4.85,4.85,0,0,0-1.33,2.59,18.43,18.43,0,0,0-.59,5.59,21.92,21.92,0,0,0,.59,6.15,4.84,4.84,0,0,0,1.73,2.82A1.87,1.87,0,0,0,431,774c1.42,0,2.75-1.06,3.95-3.2Z"/><path class="w" d="M468.39,744.5v25.11c0,1.72.09,2.75.09,3.09.22.5.37.88.78,1.09a3.65,3.65,0,0,0,1.88.52v.83l-9.38,1.79v-3.55a9.86,9.86,0,0,1-2.91,2.77,5.39,5.39,0,0,1-3,.78,7.64,7.64,0,0,1-6.67-3.79,13.51,13.51,0,0,1-1.94-7.48,14.91,14.91,0,0,1,1.26-6.33,9.19,9.19,0,0,1,3.3-4.27,8.37,8.37,0,0,1,4.6-1.4,6.91,6.91,0,0,1,2.84.62,8.06,8.06,0,0,1,2.54,2.12v-6.59a11.26,11.26,0,0,0-.16-3,2,2,0,0,0-.86-1.06,5.73,5.73,0,0,0-2.13-.26v-1Zm-6.63,14.75c-1.12-2.19-2.54-3.3-4.17-3.3a3.16,3.16,0,0,0-1.55.48,5.74,5.74,0,0,0-1.42,2.59,23.79,23.79,0,0,0-.55,5.59,22.22,22.22,0,0,0,.65,6.15,4.8,4.8,0,0,0,1.66,2.82,2.35,2.35,0,0,0,1.52.46c1.32,0,2.68-1.06,3.86-3.2Z"/><path class="x" d="M482.47,744.5v27.15a6,6,0,0,0,.46,3,3.34,3.34,0,0,0,2.22.76v.84h-12v-.84a3,3,0,0,0,2.19-.88c.31-.35.46-1.31.46-2.89V749c0-1.58-.15-2.49-.56-2.91a2.83,2.83,0,0,0-2.09-.78v-.81Z"/><path class="y" d="M505.9,764.5H493.8a11,11,0,0,0,2.34,6.83,5.08,5.08,0,0,0,3.89,2,4.54,4.54,0,0,0,2.59-.82,9.11,9.11,0,0,0,2.45-2.78l.83.47a13.82,13.82,0,0,1-4,5.21,8.61,8.61,0,0,1-5,1.51,8.27,8.27,0,0,1-7.34-3.79,13.12,13.12,0,0,1-2.1-7.51,12.52,12.52,0,0,1,3-8.73,9,9,0,0,1,7-3.24,7.48,7.48,0,0,1,5.74,2.74C504.91,758.19,505.83,761,505.9,764.5Zm-5.81-1.58a23.89,23.89,0,0,0-.37-5.19,4.16,4.16,0,0,0-1.26-2.11,1.93,1.93,0,0,0-1.33-.45,2.52,2.52,0,0,0-2.07,1.18,11.06,11.06,0,0,0-1.35,5.79v.78Z"/><path class="z" d="M532.29,746.34v12.91h.55a5,5,0,0,0,4.45-2,11,11,0,0,0,1.76-5.59H540v16.7h-.93a12.36,12.36,0,0,0-1.17-4.5,5.41,5.41,0,0,0-2.1-2.3,8,8,0,0,0-3.49-.59v8.88a23.44,23.44,0,0,0,.16,3.25,2,2,0,0,0,.86.9,3.2,3.2,0,0,0,2,.43h1.92a11.7,11.7,0,0,0,7.19-2.09,11.25,11.25,0,0,0,3.86-6.23h.89l-1.42,10.11H520v-.84h1.15a3.88,3.88,0,0,0,2.19-.53,2.56,2.56,0,0,0,1-1.16,11,11,0,0,0,.21-2.94V749.92a24,24,0,0,0-.06-2.65,2.24,2.24,0,0,0-.86-1.28,4.17,4.17,0,0,0-2.44-.68H520v-.81h26.8v9.29h-.93a9.77,9.77,0,0,0-1.91-4.88,7.12,7.12,0,0,0-3.46-2.19,20.3,20.3,0,0,0-5-.38Z"/><path class="aa" d="M565.1,773c-2.68,2.39-5,3.6-7.16,3.6a4.12,4.12,0,0,1-3.15-1.24,4.18,4.18,0,0,1-1.29-3.09,6.08,6.08,0,0,1,2.16-4.55q2.13-2,9.44-5.28v-2.19a14.16,14.16,0,0,0-.24-3.17,2.73,2.73,0,0,0-1-1.15,3.7,3.7,0,0,0-1.73-.49,4.33,4.33,0,0,0-2.56.7,1.21,1.21,0,0,0-.62,1,1.74,1.74,0,0,0,.71,1.17,3.6,3.6,0,0,1,.86,2,2.65,2.65,0,0,1-.86,2,3.07,3.07,0,0,1-2.22.79,3.62,3.62,0,0,1-2.53-.9,2.81,2.81,0,0,1-1-2,5.17,5.17,0,0,1,1.32-3.27,9.94,9.94,0,0,1,3.83-2.36,15,15,0,0,1,4.94-.81,8.67,8.67,0,0,1,5,1.3,6.12,6.12,0,0,1,2.41,2.88,19.61,19.61,0,0,1,.31,4.58v8.5c0,1,.06,1.6.06,1.81a.93.93,0,0,0,.4.61,1.06,1.06,0,0,0,.56.21c.4,0,.77-.32,1.26-.92l.68.6a8.12,8.12,0,0,1-2.41,2.54,5.51,5.51,0,0,1-2.93.81,4.77,4.77,0,0,1-2.93-.89A4.15,4.15,0,0,1,565.1,773Zm0-1.71v-7.33a14.31,14.31,0,0,0-4.26,3.56,4.46,4.46,0,0,0-.93,2.56,2.6,2.6,0,0,0,.81,1.87,2,2,0,0,0,1.6.67A4.44,4.44,0,0,0,565.1,771.27Z"/><path class="ab" d="M591,753.69l.4,7.5h-.77a11,11,0,0,0-3-4.52,5,5,0,0,0-3.09-1.25,2.55,2.55,0,0,0-1.7.59,2.21,2.21,0,0,0-.61,1.55,1.92,1.92,0,0,0,.46,1.17,21.12,21.12,0,0,0,4.23,3.41,16.69,16.69,0,0,1,4.57,3.87,6.58,6.58,0,0,1,1.11,3.6,8.06,8.06,0,0,1-1,3.62A7,7,0,0,1,589,776a8.08,8.08,0,0,1-3.64.92,12.63,12.63,0,0,1-4.3-1,5.39,5.39,0,0,0-.92-.22c-.59,0-1,.35-1.36,1.16h-.71l-.4-7.94h.8a10.15,10.15,0,0,0,2.9,4.67,5.56,5.56,0,0,0,3.52,1.56,2.83,2.83,0,0,0,1.89-.7,2.41,2.41,0,0,0,.7-1.71,2.67,2.67,0,0,0-.7-1.89,17.54,17.54,0,0,0-3.19-2.47,25.19,25.19,0,0,1-4.69-3.79,6.56,6.56,0,0,1-1.54-4.28,6.76,6.76,0,0,1,1.73-4.58,6.3,6.3,0,0,1,5.06-2.06,8,8,0,0,1,3.52.81,1.54,1.54,0,0,0,1.08.38,1.83,1.83,0,0,0,.65-.13,8.69,8.69,0,0,0,.77-1Z"/><path class="ac" d="M604.62,746.34v8h5.27v2.36h-5.27v13.49a7.76,7.76,0,0,0,.21,2.44,1.23,1.23,0,0,0,.65.84,1.08,1.08,0,0,0,.77.35c1,0,2-.73,2.93-2.29l.71.5c-1.32,3.06-3.33,4.58-6.23,4.58a6,6,0,0,1-3.62-1.16,5.61,5.61,0,0,1-1.79-2.69,19.08,19.08,0,0,1-.24-4.28V756.67h-2.9v-.82a29,29,0,0,0,5-4.38,22.49,22.49,0,0,0,3.73-5.13Z"/><path class="ad" d="M654.62,743.72v11h-.89a11.66,11.66,0,0,0-3.86-6.62,10.1,10.1,0,0,0-6.45-2.24,9.71,9.71,0,0,0-5.47,1.7,10.11,10.11,0,0,0-3.7,4.47,21.59,21.59,0,0,0-1.45,7.89,23.68,23.68,0,0,0,1.14,7.75,10.12,10.12,0,0,0,3.4,5.31,9.54,9.54,0,0,0,5.92,1.84,11.65,11.65,0,0,0,5.56-1.41,19.94,19.94,0,0,0,5.31-4.5v2.74a19.55,19.55,0,0,1-5.56,4.12,18.18,18.18,0,0,1-6.85,1.24,18.82,18.82,0,0,1-9.14-2.12A13.88,13.88,0,0,1,626.5,769a16.06,16.06,0,0,1-2.22-8,17.61,17.61,0,0,1,2.44-8.73,16.63,16.63,0,0,1,6.54-6.26,17.2,17.2,0,0,1,8.52-2.27,19.79,19.79,0,0,1,7.16,1.49,11.87,11.87,0,0,0,2.78.81,1.59,1.59,0,0,0,1.26-.51,2.71,2.71,0,0,0,.75-1.79Z"/><path class="ae" d="M680.18,754.31V771.5a6.4,6.4,0,0,0,.53,3.1,2.3,2.3,0,0,0,1.88.82v.84h-9v-2.92a12.83,12.83,0,0,1-3.11,2.7,7.33,7.33,0,0,1-3.58.89,5.13,5.13,0,0,1-3.34-1.16,6.16,6.16,0,0,1-1.91-2.68,19.51,19.51,0,0,1-.53-5.27v-8.74a6,6,0,0,0-.49-3.13,2.87,2.87,0,0,0-1.88-.78v-.86h9v15a8.28,8.28,0,0,0,.25,3,1.41,1.41,0,0,0,.74,1.06,1.54,1.54,0,0,0,1.08.35,2.63,2.63,0,0,0,1.51-.46,10.65,10.65,0,0,0,2.25-2.44V759.08a7.38,7.38,0,0,0-.46-3.13,3.18,3.18,0,0,0-1.88-.78v-.86Z"/><path class="af" d="M694.32,754.31v17.34c0,1.58.18,2.6.59,3a3.08,3.08,0,0,0,2.16.76v.84h-12v-.84a2.66,2.66,0,0,0,2.1-.88c.4-.35.59-1.31.59-2.89V758.86c0-1.57-.19-2.54-.59-3a3.16,3.16,0,0,0-2.1-.74v-.86Zm-3.21-10.59a3.46,3.46,0,0,1,2.53,1.09,3.54,3.54,0,0,1,1.08,2.54,3.67,3.67,0,0,1-3.61,3.64,3.76,3.76,0,0,1-2.63-1.07,3.65,3.65,0,0,1-1-2.57,3.59,3.59,0,0,1,3.64-3.63Z"/><path class="ag" d="M713.09,753.69l.43,7.5h-.84a10.91,10.91,0,0,0-3-4.52,5.13,5.13,0,0,0-3.09-1.25,2.61,2.61,0,0,0-1.66.59,2,2,0,0,0-.68,1.55,2.62,2.62,0,0,0,.43,1.17,26,26,0,0,0,4.26,3.41,17.34,17.34,0,0,1,4.57,3.87,6.12,6.12,0,0,1,1.17,3.6,7,7,0,0,1-1,3.62,6.77,6.77,0,0,1-2.62,2.78,8.14,8.14,0,0,1-3.7.92,12.53,12.53,0,0,1-4.2-1,5,5,0,0,0-.93-.22c-.55,0-1,.35-1.36,1.16h-.8l-.37-7.94h.84a10.52,10.52,0,0,0,2.93,4.67,5.33,5.33,0,0,0,3.49,1.56,2.67,2.67,0,0,0,1.82-.7,2.52,2.52,0,0,0,.8-1.71,2.75,2.75,0,0,0-.8-1.89,16.15,16.15,0,0,0-3.15-2.47,22.74,22.74,0,0,1-4.6-3.79,6.61,6.61,0,0,1-1.58-4.28,6.69,6.69,0,0,1,1.76-4.58,6.21,6.21,0,0,1,5-2.06,8.13,8.13,0,0,1,3.52.81,1.5,1.5,0,0,0,1,.38,1.83,1.83,0,0,0,.68-.13,6.27,6.27,0,0,0,.83-1Z"/><path class="ah" d="M726.61,754.31v17.34c0,1.58.12,2.6.46,3a3.19,3.19,0,0,0,2.19.76v.84H717.35v-.84a3.31,3.31,0,0,0,2.22-.88,6.74,6.74,0,0,0,.4-2.89V758.86a5.46,5.46,0,0,0-.56-3,2.81,2.81,0,0,0-2.06-.74v-.86Zm-3.31-10.59a3.73,3.73,0,0,1,2.63,1.09,3.43,3.43,0,0,1,1,2.54,4,4,0,0,1-1,2.57A4,4,0,0,1,723.3,751a3.66,3.66,0,0,1-2.62-1.07,3.93,3.93,0,0,1-1-2.57,3.77,3.77,0,0,1,1-2.54A3.45,3.45,0,0,1,723.3,743.72Z"/><path class="ai" d="M740.34,754.31v2.82a13.91,13.91,0,0,1,3.28-2.66,7.83,7.83,0,0,1,3.42-.81,5.42,5.42,0,0,1,3.55,1.16,6.13,6.13,0,0,1,1.88,2.94,26.14,26.14,0,0,1,.34,5.16v8.55a6.11,6.11,0,0,0,.53,3.13c.21.46.89.74,1.88.82v.84H744.05v-.84a2.38,2.38,0,0,0,1.82-1.06,7.56,7.56,0,0,0,.37-2.89v-9.76a14.92,14.92,0,0,0-.22-3.44,1.81,1.81,0,0,0-.74-1.09,1.56,1.56,0,0,0-1.08-.4c-1.39,0-2.65,1-3.86,2.94v11.75c0,1.62.19,2.64.59,3.07.22.52.74.8,1.63.88v.84H731.45v-.84a2.4,2.4,0,0,0,2-.95c.28-.36.4-1.33.4-3V759.08c0-1.66-.12-2.68-.49-3.13a3.25,3.25,0,0,0-1.89-.78v-.86Z"/><path class="aj" d="M777,764.5h-12.1a11.08,11.08,0,0,0,2.32,6.83,4.92,4.92,0,0,0,3.89,2,4.16,4.16,0,0,0,2.53-.82,9.34,9.34,0,0,0,2.53-2.78l.83.47a15,15,0,0,1-4,5.21,8.74,8.74,0,0,1-5.06,1.51,8.47,8.47,0,0,1-7.41-3.79,12.64,12.64,0,0,1-2-7.51c0-3.6.9-6.61,3-8.73a9.06,9.06,0,0,1,6.94-3.24,7.37,7.37,0,0,1,5.75,2.74C775.9,758.19,776.77,761,777,764.5Zm-5.83-1.58a21.17,21.17,0,0,0-.43-5.19,4,4,0,0,0-1.27-2.11,1.89,1.89,0,0,0-1.3-.45,2.44,2.44,0,0,0-2,1.18,11,11,0,0,0-1.36,5.79v.78Z"/><path class="ak" d="M504.29,342.22h-1.42a3.76,3.76,0,0,0-1.48.41,1.07,1.07,0,0,0-.59.67,8.84,8.84,0,0,0-.21,2.35v16.5a9.74,9.74,0,0,0,.21,2.44,1.11,1.11,0,0,0,.59.58,3.21,3.21,0,0,0,1.48.4h1.42v1.6H492.38v-1.6h1.33a2.3,2.3,0,0,0,2-.78,6.11,6.11,0,0,0,.31-2.64v-7.3H485v7.3a7.28,7.28,0,0,0,.21,2.44c0,.2.25.38.5.58a3.92,3.92,0,0,0,1.57.4h1.39v1.6h-12v-1.6h1.36a2.22,2.22,0,0,0,2-.78c.06-.08.4-.63.4-2.64v-16.5c0-1.64-.15-2.24-.34-2.44,0-.23-.22-.38-.55-.58a3,3,0,0,0-1.49-.41h-1.36v-1.58h12v1.58h-1.39a3.2,3.2,0,0,0-1.57.41,1,1,0,0,0-.56.67,10.79,10.79,0,0,0-.15,2.35v6.89h11v-6.89a10.44,10.44,0,0,0-.19-2.44,2,2,0,0,0-.61-.58,3.4,3.4,0,0,0-1.51-.41h-1.33v-1.58h11.91Z"/><path class="al" d="M553.9,367.17H533.06v-1.6h1.42a2.42,2.42,0,0,0,2-.83,7.43,7.43,0,0,0,.24-2.59V345.57c0-2-.24-2.51-.37-2.65a2.32,2.32,0,0,0-1.85-.7h-1.42v-1.58h12.66v1.64l-.68-.06a5.65,5.65,0,0,0-2.53.38,2.19,2.19,0,0,0-.87.74c-.18.24-.24.82-.24,2.75v16.06a4.13,4.13,0,0,0,.24,2,1,1,0,0,0,.46.35,13.36,13.36,0,0,0,2.78.12h1.83a13.34,13.34,0,0,0,4-.39,6.62,6.62,0,0,0,2.1-1.41,12.92,12.92,0,0,0,1.88-3.43l.09-.29,1.55.29Z"/><path class="am" d="M605.79,367.17H585v-1.6h1.52a2.26,2.26,0,0,0,1.88-.83c.15-.2.3-.76.3-2.59V345.57a5.8,5.8,0,0,0-.36-2.65,2.25,2.25,0,0,0-1.82-.7H585v-1.58h12.63v1.64l-.71-.06a5.3,5.3,0,0,0-2.44.38,1.62,1.62,0,0,0-.87.74c-.15.24-.3.82-.3,2.75v16.06c0,1.23.09,1.76.3,2s.16.27.41.35a14.18,14.18,0,0,0,2.83.12h1.8a14.37,14.37,0,0,0,4.07-.39,4.84,4.84,0,0,0,2-1.41,12.62,12.62,0,0,0,1.89-3.43l.15-.29,1.52.29Z"/><path class="an" d="M532.38,365.6a3.91,3.91,0,0,1-2.22-.81c-.4-.28-.92-1.1-1.82-3.17L519.23,340h-1.32l-9.17,21.33a10.75,10.75,0,0,1-2,3.6c-.06.12-.56.41-1.85.63l-.4,0v1.52h9V365.6h-.4c-1.51-.08-2-.39-2.13-.51-.4-.3-.4-.5-.4-.66a6.92,6.92,0,0,1,.52-2.08l1.67-3.75h9.38l1.49,3.37a9.15,9.15,0,0,1,.71,2.54.92.92,0,0,1-.41.66,3.82,3.82,0,0,1-1.79.43h-.43v1.57h11V365.6Zm-18.64-9.34,3.83-8.7,3.7,8.7Z"/><path class="ao" d="M584.27,365.6a3.92,3.92,0,0,1-2.25-.81,9.55,9.55,0,0,1-1.79-3.17L571.15,340h-1.36l-9.07,21.33a13.53,13.53,0,0,1-2.07,3.6,4.08,4.08,0,0,1-1.91.63l-.31,0v1.52h9V365.6H565a3.7,3.7,0,0,1-2.16-.51c-.31-.3-.4-.5-.4-.66a5.41,5.41,0,0,1,.64-2.08l1.58-3.75h9.42l1.42,3.37a7.14,7.14,0,0,1,.7,2.54,1,1,0,0,1-.27.66,5.12,5.12,0,0,1-1.85.43h-.47v1.57h11.08V365.6Zm-18.61-9.34,3.82-8.7,3.65,8.7Z"/><polygon class="ap" points="541.55 246.99 549.3 262.53 566.52 265.04 554.05 277.12 556.98 294.23 541.55 286.16 526.15 294.23 529.05 277.12 516.64 265.04 533.87 262.53 541.55 246.99"/><polygon class="aq" points="448.39 310.27 456.04 325.8 473.27 328.31 460.89 340.39 463.82 357.42 448.39 349.44 432.99 357.42 435.89 340.39 423.36 328.31 440.64 325.8 448.39 310.27"/><polygon class="ar" points="631.69 310.27 639.37 325.8 656.66 328.31 644.19 340.39 647.12 357.42 631.69 349.44 616.31 357.42 619.25 340.39 606.81 328.31 623.94 325.8 631.69 310.27"/><polygon class="as" points="493.06 399.5 500.8 415 518.06 417.46 505.59 429.54 508.49 446.65 493.06 438.59 477.68 446.65 480.58 429.54 468.08 417.46 485.34 415 493.06 399.5"/><polygon class="at" points="587.7 399.5 595.41 415 612.64 417.46 600.14 429.54 603.07 446.65 587.7 438.59 572.26 446.65 575.17 429.54 562.76 417.46 579.98 415 587.7 399.5"/><path class="au" d="M908.55,391.86s14-8.68,19.5,7.75c0,0,4.26,11.36-10.55,27.39s-14.29,23.6-7.17,26.58c0,0-8.82,9.22-17.93-6.69,0,0-7.32-12.95,7.69-28.37s15.28-27.44,7.93-26.45"/><path class="av" d="M910.8,439.36s14.1-8.76,19.63,7.67c0,0,4.26,11.36-10.52,27.48S905.52,498,912.71,501c0,0-8.77,9.26-18-6.62,0,0-7.29-12.92,7.65-28.45s15.19-27.35,8-26.44"/></svg>