<svg xmlns="http://www.w3.org/2000/svg" viewBox="0 0 1024 1024"><defs><style>.a{fill:#d1222a;}.b{fill:#e4c021;}</style></defs><path class="a" d="M191.13,603.82l-.23-5.61H152.09l0,5.34-.13.26a2.34,2.34,0,0,1-1.65-.83,1.91,1.91,0,0,1-.47-1.37s-.25,1.27-3.1,5l-45.86,40.67V608.57c0-4.35,2-4.71,2.33-4.74v-5.62H71l-.08,5.62c.4,0,2.41.39,2.41,4.74v43.21L67,657.92l6.33,6.33v50.63c-.72,6.47-2.68,7.34-2.7,7.35a1.3,1.3,0,0,1,.37,0v5.62h32.17V725l.16-2.8c-.86-.13-2.49-1.79-2.49-7.17V680.35l12.79-11.47,35.92,47.85c3.61,4.76,3.56,6.31,3.56,6.37a1.13,1.13,0,0,1,1.1-.91v5.62H190.6l.25-5.61s-4.53-.64-10.69-8.86l-46.76-62,45.95-40.72C186.24,604.42,191.12,603.82,191.13,603.82Z"/><path class="a" d="M250.83,657.92,241,651.45V609.07a5.93,5.93,0,0,1,6-5.24h.82v-5.62H206.69v5.62h.72c.92,0,5.42.34,6,5.19v42.43l-9.78,6.47,9.78,6.65v50.16c0,7-5,7.44-5.94,7.46h-.81v5.62h41.32v-5.62H247c-.61,0-6-.21-6-7.46V664.57Z"/><path class="a" d="M375.11,607.51c0-3.1,1.49-3.64,2.32-3.68h3.12v-5.62H344v5.62h1.24c.9,0,2.37.6,2.37,3.68V662.7l-50.82-56.56a11.88,11.88,0,0,1-.38-2.31h.35v-5.62h-36v5.62h1.4c.89,0,2.37.6,2.37,3.68v43.24l-6.33,6.32,6.33,6.15v50.91c0,5.89-1.23,7.66-1.6,8.06h-.13v5.62H295.9v-5.62h-1.12c-.41-.32-2-2-2.73-8.22V641.85L375.11,734V663.22l6.32-6.15-6.32-6.32Z"/><path class="a" d="M467.86,679.48h22.95v6.15c-.84,4.34-3.76,8.69-8.75,13-4.73,4.33-11.1,6.52-18.95,6.52-10.86,0-19.38-2.66-25.31-7.9-9-8-13.55-19.84-13.55-35.2,0-16.26,4.3-28.3,12.81-35.82,5.78-5.23,13.23-7.88,22.13-7.88s15.75,2.2,20.63,6.54a22.85,22.85,0,0,1,7.83,16.57l.39,4.22h28.4l-.38-4.89c-.48-11.87-5.52-22.19-15-30.67-10.81-9.69-24.91-14.61-41.9-14.61s-31.53,5.37-43.56,16c-10.67,9.57-17.1,22.72-19.1,39.14-.51.47-2.08,1.67-6.3,3.57l-5.5,2.49,5.44,2.6c3.83,1.84,5.3,3.05,5.81,3.56.18,20.71,7.35,37.5,21.33,49.92,11.24,10,26.14,15.06,44.3,15.06,13,0,24.31-3.4,33.51-10.08l23.36,11.84V656.65H467.86Z"/><path class="a" d="M633.26,614c-12-10.58-26.66-16-43.54-16H532.79l0,5.62c1.11,0,4.77.45,4.77,5v42.91l-9.8,6.66,9.8,6.46v50.58c0,6.09-3.67,6.68-4.75,6.7v5.63h56.93c17.37,0,31.76-4.86,42.81-14.47,13-11.77,19.65-28.32,19.65-49.2C652.18,642,645.82,625.14,633.26,614ZM565.2,664.75l9.79-6.46-9.79-6.66V620.89H589a32.54,32.54,0,0,1,22.15,8.66c8.39,7.41,12.64,19,12.64,34.44,0,14.45-4.51,25.79-13.41,33.7-5.28,4.73-12.47,7.13-21.38,7.13H565.2Z"/><path class="a" d="M791.88,650.24c-2.27-15.75-9-28.64-19.89-38.33-11.86-10.59-26.46-16-43.4-16s-31.69,5.37-43.54,16c-10.91,9.66-17.6,22.52-19.89,38.34-.25.36-1.23,1.55-4.25,3.54l-3.34,2.2,3.2,2.39c2.73,2,3.51,3.33,3.71,3.71.07,20.76,7,37.45,20.56,49.6,11.86,10.59,26.51,16,43.55,16s31.54-5.38,43.41-16c13.56-12.15,20.48-28.82,20.56-49.58.2-.39,1-1.66,3.83-3.7l3.33-2.42-3.47-2.22A16.66,16.66,0,0,1,791.88,650.24Zm-63.29,54.58a34.77,34.77,0,0,1-23.84-9.44c-7.86-6.76-11.86-18.08-11.86-33.65s4-26.77,11.91-33.7a34.63,34.63,0,0,1,47.46,0c7.89,6.91,11.88,18.24,11.88,33.68s-4,26.91-11.9,33.85A34.55,34.55,0,0,1,728.59,704.82Z"/><path class="a" d="M945.41,715.18v-51l6.12-6.3-6.12-6.12V608.57c0-4.34,1.9-4.71,2.18-4.74h1.35v-5.62h-40.4v5.62h.84c.13.24.49,1.22-.1,3.84l-29.5,66.47-29.61-66.42c-.43-2.34-.2-3.51,0-3.89h1v-5.62H809.49v5.62h2.27c.43,0,2.24.49,2.24,4.74V651.8l-6.11,6.12,6.11,6.3v51c0,5.45-1.69,6.91-2.17,7h-1v5.62h34.34v-5.62h-1.06c-.86-.16-2.44-1.82-2.44-7V652.9l39.4,78.52,36.68-77.83V715c-.72,5.6-2.29,6.94-2.65,7.18h-.31v5.62h34v-5.62h-1.07C947,722,945.41,720.51,945.41,715.18Z"/><path class="a" d="M323.84,527.79l.39-5h-28.8v4.77c0,10.89-3.1,18.95-9.48,24.63-4.88,4.34-12.07,6.54-21.39,6.54-8.92,0-16.16-2.62-22.15-8-8.38-7.41-12.64-19.2-12.64-35,0-1.67.44-8.13.58-9.77,1.41-11,5.47-19.54,12.07-25.44a32.48,32.48,0,0,1,22.14-8.65,29.3,29.3,0,0,1,19.88,7.3c4.89,4.34,7.75,10.72,8.74,19.44l.38,4.22h28v-4.9c-.64-14.37-6.23-26.36-16.64-35.65-9.8-8.69-23.38-13.09-40.38-13.09s-31,4.86-41.89,14.45C211,474,204.06,487.75,202.06,504.45c-.57.5-2.24,1.72-6.59,3.64l-5.82,2.58,5.83,2.56a24.13,24.13,0,0,1,5.88,3.27c.18,21.08,7.36,38.06,21.31,50.46,10.7,9.6,24.79,14.46,41.89,14.46,18.16,0,32.26-4.41,41.88-13.08C317.52,558.55,323.37,544.85,323.84,527.79Z"/><path class="a" d="M329.82,511.84l6.32,6.33V569c0,5.38-1.63,7-2.32,7.16v5.62H366v-2.81l.19-2.8c-.66-.11-2.36-1.61-2.36-7.17v-43.4H419.2V569c0,5.56-1.7,7.06-2.17,7.16v5.62h32.16v-2.81l.16-2.8c-.86-.13-2.49-1.79-2.49-7.17V518.17l6.33-6.33-6.33-6.14v-43c.48-3.66,1.84-4.82,2.33-4.91v-5.62H417v5.62s2.17.13,2.17,4.74v40.23H363.81V462.49l0-.28c-.17-1.72.06-3,.67-3.7a2.4,2.4,0,0,1,1.52-.76v-5.62H333.82l-.09,5.61c.4,0,2.41.4,2.41,4.75V505.7Z"/><path class="a" d="M460.43,512.21l9.78,6.46v50.58c0,6.09-3.66,6.67-4.74,6.71v5.61H575.41l0-5.61c-1.12,0-4.78-.62-4.78-6.71V558.74H497.87V525.4h64V502.57h-64V474.81h68.87V462.64c0-4.6,3.65-5,4.74-5V452h-106v5.62c.16,0,4,.06,4.74,5.24v42.71Z"/><path class="a" d="M578.66,512.21l10,6.47V569c-1.22,6.54-4.58,6.93-4.89,7v5.61h37.3V576s-4-.08-4.89-6.89V527.51h57.08V504.68H616.18V474.81H689V462.64a4.66,4.66,0,0,1,4.89-5V452H583.77v5.62a4.65,4.65,0,0,1,4.89,5v42.89Z"/><path class="a" d="M810.68,487.77c-1.8,0-2.4-.56-2.69-4,0-.47-.07-.87-.14-1.26-1.47-7.67-5.58-14.6-12.23-20.6-9.3-8.18-22.83-12.33-40.21-12.33-16.43,0-28.95,3.69-37.22,11-8.43,7.61-12.71,16.59-12.71,26.7,0,7.62,2.45,14,7.29,19,.18.44.61,1.56,1.46,4.2l.46,1.43,1.44.41c14.26,4.08,16.91,5,16.91,5,2.84,1.17,6.11,2.46,9.91,4,2.08.83,4.32,1.71,6.73,2.68,7.91,3.16,15,6.08,20.53,8.45s9.23,4.24,11.32,6.19a8.39,8.39,0,0,1,3.08,6.91c0,3-2.52,5.85-4.63,7.71-4.49,3.94-11.69,5.94-21.4,5.94-10.92,0-18.93-2.19-23.79-6.52-2.53-2.28-4-5.65-4.53-10.28a4.85,4.85,0,0,1,.61-3.26c.1-.11.4-.44,1.43-.44,1.36,0,4.19,0,4.66-2.59s-1.59-3.41-5.7-5c-3.65-1.36-10.27-3.84-12.91-6.6v-5.84l-4.82,4.94c-2.76,2.83-8.18,5.41-11.76,7.12-4.08,1.94-6.12,2.91-5.54,5.48.25,1.11,1.13,2.44,3.91,2.44,1.16,0,2.14.29,2.46,3.93l0,.27c.82,10.75,4.75,19.22,11.65,25.14,10.19,9.09,24.79,13.7,43.4,13.7,19.54,0,33.29-3.79,42-11.58a35.63,35.63,0,0,0,12.58-27.32c0-8.35-3.46-15.71-10.27-21.85a39.36,39.36,0,0,0-13.34-8l-.48-.12a5.27,5.27,0,0,1-1.05-.41l-.78-.34a22.15,22.15,0,0,1-6.72-4.46l-.57-.61-.81-.19c-13.36-3.19-17.53-4.84-17.61-4.87-1.74-.67-3.42-1.35-5.06-2-2.8-1.12-5.45-2.19-8.18-3.16-7.69-2.63-11.13-4.77-12.61-6.07-1.08-1-1.65-2.92-1.65-5.62s1.35-5.39,4.08-7.75c3.16-2.91,9.79-4.39,19.69-4.39,8.85,0,15.29,1.74,19.15,5.2a13.5,13.5,0,0,1,3.86,5.71c.29.89.39,2.72-.14,3.45-.07.1-.3.41-1.28.41-2.81,0-3.47,1.56-3.62,2.49-.39,2.54,1.73,3.21,4.41,4.06,3.34,1.05,11.15,3.52,13,6.59l1,1.39h3.08l.83-1.2c3.11-4.46,11.27-6.49,14.34-7.26,1.55-.38,3.89-1,3.58-3.51S812.19,487.77,810.68,487.77Z"/><polygon class="b" points="109.92 770.07 98.79 770.07 82.84 790.14 81.02 790.14 81.02 770.07 72.31 770.07 72.31 819.63 81.02 819.63 81.02 799.56 82.97 799.56 99.11 819.63 110.26 819.63 90.65 794.73 109.92 770.07"/><rect class="b" x="155.08" y="770.07" width="8.71" height="49.56"/><polygon class="b" points="210.93 779.49 224.82 779.49 224.82 819.63 233.54 819.63 233.54 779.49 247.44 779.49 247.44 770.07 210.93 770.07 210.93 779.49"/><path class="b" d="M304.82,783.92a12.52,12.52,0,0,1,3.72-3.26,8.52,8.52,0,0,1,7.14-.71,10.94,10.94,0,0,1,2.79,1.41,13.32,13.32,0,0,1,2.56,2.4,15.22,15.22,0,0,1,2.08,3.52l1.18,2.69,7.48-5.12-1.11-2.31a25,25,0,0,0-3.46-5.37,22.43,22.43,0,0,0-4.27-3.89,18.55,18.55,0,0,0-4.85-2.39,16.86,16.86,0,0,0-13,1.1,21.19,21.19,0,0,0-6.49,5.23,25.68,25.68,0,0,0-4.43,7.83,29.86,29.86,0,0,0,0,19.52,25.94,25.94,0,0,0,4.39,7.82,20.86,20.86,0,0,0,6.49,5.27,17.06,17.06,0,0,0,8,2,16.48,16.48,0,0,0,5.36-.9,18.91,18.91,0,0,0,4.92-2.56,22.32,22.32,0,0,0,4.16-3.93,24.55,24.55,0,0,0,3.22-5.09l1.07-2.27-7.42-5.25-1.2,2.71a14.11,14.11,0,0,1-4.48,5.86,9,9,0,0,1-10.09.84,12.65,12.65,0,0,1-3.76-3.3,16.5,16.5,0,0,1-2.56-4.94,19.16,19.16,0,0,1-.93-6,18.59,18.59,0,0,1,.95-6A17,17,0,0,1,304.82,783.92Z"/><polygon class="b" points="407.25 790.21 388.85 790.21 388.85 770.07 380.13 770.07 380.13 819.63 388.85 819.63 388.85 799.42 407.25 799.42 407.25 819.63 416.03 819.63 416.03 770.07 407.25 770.07 407.25 790.21"/><polygon class="b" points="467.5 819.63 499.05 819.63 499.05 810.21 476.21 810.21 476.21 799.42 496.07 799.42 496.07 790.21 476.21 790.21 476.21 779.49 499.05 779.49 499.05 770.07 467.5 770.07 467.5 819.63"/><polygon class="b" points="575.34 801.23 556.47 770.07 548.41 770.07 548.41 819.63 557.06 819.63 557.06 788.4 575.99 819.63 584.05 819.63 584.05 770.07 575.34 770.07 575.34 801.23"/><path class="b" d="M658.91,791.91a27.17,27.17,0,0,0-6.13-2,49.62,49.62,0,0,1-5.38-1.36,9.56,9.56,0,0,1-3.48-1.87c-.21-.19-.79-.7-.79-2.42a3,3,0,0,1,.4-1.55,5.18,5.18,0,0,1,1.37-1.59,7.59,7.59,0,0,1,2.26-1.19,8.86,8.86,0,0,1,5.62,0,7.8,7.8,0,0,1,2.31,1.21,4.66,4.66,0,0,1,1.33,1.52,3.24,3.24,0,0,1,.39,1.6V787h8.72v-2.75a13.27,13.27,0,0,0-1.33-5.85,14,14,0,0,0-3.45-4.48,15.78,15.78,0,0,0-4.91-2.86,17.74,17.74,0,0,0-11.71,0,15.19,15.19,0,0,0-5,2.83,14.49,14.49,0,0,0-3.45,4.4,12.54,12.54,0,0,0-1.38,5.79,13.12,13.12,0,0,0,1.38,6.31,11.88,11.88,0,0,0,3.42,4,15.39,15.39,0,0,0,4.37,2.22c1.4.45,2.9.88,4.45,1.26s2.85.71,4.21,1.08a13.28,13.28,0,0,1,3.19,1.3,5.51,5.51,0,0,1,1.84,1.71,4.32,4.32,0,0,1,.53,2.36,4.26,4.26,0,0,1-.5,2.05,6.26,6.26,0,0,1-1.59,2,8,8,0,0,1-2.52,1.39,9.89,9.89,0,0,1-6.45,0,8.7,8.7,0,0,1-2.53-1.48,5.86,5.86,0,0,1-1.49-1.89,4.46,4.46,0,0,1-.47-2v-2.75h-8.77v2.75a14.21,14.21,0,0,0,1.41,6.26,15.83,15.83,0,0,0,3.63,4.86,16.36,16.36,0,0,0,5.22,3.13,18,18,0,0,0,6.26,1.1,17.63,17.63,0,0,0,6-1.06,17.43,17.43,0,0,0,5.2-3,15.21,15.21,0,0,0,3.78-4.74,15.12,15.12,0,0,0-.8-14.66A13.91,13.91,0,0,0,658.91,791.91Z"/><polygon class="b" points="774.02 790.21 755.62 790.21 755.62 770.07 746.91 770.07 746.91 819.63 755.62 819.63 755.62 799.42 774.02 799.42 774.02 819.63 782.8 819.63 782.8 770.07 774.02 770.07 774.02 790.21"/><path class="b" d="M861.63,799.65a11.19,11.19,0,0,1-.75,4.19,10.76,10.76,0,0,1-2,3.38,9.21,9.21,0,0,1-3,2.2,9,9,0,0,1-7.39,0,9.06,9.06,0,0,1-3-2.19,10.93,10.93,0,0,1-2-3.38,11.19,11.19,0,0,1-.76-4.19V770.07H833.9v29.58a22,22,0,0,0,1.37,7.77,20.16,20.16,0,0,0,3.82,6.36,17.82,17.82,0,0,0,5.81,4.29,17.74,17.74,0,0,0,14.55,0,18.17,18.17,0,0,0,5.77-4.29,20,20,0,0,0,3.82-6.36,22,22,0,0,0,1.37-7.77V770.07h-8.78Z"/><path class="b" d="M953.63,796.74a13.9,13.9,0,0,0-2.19-2.7,13.44,13.44,0,0,0,1.41-2.07,14.7,14.7,0,0,0,1.76-7.19,16.28,16.28,0,0,0-1-5.85,14.53,14.53,0,0,0-2.89-4.73,12.93,12.93,0,0,0-9.62-4.13H921.51v49.56h20.87a12.31,12.31,0,0,0,5.58-1.27,13.74,13.74,0,0,0,4.24-3.31,15.47,15.47,0,0,0,2.7-4.67,16.32,16.32,0,0,0,1-5.53A14.94,14.94,0,0,0,953.63,796.74Zm-8.35-9.83a5.42,5.42,0,0,1-1,1.74,4.7,4.7,0,0,1-1.5,1.15,3.86,3.86,0,0,1-1.76.41H930.23V779.49H941a3.74,3.74,0,0,1,1.76.42,4.56,4.56,0,0,1,1.5,1.14,5.73,5.73,0,0,1,1,1.73,5.3,5.3,0,0,1,.36,2A5.92,5.92,0,0,1,945.28,786.91Zm-15,12.51h12a3.86,3.86,0,0,1,1.76.41,4.85,4.85,0,0,1,1.5,1.15,5.63,5.63,0,0,1,1,1.74,6.1,6.1,0,0,1,.36,2.13,5.92,5.92,0,0,1-.37,2.13,4.93,4.93,0,0,1-1,1.66A4.88,4.88,0,0,1,944,809.8a3.86,3.86,0,0,1-1.76.41h-12Z"/><path class="b" d="M423.92,380.46c20.12-12.87,93.44-12.4,93.44-12.4v-5.14c-76.2.24-93.44,11.35-93.44,11.35Z"/><path class="b" d="M423,396.89c13.57-12.35,94.38-12.69,94.38-12.69v-6.08c-78.5.7-94.38,12.63-94.38,12.63Z"/><path class="b" d="M423,401.52c-.69,13.8,60.13,10.29,60.13,10.29s-52.4,0-51.94-9.59S517.36,394,517.36,394V387.5S423.69,387.71,423,401.52Z"/><path class="b" d="M610.81,380.46v-6.19s-17.24-11.11-93.45-11.35v5.14S590.69,367.59,610.81,380.46Z"/><path class="b" d="M517.36,378.12v6.08s80.82.34,94.39,12.69v-6.14S595.87,378.82,517.36,378.12Z"/><path class="b" d="M517.36,387.5V394s85.73-1.4,86.2,8.19-51.94,9.59-51.94,9.59,60.82,3.51,60.13-10.29S517.36,387.5,517.36,387.5Z"/><path class="b" d="M524.24,221.37c0,9.39-3.2,17-7.15,17s-7.16-7.61-7.16-17,3.2-17,7.16-17S524.24,212,524.24,221.37Z"/><path class="b" d="M610.79,239.17c-1.06,5.47-3.79,9.54-6.09,9.09s-3.31-5.24-2.24-10.71,3.79-9.54,6.08-9.09S611.86,233.7,610.79,239.17Z"/><path class="b" d="M422.91,237.48C424,243,426.7,247,429,246.57s3.3-5.24,2.25-10.71-3.8-9.53-6.1-9.09S421.84,232,422.91,237.48Z"/><path class="b" d="M363.74,275.76c3.61,5.89,8.54,9.44,11,7.93s1.58-7.53-2-13.43-8.55-9.43-11-7.92S360.14,269.86,363.74,275.76Z"/><path class="b" d="M670.43,277.76c-3.6,5.89-8.54,9.44-11,7.93s-1.58-7.53,2-13.43,8.54-9.43,11-7.92S674,271.86,670.43,277.76Z"/><path class="b" d="M619.83,319l-17.32-67.72-51.62,54-33.8-60.36-33.81,60.36-51.62-54L414.34,319l-38.18-32.9,46.66,86.24c-1.77-14.74,94.27-14.74,94.27-14.74s96,0,94.26,14.74L658,286.06ZM453.39,343.59,433.12,332l7.42-35.51L465,323.32Zm63.7-4.33L498.84,321l18.25-35.7L535.32,321Zm62.13,4.33-11.57-20.27,24.44-26.82L599.5,332Z"/><path class="a" d="M195.52,732H156.73v-5.81l-1.11-.18h0s-.22-1.51-3.3-5.57L117.2,673.62l-11.39,10.2V718c0,4.43,1.18,5.83,1.5,6l1.11.16-.28,3.92v4H73.52v-5l-3.2,1.58L73.86,724c.16-.14,1.44-1.38,2-6.37v-50L69,660.84l6.85-6.66V611.5c0-2.7-.84-3.49-1.28-3.53l-1.13-.1v-1.14l.11-6.82h34.6v8L107,608c-.31,0-1.19.79-1.19,3.52v36l43.82-38.87c2.37-3.19,2.7-4.34,2.71-4.38l2.24.43,0-4.8h41.21l.32,8.06h-1.27c.06,0-4.53.71-11,6.52l-45.11,40,46.07,61c5.72,7.61,9.85,8.38,9.89,8.38l1.08.18Zm-36.34-2.45h34l.15-3.48c-1.81-.67-5.69-2.75-10.4-9l-47.44-62.85,46.8-41.49c5.2-4.7,9.35-6.33,11.33-6.88l-.14-3.42H157.06l-.17,4.66-.37.74-1,.2a3.63,3.63,0,0,1-2-.76c-.49.79-1.18,1.81-2.16,3.12L103.36,653V611.5c0-3.61,1.31-5,2.32-5.6v-3.54H76l0,3.51c1.06.55,2.4,2,2.4,5.63v43.72l-5.81,5.64,5.81,5.8V717.8c-.47,4.36-1.48,6.5-2.33,7.55v4.16h29.71l.12-3.63c-1.31-1-2.44-3.36-2.44-7.92V682.72L117.56,670l36.72,48.92a27.91,27.91,0,0,1,3.19,5,3.58,3.58,0,0,1,.48,0h1.23Zm-16-93a1.23,1.23,0,1,1,1.22-1.23A1.23,1.23,0,0,1,143.18,636.47Z"/><path class="a" d="M252.92,732H209.14v-8.07h2c1.09,0,4.72-.54,4.72-6.23V668.15l-10.76-7.33,10.76-7.1V611.94c-.41-3.6-3.74-3.94-4.75-4h-1.93v-8.07h43.57V608h-2.05a4.67,4.67,0,0,0-4.73,4.2v41.54l10.77,7.1L246,668.15v49.51c0,5.93,3.93,6.23,4.72,6.23h2.19Zm-41.33-2.45h38.87v-3.17c-2.69-.12-6.9-2.06-6.9-8.68V666.85l8.81-6L243.56,655V612a7.13,7.13,0,0,1,6.77-6.45v-3.19H211.66v3.19a6.86,6.86,0,0,1,6.68,6.26V655l-8.81,5.81,8.81,6v50.81c0,7.44-5.17,8.51-6.76,8.66Z"/><path class="a" d="M380.08,740.09,297,648v68.92c.54,4.59,1.55,6.39,2,7h1.83V732H265.33v-8.07h.7c.37-.72,1-2.6,1-6.84V666.66L260.21,660l6.84-6.85V610.44c0-1.59-.4-2.41-1.21-2.46h-2.56v-8.07h38.43V608h-.18c0,.16.06.32.1.5l48.48,53.95v-52c0-1.59-.41-2.41-1.21-2.46h-2.41v-8.07h39V608h-4.35c-.94,0-1.09,1.56-1.09,2.46v42.72l6.84,6.85-6.84,6.65Zm-85.51-98.51,83.05,92.12V665.62l5.81-5.63-5.81-5.81V610.44c0-4.4,2.68-4.87,3.5-4.91h1.95v-3.17H349l0,3.17c.89,0,3.59.53,3.59,4.91v58.39l-53.24-59.47a12.88,12.88,0,0,1-.41-2.56l-.05-1.27h.39v-3.17H265.74v3.17h.17c.9,0,3.6.53,3.6,4.91v43.74L263.7,660l5.81,5.63v51.43c0,5.42-1,7.72-1.73,8.66v3.8h30.64v-3.17h-.33l-.33-.26c-.88-.7-2.47-2.81-3.19-9.05Z"/><path class="a" d="M523.45,734.49,499,722.08c-9.3,6.56-20.61,9.88-33.62,9.88-18.47,0-33.65-5.17-45.11-15.37-14.13-12.54-21.44-29.46-21.74-50.29a25.44,25.44,0,0,0-5.11-3l-7.83-3.76,7.91-3.56a29.78,29.78,0,0,0,5.65-3.09c2.1-16.47,8.64-29.74,19.44-39.43,12.26-10.8,27.19-16.28,44.37-16.28s31.68,5,42.71,14.93c9.72,8.7,14.89,19.31,15.39,31.53l.47,6.16H490.65l-.48-5.33a21.77,21.77,0,0,0-7.42-15.77c-4.64-4.13-11.31-6.23-19.82-6.23S447.18,625,441.63,630c-8.24,7.29-12.41,19-12.41,34.92,0,15,4.42,26.52,13.14,34.27,5.69,5,13.94,7.59,24.5,7.59,7.52,0,13.62-2.08,18.12-6.19,4.77-4.11,7.58-8.24,8.37-12.31l0-4.68H470.38V658.35h53.07Zm-24.7-15.27L521,730.5V660.8H472.83v20.38h22.95v7.38c-.91,4.85-4,9.45-9.17,13.91-4.94,4.51-11.6,6.81-19.75,6.81-11.18,0-20-2.76-26.13-8.21-9.27-8.24-14-20.39-14-36.11,0-16.62,4.45-29,13.23-36.75,6-5.42,13.73-8.18,22.94-8.18s16.34,2.3,21.45,6.84a24.1,24.1,0,0,1,8.24,17.42l.28,3.07h26l-.28-3.56c-.46-11.58-5.36-21.61-14.56-29.86-10.58-9.48-24.39-14.29-41.08-14.29s-30.95,5.27-42.74,15.66c-10.44,9.37-16.73,22.28-18.7,38.37l-.05.44-.33.31c-.64.59-2.34,1.86-6.63,3.79l-3.1,1.4,3.07,1.47c3.94,1.89,5.54,3.19,6.14,3.79l.36.36v.5c.18,20.35,7.21,36.84,20.92,49,11,9.79,25.63,14.75,43.48,14.75,12.77,0,23.81-3.32,32.79-9.85Z"/><path class="a" d="M593.47,731.81H535.31v-8l1.19,0c1.07,0,3.55-.62,3.55-5.48V668.34l-10.77-7.11,10.77-7.32V611.65c0-3.1-1.94-3.78-3.57-3.82l-1.2,0,0-8h58.16c17.18,0,32.1,5.47,44.35,16.26,12.83,11.37,19.33,28.5,19.33,50.9,0,21.24-6.75,38.1-20,50.11C625.81,726.84,611.14,731.81,593.47,731.81Zm-55.71-2.46h55.71c17.06,0,31.19-4.76,42-14.16,12.75-11.51,19.23-27.76,19.23-48.27,0-21.67-6.23-38.18-18.51-49.06-11.78-10.38-26.16-15.65-42.72-15.65H537.76l0,3.29c2.48.46,4.77,2.24,4.77,6.15v43.56l-8.82,6,8.82,5.81v51.25c0,5.71-3,7.31-4.75,7.76Zm55-20.37h-25V667l8.8-5.81-8.8-6V622.59h25a33.7,33.7,0,0,1,23,9c8.66,7.65,13.05,19.55,13.05,35.36,0,14.81-4.65,26.46-13.82,34.61C609.4,706.47,601.93,709,592.71,709Zm-22.54-2.46h22.54c8.6,0,15.52-2.29,20.57-6.82,8.62-7.67,13-18.7,13-32.78,0-15.08-4.12-26.35-12.23-33.52a31.27,31.27,0,0,0-21.34-8.35H570.17v28.86l10.77,7.32-10.77,7.1Z"/><path class="a" d="M732.34,731.81c-17.35,0-32.28-5.48-44.37-16.28-13.77-12.32-20.82-29.2-21-50.18a13.42,13.42,0,0,0-3.22-3.05l-4.59-3.45,4.8-3.16a18.13,18.13,0,0,0,3.76-3c2.37-15.92,9.18-29,20.24-38.76,12.08-10.79,27-16.26,44.36-16.26s32.12,5.47,44.21,16.27c11.08,9.81,17.89,22.84,20.24,38.73a18.3,18.3,0,0,0,3.86,3l5,3.19-4.79,3.48a14,14,0,0,0-3.32,3c-.16,21-7.21,37.83-21,50.15C764.47,726.33,749.59,731.81,732.34,731.81ZM663.45,659l1.8,1.35c2.76,2.07,3.73,3.47,4.06,4.12l.14.55c.07,20.41,6.86,36.8,20.16,48.7,11.62,10.39,26,15.65,42.73,15.65s31-5.26,42.58-15.65C788.21,701.8,795,685.42,795.08,665l.14-.56c.33-.64,1.32-2,4.19-4.12l1.87-1.36-1.95-1.25a17.46,17.46,0,0,1-4.7-3.85l-.22-.54c-2.22-15.45-8.78-28.1-19.49-37.58C763.29,605.37,749,600.1,732.34,600.1s-31.11,5.27-42.72,15.64c-10.7,9.48-17.26,22.13-19.5,37.61l-.21.52c-.4.59-1.54,1.87-4.58,3.87Zm68.89,50a36,36,0,0,1-24.66-9.76c-8.13-7-12.27-18.63-12.27-34.57s4.15-27.44,12.32-34.62a35.88,35.88,0,0,1,49.1,0c8.14,7.15,12.28,18.79,12.28,34.59s-4.14,27.6-12.32,34.77A35.66,35.66,0,0,1,732.34,709Zm0-86.2a33.58,33.58,0,0,0-23,9.09c-7.63,6.69-11.49,17.72-11.49,32.78s3.84,26.21,11.43,32.73a33.62,33.62,0,0,0,45.86.21c7.63-6.7,11.5-17.78,11.5-32.94s-3.86-26.08-11.46-32.75A33.88,33.88,0,0,0,732.34,622.78Z"/><path class="a" d="M884.85,737.15,846.64,661v57.1c0,4.32,1.17,5.68,1.48,5.81l2,0V732H813.35v-8.07h1.88c.32-.34,1.29-1.72,1.29-5.78V667.64l-6.61-6.8,6.61-6.62V611.5c0-2.77-.82-3.48-1.14-3.52H812v-8.07h44.08V608h-1.17a10.59,10.59,0,0,0,.21,2.45l28.4,63.62L911.9,610.1a8.58,8.58,0,0,0,.23-2.12h-1.07v-8.07h42.85V608h-2.57c-.17.06-1,.82-1,3.52v42.72l6.61,6.62-6.61,6.8v50.47c0,3.88.92,5.43,1.35,5.78h2V732H917.31v-8.07h1.06c.42-.49,1.38-2,1.91-6.11V662Zm-40.66-86.51,40.59,80.9L922.72,651v66.9c-.67,5.31-2.05,7.28-3,8v3.55h31.56v-3.2c-1-.26-3.39-1.51-3.39-8.2V666.65l5.62-5.79-5.62-5.62V611.5c0-5.43,2.76-5.92,3.31-6h.22v-3.17H913.52v3.17h.34l.35.65c.34.64.62,2,0,4.69l-30.69,69.22-30.74-68.94c-.46-2.33-.43-4,0-4.93l.34-.69h.49v-3.17H814.46v3.17h1c.91.08,3.48.74,3.48,6v43.74l-5.62,5.62,5.62,5.79v51.46c0,6-2,8-3.16,8.21h0v3.19h31.88V726.3c-1.82-.43-3.49-2.78-3.49-8.19Z"/><path class="a" d="M268.31,585.58c-17.42,0-31.79-5-42.71-14.78-14.1-12.52-21.4-29.61-21.72-50.78a29.14,29.14,0,0,0-5.15-2.74l-8.38-3.69,8.37-3.7a31.28,31.28,0,0,0,5.93-3.16c2.11-16.77,9.16-30.62,20.95-41.15,11.11-9.8,25.47-14.77,42.71-14.77s31.16,4.51,41.18,13.4c10.67,9.52,16.41,21.8,17.06,36.52v6.17H296.18l-.48-5.33c-.95-8.4-3.67-14.51-8.33-18.64a28.11,28.11,0,0,0-19.06-7A31.29,31.29,0,0,0,247,484.29c-6.37,5.69-10.29,14-11.67,24.67-.14,1.61-.57,8-.57,9.61,0,15.47,4.12,26.95,12.23,34.12,5.75,5.22,12.73,7.75,21.34,7.75,9,0,15.92-2.09,20.57-6.23C295,548.78,298,541,298,530.5v-6H329.3l-.49,6.31c-.48,17.41-6.47,31.35-17.81,41.37C301.14,581.07,286.78,585.58,268.31,585.58Zm-71.88-72,3.29,1.44a25,25,0,0,1,6.19,3.47l.41.36v.55c.18,20.73,7.21,37.4,20.9,49.56,10.47,9.39,24.28,14.15,41.08,14.15,17.84,0,31.66-4.29,41.06-12.77,10.82-9.56,16.53-22.91,17-39.67l.29-3.73H300.4v3.55c0,11.26-3.23,19.62-9.89,25.55-5.11,4.54-12.58,6.84-22.2,6.84-9.25,0-16.76-2.73-23-8.37-8.65-7.64-13-19.74-13-35.95,0-1.76.45-8.36.58-9.87,1.46-11.34,5.65-20.15,12.48-26.25a33.66,33.66,0,0,1,23-9,30.5,30.5,0,0,1,20.69,7.6c5.13,4.56,8.12,11.18,9.14,20.23l.29,3.13H324.1v-3.67c-.62-14-6.08-25.68-16.24-34.74-9.56-8.48-22.87-12.78-39.55-12.78s-30.44,4.76-41.08,14.15C215.79,477.64,209,491.13,207,507.52L207,508l-.35.31c-.68.6-2.48,1.89-6.91,3.85Z"/><path class="a" d="M454.16,585.88H419.54V578l1-.2c-.09,0,1.21-1.16,1.21-6V529.7H368.78v42.17c0,4.27,1.08,5.8,1.45,6l1.1.19-.19,1.07-.19,2.8v4H336.34V578l1-.18c.24-.17,1.3-1.72,1.3-6V521.6l-6.85-6.85,6.85-6.65V465.41c0-2.69-.83-3.48-1.27-3.51l-1.14-.11v-1.14l.1-6.82H371v7.95l-1.1.12a1.09,1.09,0,0,0-.71.33c-.14.16-.57.83-.38,2.78l0,.35v39.05h52.93v-39c0-2.67-.79-3.45-1.09-3.52h-1.23l.15-1.22v-6.84h34.62v7.87l-1,.18c-.12.11-1,1.17-1.32,3.86V508.1l6.84,6.65-6.84,6.85v50.27c0,4.43,1.18,5.84,1.49,6l1.11.16-.28,3.91ZM422,583.42h29.7l.12-3.63c-1.31-.94-2.44-3.36-2.44-7.92V520.58l5.8-5.8-5.8-5.64V465.59c.39-3.1,1.36-4.84,2.32-5.62v-3.69H422v3.58c1,.59,2.17,2,2.17,5.55v41.46H366.32V465.41c-.21-2.24.11-3.8,1-4.78a3.37,3.37,0,0,1,1.22-.89v-3.46H338.77l0,3.51c1,.55,2.39,2,2.39,5.62v43.73l-5.8,5.64,5.8,5.8v51.29c0,4.51-1.1,6.93-2.32,7.89v3.66H368.5l.14-3.68c-1.22-1-2.32-3.4-2.32-7.87V527.25h57.85v44.62c0,4.57-1.12,6.86-2.17,7.82Z"/><path class="a" d="M580.37,585.73H468v-8l1.18,0c1.07,0,3.56-.64,3.56-5.48V522.25L462,515.14l10.76-7.31V465.76c-.6-3.86-3.22-4-3.52-4l-1.21,0v-8.05H576.45v8l-1.2,0c-1.33,0-3.54.55-3.54,3.81V479H502.85v25.31h64v25.28h-64v30.89h72.79v11.74c0,4.84,2.51,5.45,3.58,5.48l1.2,0Zm-109.93-2.46H577.93l0-3.33c-1.81-.46-4.77-2.07-4.77-7.76v-9.29H500.39V527.1h64V506.72h-64V476.51h68.86V465.56c0-3.88,2.35-5.67,4.75-6.14v-3.29H470.44v3.35c1.55.43,4.08,1.78,4.73,6.1v43.54l-8.81,6,8.81,5.82v51.25c0,5.69-2.94,7.3-4.74,7.76Z"/><path class="a" d="M626,585.73H586.29v-8l1.13-.09c.11,0,2.73-.31,3.78-6l0-49.42-11-7.14,11-7.34V465.56c0-3.44-2.56-3.81-3.66-3.81h-1.23v-8.07H698.83v8l-1.21,0c-1.37,0-3.68.55-3.68,3.81V479H621.15v27.42h57.08v25.29H621.15V572c.75,5.43,3.58,5.66,3.7,5.67l1.16.06,0,1.16Zm-37.3-2.46h34.85v-3.4c-1.56-.53-4.14-2.23-4.89-7.71V529.21h57.09V508.83H618.69V476.51h72.79V465.56a5.77,5.77,0,0,1,4.89-6.14v-3.29H588.74v3.27c2.47.42,4.9,2.2,4.9,6.16v43.55l-9,6,9,5.83v51c-1,5.48-3.43,7.29-4.9,7.89Z"/><path class="a" d="M761.42,585.88c-18.93,0-33.8-4.71-44.22-14-7.15-6.13-11.21-14.87-12.06-26-.26-3.07-.77-3.07-1.25-3.07-3.92,0-4.88-2.37-5.11-3.39-.8-3.53,2-4.85,6.2-6.86,3.51-1.67,8.8-4.19,11.41-6.87l6.93-7.1V527c2.67,2.44,8.77,4.72,12.11,6,4.15,1.55,7.14,2.67,6.48,6.31s-4.44,3.6-5.86,3.6a1.3,1.3,0,0,0-.57.08,4.38,4.38,0,0,0-.25,2.28c.48,4.31,1.83,7.42,4.12,9.48,4.64,4.12,12.37,6.21,23,6.21,9.4,0,16.33-1.89,20.58-5.64,2.72-2.39,4.22-4.8,4.22-6.78a7.19,7.19,0,0,0-2.64-6c-2-1.86-5.48-3.75-11-6-5.56-2.39-12.65-5.31-20.52-8.45l-7.48-3c-3.49-1.38-6.52-2.59-9.17-3.69-.26-.09-3.41-1.16-16.78-5l-2.07-.59-.67-2.05c-.72-2.24-1.13-3.36-1.34-3.9-5-5.22-7.46-11.84-7.46-19.69,0-10.47,4.41-19.76,13.11-27.61,8.51-7.51,21.31-11.31,38-11.31,17.69,0,31.49,4.25,41,12.64,6.87,6.19,11.11,13.35,12.63,21.29.07.43.12.88.16,1.39.24,2.89.5,2.89,1.46,2.89,1.54,0,5.13,0,5.58,3.64s-3,4.48-4.49,4.85c-3,.74-10.79,2.69-13.64,6.76l-1.2,1.73h-4.36L795,504.53c-1.61-2.74-9.66-5.28-12.3-6.12s-5.81-1.83-5.25-5.41c.12-.83.86-3.53,4.83-3.53a1.33,1.33,0,0,0,.45-.05,7.49,7.49,0,0,0-.2-2.19,12.09,12.09,0,0,0-3.5-5.17c-3.64-3.26-9.8-4.91-18.35-4.91-9.44,0-16,1.41-18.86,4.07-2.48,2.15-3.68,4.38-3.68,6.84,0,3.12.78,4.3,1.25,4.72,1.15,1,4.28,3.12,12.18,5.81,2.76,1,5.42,2.06,8.25,3.19,1.63.66,3.3,1.33,5,2,0,0,4.26,1.67,17.45,4.82l1.16.28.82.86a20.69,20.69,0,0,0,6.3,4.18l.77.34a7.4,7.4,0,0,0,.79.33l.59.15A40.57,40.57,0,0,1,806.58,523c7.08,6.38,10.67,14,10.67,22.75a36.84,36.84,0,0,1-13,28.25C795.28,582,781.27,585.88,761.42,585.88Zm-40.55-61.23-2.72,2.78c-2.91,3-8.45,5.63-12.11,7.37-4.31,2.05-5.2,2.63-4.87,4.11.09.36.34,1.48,2.72,1.48s3.37,1.46,3.67,5.05c.82,10.7,4.6,18.87,11.26,24.58,10,8.9,24.29,13.4,42.6,13.4,19.22,0,32.7-3.68,41.21-11.26a34.47,34.47,0,0,0,12.17-26.41c0-8-3.32-15-9.87-20.93A38.07,38.07,0,0,0,792,517.08l-.37-.09a5.46,5.46,0,0,1-1.22-.46l-.76-.33a23.55,23.55,0,0,1-7.15-4.76l-.33-.34-.45-.11c-13.42-3.21-17.61-4.86-17.78-4.92-1.74-.68-3.42-1.35-5.06-2-2.79-1.12-5.42-2.18-8.14-3.15-7.86-2.68-11.41-4.9-13-6.3-1.37-1.25-2.06-3.45-2.06-6.55s1.51-6.09,4.5-8.67c3.37-3.11,10.28-4.69,20.49-4.69,9.17,0,15.89,1.85,20,5.51a14.64,14.64,0,0,1,4.2,6.22c.33,1,.58,3.35-.3,4.57a2.59,2.59,0,0,1-2.27.92c-2.18,0-2.35,1.1-2.41,1.46-.2,1.32.53,1.73,3.57,2.69,5.73,1.81,11.84,4.08,13.63,7.14l.55.79h1.79l.47-.68c3.37-4.83,11.86-6.94,15-7.74,2.23-.55,2.8-1,2.66-2.17s-.88-1.49-3.15-1.49c-2.94,0-3.63-1.73-3.91-5.14,0-.43-.07-.8-.12-1.15-1.42-7.38-5.4-14.09-11.85-19.9-9.06-8-22.31-12-39.39-12-16.12,0-28.37,3.6-36.41,10.69-8.15,7.36-12.29,16-12.29,25.78,0,7.28,2.34,13.39,6.94,18.16l.25.38c.19.45.63,1.6,1.5,4.3l.26.8.81.23c13.16,3.76,16.45,4.87,17,5.05,2.72,1.12,5.74,2.32,9.22,3.7l7.48,3c7.89,3.15,15,6.08,20.56,8.46,5.86,2.38,9.47,4.36,11.68,6.42a9.63,9.63,0,0,1,3.47,7.81c0,3.46-2.75,6.6-5.06,8.63-4.71,4.15-12.19,6.25-22.2,6.25-11.23,0-19.51-2.3-24.61-6.84-2.77-2.49-4.38-6.1-4.93-11.06-.07-.69-.2-3,.91-4.21a3,3,0,0,1,2.35-.85c2,0,3.21-.27,3.45-1.58s-.39-1.89-4.92-3.58c-3.94-1.47-10.53-3.94-13.37-6.9l-.34-.36Z"/></svg>