<svg xmlns="http://www.w3.org/2000/svg" viewBox="0 0 1024 1024"><defs><style>.a{fill:#ca283a;}.b{fill:#144a98;}.c{fill:#090a0a;}</style></defs><path class="a" d="M533,494.36H498.32v10.15a171.3,171.3,0,0,1-1.06,18,68.06,68.06,0,0,1-4.91,19.16,46.41,46.41,0,0,1-11.46,16.2q-7.62,7-20.87,9.33l-4.26-19.64q8.5,0,13.43-4.34a26.83,26.83,0,0,0,7.36-10.89,50.51,50.51,0,0,0,3-14q.57-7.44.57-13.83V494.36h-34.7V474.88h34.7V445.74h18.17v29.14H533Z"/><path class="a" d="M629.45,494.36h-34.7v10.15a171.51,171.51,0,0,1-1.07,18,67.73,67.73,0,0,1-4.91,19.16,46.15,46.15,0,0,1-11.46,16.2q-7.6,7-20.87,9.33l-4.26-19.64q8.52,0,13.43-4.34A26.73,26.73,0,0,0,573,532.34a50.51,50.51,0,0,0,3-14q.57-7.44.58-13.83V494.36H541.87V474.88h34.71V445.74h18.17v29.14h34.7Z"/><path class="b" d="M741.43,459.16h15.39V445.74h18.33v13.42H841l3.1,17.69a230.77,230.77,0,0,1-27.5,21.85,307.5,307.5,0,0,1-28.32,17.11l-9.49-16.54a169.16,169.16,0,0,0,17.92-9.49q8.27-5.07,16.29-11.14H775.15v87.1H756.82v-87.1H741.43Zm66,55.34A397.31,397.31,0,0,1,842,558.86l-15.06,11.79q-7.7-11.94-16.46-23.08t-18.09-21.28Z"/><path class="b" d="M862.25,456.54h75.14V476H908.9v70.23h38.47v19.48H852.26V546.26h38.31V476H862.25Z"/><rect class="c" x="260.98" y="499.48" width="60.98" height="23.32"/><path class="c" d="M343.45,456.54v109.2h88.41V456.54Zm18.17,89.11V476h52.22v69.62Z"/><path class="b" d="M641.42,453.6V562.79h88.41V453.6Zm18.17,89.1V473.08h52.22V542.7Z"/><polygon class="c" points="289.54 599.1 158.38 488.14 161.32 394.99 139.76 392.8 136.18 469.37 92.2 432.16 76.63 447.23 134.82 498.38 128.83 626.59 153.86 631.2 157.43 518.25 270.44 617.58 289.54 599.1"/><polygon class="c" points="274.64 413.71 257.56 395.47 188.97 474.64 205.62 492.44 274.64 413.71"/></svg>