<svg xmlns="http://www.w3.org/2000/svg" viewBox="0 0 1024 1024"><defs><style>.a,.b,.c,.d{fill:#3f1f0f;}.b,.e{font-size:132.74px;}.b,.c,.d,.f{stroke:#3f1f0f;stroke-miterlimit:10;}.b,.d{stroke-width:5.34px;}.b,.d,.e,.g{font-family:Alphakind;}.c{stroke-width:5.42px;}.d,.g{font-size:132.74px;}.e,.g{fill:#f49221;}.f{fill:#fff;stroke-width:3.56px;}.h{fill:#087e40;}</style></defs><path class="a" d="M589.17,139.48a53,53,0,0,1,16.8,6.35,41.21,41.21,0,0,1,12.37,10.25,36.36,36.36,0,0,1,7,12.22,25.32,25.32,0,0,1,.71,12.79,24.44,24.44,0,0,1-6.06,12,37.65,37.65,0,0,1-11.59,8.54,51.23,51.23,0,0,1-15.43,4.16,53.61,53.61,0,0,1-17.28-.87,49.23,49.23,0,0,1-29.17-16.55,39.49,39.49,0,0,1-6.82-12.48,25.53,25.53,0,0,1-.72-12.67A24.57,24.57,0,0,1,545,151.25a37.36,37.36,0,0,1,11.83-8.46A48.38,48.38,0,0,1,572,138.63,57.5,57.5,0,0,1,589.17,139.48ZM585,160.16a17.29,17.29,0,0,0-6.4-.26,19.15,19.15,0,0,0-5.58,1.69,11.62,11.62,0,0,0-3.91,3.37,8.71,8.71,0,0,0-2.15,4,9.07,9.07,0,0,0,.31,4.86,9.8,9.8,0,0,0,2.43,4.52,14,14,0,0,0,4.34,3.74,18.53,18.53,0,0,0,12.37,2.53,15.74,15.74,0,0,0,5.53-1.74,11.81,11.81,0,0,0,3.9-3.29,10.3,10.3,0,0,0,2.16-4.3,9.72,9.72,0,0,0-.26-4.83,18.9,18.9,0,0,0-2.46-4.53,17.29,17.29,0,0,0-4.5-3.59A19.17,19.17,0,0,0,585,160.16Z"/><path class="a" d="M691.33,251.78l-24.16-15.25L685.24,208c1.47-2.42,1.87-4.67,1-6.74a8.8,8.8,0,0,0-3.91-5,9.78,9.78,0,0,0-6.23-1.8,8.39,8.39,0,0,0-6,3.15l-18.44,29.25-24.26-15.17,32.22-51,19.74,12.33c7.82,2.33,14.45,5.48,19.8,9.64a41.45,41.45,0,0,1,11.58,13.57,57.82,57.82,0,0,1,15.69,4,33.54,33.54,0,0,1,5.21,2.67c1.45.84,2.61,1.49,3.46,1.91A49.26,49.26,0,0,1,746,214.25a34.72,34.72,0,0,1,6.32,10.84,29,29,0,0,1,1.13,11.55,24.93,24.93,0,0,1-4.13,11.43l-18.1,28.58L707,261.53,725.2,232.9c1.45-2.36,1.9-4.58,1-6.71a10.38,10.38,0,0,0-10.36-6.77,7.49,7.49,0,0,0-5.93,3.14Z"/><path class="a" d="M779.12,344.87l-14.33-24.72L819.08,289l11.16,19.1c.72.59,1.42,1.07,2,1.66a71.63,71.63,0,0,1,11.35,14A46.65,46.65,0,0,1,849.84,339a31.55,31.55,0,0,1-.45,14.64,23.78,23.78,0,0,1-8.32,12.14l-.86.45L805,386.6l-14.33-24.73,33.19-19.08c3.2-1.88,4.93-4.1,5.22-6.83a10.09,10.09,0,0,0-1.87-7.3,12.25,12.25,0,0,0-6.23-4.78,8.05,8.05,0,0,0-7.65,1.46Z"/><path class="a" d="M882.19,422.84a46.26,46.26,0,0,1,1.3,17.65A45.45,45.45,0,0,1,879.41,456a33.07,33.07,0,0,1-8.22,11.43,24.9,24.9,0,0,1-24.8,5.68,37.16,37.16,0,0,1-12.69-7A50.56,50.56,0,0,1,823.28,454a49,49,0,0,1-6.52-15.85,53.46,53.46,0,0,1-1.3-17.75A45.72,45.72,0,0,1,819.65,405,37.89,37.89,0,0,1,828,393.54a26.37,26.37,0,0,1,11.44-6A27.14,27.14,0,0,1,853,388a36,36,0,0,1,12.45,7,49.1,49.1,0,0,1,10.34,12A52.49,52.49,0,0,1,882.19,422.84Zm-20.62,4.81a17.37,17.37,0,0,0-2.46-5.9,12.28,12.28,0,0,0-3.91-4.13,15.84,15.84,0,0,0-4.65-2.25,9.28,9.28,0,0,0-4.62-.06,8.88,8.88,0,0,0-4.36,2.22,12.69,12.69,0,0,0-3.11,4.16,13.58,13.58,0,0,0-1.59,5.42,15,15,0,0,0,.45,6.16,18.48,18.48,0,0,0,2.44,6,20.61,20.61,0,0,0,4,4.33,14,14,0,0,0,4.76,2.22,9.51,9.51,0,0,0,4.62.08,10.41,10.41,0,0,0,4.36-2.3,13.44,13.44,0,0,0,3-4.33,14,14,0,0,0,1.47-5.51A15.54,15.54,0,0,0,861.57,427.65Z"/><path class="a" d="M823.14,561.73l3.45-28.21,33.82,3.94c2.75.44,5.06-.2,6.51-1.8a10,10,0,0,0,3-5.76,8.86,8.86,0,0,0-1.25-6.38,8.11,8.11,0,0,0-5.33-4l-34.38-4.16,3.32-28.29,60.24,7.24-2.92,23.22a56.52,56.52,0,0,1-.28,21.57,39,39,0,0,1-7.4,16.27,61.19,61.19,0,0,1,2.32,8.55,64.13,64.13,0,0,1,.71,7.36c0,2.24,0,4.27-.14,5.76-.11,1.73-.28,3-.42,3.93a46.14,46.14,0,0,1-3.77,13.88,33.34,33.34,0,0,1-7.25,10.2,25.34,25.34,0,0,1-10,6,28,28,0,0,1-12,1.24L817.47,608l3.34-28.21,33.93,4.1a7.35,7.35,0,0,0,6.52-1.88,11.24,11.24,0,0,0,2.91-5.82,11.12,11.12,0,0,0-1.16-6.41,7.53,7.53,0,0,0-5.35-3.93Z"/><path class="a" d="M775.5,680.14,792,656.87l51.51,35.63-12.83,18c-.14,1-.4,1.83-.57,2.65a77.13,77.13,0,0,1-8,16.1,48,48,0,0,1-11.3,12,31,31,0,0,1-13.39,5.82,24.67,24.67,0,0,1-14.67-2.42l-.74-.56-33.5-23.21,16.57-23.26,31.35,21.83c3,2.08,5.8,2.67,8.41,1.77a10.92,10.92,0,0,0,6-4.72,12.38,12.38,0,0,0,1.59-7.62,7.93,7.93,0,0,0-4.56-6.4Z"/><path class="a" d="M748.37,806a52.62,52.62,0,0,1-15.66,8.63,47.56,47.56,0,0,1-15.84,3A36.07,36.07,0,0,1,703,815a25.26,25.26,0,0,1-10.37-7.61A25.65,25.65,0,0,1,687.25,795a35.69,35.69,0,0,1,1-14.33,49.51,49.51,0,0,1,6.59-14.48,54.39,54.39,0,0,1,27.22-21.37,47.62,47.62,0,0,1,15.84-2.73,34.15,34.15,0,0,1,14,2.73,23.74,23.74,0,0,1,10.42,7.61,26.18,26.18,0,0,1,5.21,12.28,34.55,34.55,0,0,1-.85,14.27A54.18,54.18,0,0,1,760,793.37,51,51,0,0,1,748.37,806Zm-13.2-16.66a15.38,15.38,0,0,0,4.22-4.58,12.85,12.85,0,0,0,2.15-5.37,17.55,17.55,0,0,0,.14-5.11,10,10,0,0,0-1.87-4.25,11.79,11.79,0,0,0-3.9-2.95,13.79,13.79,0,0,0-5-1.06,16.13,16.13,0,0,0-5.67,1,20.38,20.38,0,0,0-5.58,3,17.57,17.57,0,0,0-4.34,4.72,14.73,14.73,0,0,0-2.18,5.43,12.86,12.86,0,0,0,0,5.17,10.39,10.39,0,0,0,1.88,4.28,9.85,9.85,0,0,0,3.9,2.89,12.93,12.93,0,0,0,5.21,1,15.33,15.33,0,0,0,5.72-1.07A15.89,15.89,0,0,0,735.17,789.35Z"/><path class="a" d="M596.59,812l27.28-8.91,10.62,32.12a7.49,7.49,0,0,0,4.5,5.08,10.29,10.29,0,0,0,6.37.23,10.61,10.61,0,0,0,5.35-3.65A7.61,7.61,0,0,0,652,830.2l-10.71-32.81,27.16-8.88,18.78,57.32-22.2,7.3c-6.8,4.44-13.32,7.42-19.83,8.82a41.87,41.87,0,0,1-17.9.23,55.85,55.85,0,0,1-6.94,5.53,45.34,45.34,0,0,1-6.2,3.72,30.22,30.22,0,0,1-5.52,2.44c-1.59.59-2.83,1-3.69,1.29a45.94,45.94,0,0,1-14.18,2.39,32.56,32.56,0,0,1-12.3-2.08,27.8,27.8,0,0,1-9.91-6.4,29.9,29.9,0,0,1-6.12-10.46l-10.53-32.17,27.27-8.85,10.57,32.17a7.2,7.2,0,0,0,4.47,5.18,10.72,10.72,0,0,0,6.37,0,10,10,0,0,0,5.36-3.64,8.07,8.07,0,0,0,1.55-6.69Z"/><text class="b" transform="matrix(1.35, -0.19, 0.14, 0.99, 260, 513.44)">N</text><path class="c" d="M481.46,595.84l-94.7-33.05-10-112,90.37-72.88,83.36,26.94,29.87,70.67-15,73.39Zm-3.9-135.32-20.2,21.36,5.16,26.72L493,512.33l13.34-32.67Z"/><text class="d" transform="matrix(1.34, 0.22, -0.16, 0.99, 249.51, 598.11)">N</text><path class="c" d="M616.48,406.49l36.7-3.82,17.89,53.78,15.64-57.57,32.49-4.53,56.58,194.46L730.1,599.63l-14.27-49.25-15.75-47.23-27.16,48.46-30-49-18.9,102-50.38-9.47Z"/><text class="e" transform="matrix(1.35, -0.19, 0.14, 0.99, 252.19, 503.87)">N</text><path class="f" d="M473.65,586.29l-94.74-33.13L368.71,441.3l90.47-72.91,83.41,27,29.9,70.55-14.92,73.45Zm-4-135.15-20.05,21.27L454.64,499l30.48,3.82,13.39-32.77Z"/><text class="g" transform="matrix(1.34, 0.22, -0.16, 0.99, 241.73, 588.57)">N</text><path class="h" d="M608.51,397l36.71-3.79L663.15,447l15.74-57.58,32.32-4.6L768,579.26l-45.92,10.91L708,541l-15.87-47.38L664.9,542.11l-29.82-49L616.19,595.2l-50.53-9.56Z"/><path class="a" d="M266.45,641.73v21.82h-7.71V641.73Z"/><path class="a" d="M269.76,662.27V642.15h7.67l9.21,11v-11.4h7.53v21.38h-7.53l-9.21-9.61v8.77Z"/><path class="a" d="M305.16,640.43c.6.09,1.59.19,2.75.42a17.18,17.18,0,0,1,3.62,1.07,21.85,21.85,0,0,1,4,1.88,11.63,11.63,0,0,1,3,3.09,5.8,5.8,0,0,1,1.19,2.23,7.28,7.28,0,0,1,.42,2.44,7.36,7.36,0,0,1-1,3.82,9.62,9.62,0,0,1-2.61,2.84,11.84,11.84,0,0,1-3.4,2.25,20.23,20.23,0,0,1-3.46,1.48,15.75,15.75,0,0,1-2.91.74,5.19,5.19,0,0,1-1.59.31h-7.67V640.43Zm0,16.44a13.25,13.25,0,0,0,3.77-1.07,4.69,4.69,0,0,0,2.32-1.85,3.79,3.79,0,0,0,1-2.34,3.06,3.06,0,0,0-.59-2.19,8.16,8.16,0,0,0-2.33-1.79,14.08,14.08,0,0,0-4.19-.74Z"/><path class="a" d="M331,641.73v21.82h-7.53V641.73Z"/><path class="a" d="M333.17,662.41l8.47-22.76h10.42l6.37,22.11-7.36,1.09-1-3.54h-7.82l-1.7,4.44Zm15.27-8.61-1.87-6.26-2.32,6.26Z"/><path class="a" d="M360.19,662.27V642.15h7.51l9.34,11v-11.4h7.65v21.38H377l-9.34-9.61v8.77Z"/><path class="a" d="M399.19,662.41l8.47-22.76h10.42l6.2,22.11-7.22,1.09-1.16-3.54h-7.82l-1.58,4.44Zm15.12-8.61-1.75-6.26-2.44,6.26Z"/><path class="a" d="M434.51,641.92a20.37,20.37,0,0,1-.6,2.53c-.11.84-.11,1.8-.25,2.73a21.76,21.76,0,0,0-.31,2.94,17.24,17.24,0,0,0,.17,3,8.34,8.34,0,0,0,.53,2.61,5.45,5.45,0,0,0,1.31,1.83,3.46,3.46,0,0,0,2.21.59,2.78,2.78,0,0,0,2-.59,3.26,3.26,0,0,0,1.58-1.29,5.56,5.56,0,0,0,.88-1.94c.14-.7.43-1.43.6-2.27V649a18,18,0,0,0-.17-3.09,20.59,20.59,0,0,1-.29-2.72,5.5,5.5,0,0,1-.45-1.89l7.56-.9c0,.48.14,1.21.26,2.14a13.15,13.15,0,0,1,.59,3.09,25.67,25.67,0,0,1,.14,3.43,31.47,31.47,0,0,1-.14,3.63c-.28,1.43-.59,2.78-1,4.21a13,13,0,0,1-2.32,3.54,14.25,14.25,0,0,1-3.66,2.44,13.89,13.89,0,0,1-5.46.9,11.41,11.41,0,0,1-5.21-.9,9.28,9.28,0,0,1-3.57-2.58,10.56,10.56,0,0,1-1.87-3.6,13.42,13.42,0,0,1-.88-4.15,21.64,21.64,0,0,1-.14-4.24,30.68,30.68,0,0,1,.28-3.77c.17-.9.31-1.94.46-2.59a2.83,2.83,0,0,0,.28-1Z"/><path class="a" d="M466.74,645.6v17.31h-7.56V645.46H452.6v-5.59h19.6l-.11,5.73Z"/><path class="a" d="M482.06,640.94v13.35h7.73V640.72h7.56V664.4h-7.56v-4.53h-7.73v3.46h-7.51V640.94Z"/><path class="a" d="M519,646.53l-10-.08v4h6.2v5.62h-6.2v2h9.88v5.67H501.37v-22.9l17.59.09Z"/><path class="a" d="M522.16,662.27V642.15h7.68l9.11,11v-11.4h7.54v21.38H539l-9.11-9.61v8.77Z"/><path class="a" d="M563.06,645.6v17.31h-7.51V645.46H549v-5.59h19.37v5.73Z"/><path class="a" d="M578.61,641.73v21.82h-7.73V641.73Z"/><path class="a" d="M599.45,647.74a2.54,2.54,0,0,0-1.16-.85,4.2,4.2,0,0,0-1.58-.64,7.41,7.41,0,0,0-2.47-.23,5.61,5.61,0,0,0-3,1.46,4.23,4.23,0,0,0-1.44,2.51,6.56,6.56,0,0,0-.28,2.92,7.36,7.36,0,0,0,.84,2.66,5.35,5.35,0,0,0,1.76,1.72,4.49,4.49,0,0,0,2.61.73,5,5,0,0,0,2.46-.59,3.79,3.79,0,0,0,1.3-1.15,3.44,3.44,0,0,0,.59-1.49l7.66.36c-.15.74-.43,1.52-.57,2.14a13.06,13.06,0,0,1-1.17,1.94,10.54,10.54,0,0,1-1.86,2.08,15.15,15.15,0,0,1-3.35,1.54,14,14,0,0,1-4.78.7,18.3,18.3,0,0,1-3.77-.3,24.14,24.14,0,0,1-3.34-1.21,9.51,9.51,0,0,1-2.61-1.88,15.24,15.24,0,0,1-1.87-2.34,7.33,7.33,0,0,1-1.3-3.31,17.75,17.75,0,0,1-.28-3.8,12.08,12.08,0,0,1,1-3.53A9.86,9.86,0,0,1,585,644a13.32,13.32,0,0,1,3.45-2.27,15.85,15.85,0,0,1,4.93-1.21,17.11,17.11,0,0,1,4.19.1,17.68,17.68,0,0,1,3.31.74,13.54,13.54,0,0,1,2.47,1.21c.73.45,1.17.87,1.76,1.29a17.92,17.92,0,0,0,1.16,1.43Z"/><path class="a" d="M639.84,647.74a4,4,0,0,0-1.14-.85,4.77,4.77,0,0,0-1.61-.64,7.85,7.85,0,0,0-2.46-.23,5.13,5.13,0,0,0-3.09,1.46,4.66,4.66,0,0,0-1.61,2.51,7.43,7.43,0,0,0-.14,2.92,7.2,7.2,0,0,0,.88,2.66,6.39,6.39,0,0,0,1.72,1.72,4.38,4.38,0,0,0,2.69.73,5,5,0,0,0,2.46-.59,5.61,5.61,0,0,0,1.31-1.15,6.15,6.15,0,0,0,.59-1.49l7.51.36a9.89,9.89,0,0,1-.43,2.14,12.87,12.87,0,0,1-1.16,1.94,6.32,6.32,0,0,1-2,2.08,13.63,13.63,0,0,1-3.2,1.54,14,14,0,0,1-4.78.7,12.64,12.64,0,0,1-7.14-1.51,11.83,11.83,0,0,1-2.78-1.88,12.38,12.38,0,0,1-1.72-2.34,9.22,9.22,0,0,1-1.31-3.31,11,11,0,0,1-.31-3.8,11.35,11.35,0,0,1,1-3.53,14.34,14.34,0,0,1,2.15-3.18,14,14,0,0,1,3.45-2.27,16.32,16.32,0,0,1,4.82-1.21,18.8,18.8,0,0,1,4.42.1,14.49,14.49,0,0,1,3.14.74,15.66,15.66,0,0,1,2.61,1.21c.59.45,1.16.87,1.61,1.29a15.3,15.3,0,0,1,1.3,1.43Z"/><path class="a" d="M658.39,641.92c-.28,1-.46,1.88-.6,2.53a17.62,17.62,0,0,1-.42,2.73c0,1-.14,2-.14,2.94a10.83,10.83,0,0,0,0,3,13.73,13.73,0,0,0,.7,2.61,3.83,3.83,0,0,0,1.31,1.83,3.47,3.47,0,0,0,2.21.59,3.25,3.25,0,0,0,2-.59,2.93,2.93,0,0,0,1.44-1.29,6,6,0,0,0,1.11-1.94c.14-.7.25-1.43.4-2.27a19.56,19.56,0,0,0,.16-3.1,19.12,19.12,0,0,0-.16-3.09c-.15-1.06-.26-1.93-.4-2.72a10.7,10.7,0,0,1-.32-1.89l7.54-.9a18.82,18.82,0,0,0,.28,2.14,25,25,0,0,1,.42,3.09,12.55,12.55,0,0,1,.29,3.43,31.47,31.47,0,0,1-.14,3.63,19.45,19.45,0,0,1-1.16,4.21,15.79,15.79,0,0,1-2.15,3.54,12.17,12.17,0,0,1-3.77,2.44,14.08,14.08,0,0,1-5.44.9,12,12,0,0,1-5.32-.9,10.35,10.35,0,0,1-3.34-2.58,9.75,9.75,0,0,1-1.87-3.6,9.88,9.88,0,0,1-.91-4.15,23.55,23.55,0,0,1-.26-4.24c.12-1.3.26-2.68.43-3.77.14-.9.28-1.94.42-2.59a4.61,4.61,0,0,1,.32-1Z"/><path class="a" d="M685,641.73v21.82h-7.54V641.73Z"/><path class="a" d="M702.68,647.48a1.75,1.75,0,0,0-.85-.59,3.5,3.5,0,0,0-1.19-.44,6,6,0,0,0-1.55-.2,2.62,2.62,0,0,0-1.05.2,1,1,0,0,0-.71.31v.42a3.51,3.51,0,0,0,1.3.56c.15,0,.46.08.71.08a1,1,0,0,0,.74.36,28.69,28.69,0,0,1,3.63,1.44,10.21,10.21,0,0,1,3,2,6.07,6.07,0,0,1,1.72,2.68,5.12,5.12,0,0,1,.46,2.58,5,5,0,0,1-1,2.44,8.83,8.83,0,0,1-2,2.25,9.71,9.71,0,0,1-2.72,1.55,15.19,15.19,0,0,1-3.66.79h-2.6c-.85-.15-1.7-.35-2.61-.57a9.91,9.91,0,0,1-3.65-1.93,7.67,7.67,0,0,1-2.61-3.32l7.42-1.8a1.7,1.7,0,0,0,1.31,1.29,4.4,4.4,0,0,0,2,.45,3.34,3.34,0,0,0,1.44-.45,1.46,1.46,0,0,0,.88-.84,1.51,1.51,0,0,0-.46-1.1,2.57,2.57,0,0,0-.85-.84,12.82,12.82,0,0,0-1.29-.7,5.74,5.74,0,0,1-1.31-.54c-.31,0-.45,0-.71,0,0-.14-.31-.2-.45-.2a13,13,0,0,1-4.42-2.08,6.88,6.88,0,0,1-2-2.7,5.56,5.56,0,0,1,0-2.92,6.23,6.23,0,0,1,1.9-2.58,7,7,0,0,1,3.26-1.94,10.42,10.42,0,0,1,4.36-.79,14,14,0,0,1,4.47.56,11.8,11.8,0,0,1,3.18,1.52,12.64,12.64,0,0,1,2.46,2.08Z"/><path class="a" d="M719.62,641.73v21.82H712V641.73Z"/><path class="a" d="M723.1,662.27V642.15h7.6l9.28,11v-11.4h7.51v21.38H740l-9.28-9.61v8.77Z"/><path class="a" d="M768.39,646.53l-10-.08v4h6.06v5.62h-6.06v2h9.69v5.67H750.66v-22.9l17.73.09Z"/><path class="a" d="M461.78,818.18l28.6,5.68-12.23,61.89L456,881.48a12.21,12.21,0,0,1-2.61.45,68.38,68.38,0,0,1-18.24-.64,49.07,49.07,0,0,1-15.86-5.48,29.59,29.59,0,0,1-10.85-10,23.22,23.22,0,0,1-3.76-14.44l.11-.93,8-40.29,28.43,5.54-7.36,37.87c-.74,3.8-.14,6.58,1.73,8.52a10.64,10.64,0,0,0,6.79,3.5A13.08,13.08,0,0,0,450,864a8.31,8.31,0,0,0,4.19-6.91Z"/><path class="a" d="M333.62,844.65a56,56,0,0,1-14.49-10.85A46.08,46.08,0,0,1,310,820.37a37.48,37.48,0,0,1-3.34-13.91,26.11,26.11,0,0,1,3.05-12.59,24.54,24.54,0,0,1,9.47-10,35.56,35.56,0,0,1,13.79-5,51.9,51.9,0,0,1,16.09.2,54.47,54.47,0,0,1,16.53,5.62,50.47,50.47,0,0,1,14.53,11,48.84,48.84,0,0,1,9,13.39,37.27,37.27,0,0,1,3.06,14.07,25.27,25.27,0,0,1-2.92,12.67,24.36,24.36,0,0,1-9.4,9.69,34.2,34.2,0,0,1-13.68,5,47.48,47.48,0,0,1-16.06-.2A54.94,54.94,0,0,1,333.62,844.65Zm10.06-18.8a20.12,20.12,0,0,0,6.09,2,18.4,18.4,0,0,0,5.92-.11,15.74,15.74,0,0,0,4.79-2.05,9.3,9.3,0,0,0,3.17-3.51,10.48,10.48,0,0,0,1.16-4.72,11.12,11.12,0,0,0-1.16-5.17,17.5,17.5,0,0,0-3.06-4.89,21.65,21.65,0,0,0-5.07-3.82,20.82,20.82,0,0,0-6.34-2.09,16.84,16.84,0,0,0-5.78.29,13.53,13.53,0,0,0-4.87,1.94,9.32,9.32,0,0,0-3.2,3.6,9.07,9.07,0,0,0-1.11,4.74,15.94,15.94,0,0,0,1.11,5.17,16.45,16.45,0,0,0,3.37,4.89A19.71,19.71,0,0,0,343.68,825.85Z"/><path class="a" d="M266.45,706.66l19.31,21.52-25.83,22.68c-2.18,1.88-3.2,4-3,6.18a11.42,11.42,0,0,0,2.44,6.09,10.59,10.59,0,0,0,5.52,3.49,8.79,8.79,0,0,0,6.8-1.46l26.28-23.09,19.17,21.57L271.23,804l-15.8-17.76c-6.85-4.38-12.38-9.25-16.29-14.78A40.76,40.76,0,0,1,231.78,755a43.39,43.39,0,0,1-7.9-4,58,58,0,0,1-6.23-4.27c-1.76-1.55-3.17-2.89-4.36-4-1.11-1.29-2-2.34-2.72-3a53.91,53.91,0,0,1-8-12.13,36.09,36.09,0,0,1-2.92-12.23,27.08,27.08,0,0,1,2.18-11.69,26.22,26.22,0,0,1,7.25-9.89L235,671l19.12,21.64-25.8,22.76a7.21,7.21,0,0,0-2.86,6.18,10.62,10.62,0,0,0,8,9.55,8.42,8.42,0,0,0,6.8-1.46Z"/><path class="a" d="M208.53,591.23l6.51,28-61.79,14.41L148,611.83a24.21,24.21,0,0,1-1.44-2.28,66.31,66.31,0,0,1-6.83-16.8,48.3,48.3,0,0,1-1.55-16.52,33,33,0,0,1,4.75-14,24.54,24.54,0,0,1,11.59-9.29l1-.31,40.05-9.25,6.71,28-37.78,8.75c-3.6.84-5.92,2.64-7.08,5.08A11.69,11.69,0,0,0,157,593a13.15,13.15,0,0,0,4.62,6.35c2.32,1.63,5,1.94,8.18.84Z"/><path class="a" d="M131.58,485a56.9,56.9,0,0,1,4.08-17.64,52,52,0,0,1,8.61-13.8A35.55,35.55,0,0,1,155.71,445a25.25,25.25,0,0,1,12.66-2.64,28,28,0,0,1,13,4.53,36,36,0,0,1,10.14,10.39,47.5,47.5,0,0,1,6.57,14.81,48.71,48.71,0,0,1,1.58,17.22,52.22,52.22,0,0,1-4.1,17.76A51.06,51.06,0,0,1,187,520.65a38.42,38.42,0,0,1-11.58,8.6,26.13,26.13,0,0,1-12.94,2.58,25.42,25.42,0,0,1-12.78-4.52,35.71,35.71,0,0,1-10.11-10.39,49.69,49.69,0,0,1-6.42-14.67A57,57,0,0,1,131.58,485Zm21.52,1.38a23.1,23.1,0,0,0,.54,6.29,25.07,25.07,0,0,0,2.61,5.29,19.55,19.55,0,0,0,3.91,3.57,9.65,9.65,0,0,0,4.36,1.48,11,11,0,0,0,5-.84,13.61,13.61,0,0,0,4.19-3.23,16.37,16.37,0,0,0,3.17-4.8,16.18,16.18,0,0,0,1.45-6.13,18.28,18.28,0,0,0-.74-6.58,14.69,14.69,0,0,0-2.6-5.25,11.7,11.7,0,0,0-3.71-3.45,8.46,8.46,0,0,0-4.68-1.49,8.67,8.67,0,0,0-4.84.92,15.34,15.34,0,0,0-4.22,3.23,15.57,15.57,0,0,0-3,4.95A15.77,15.77,0,0,0,153.1,486.4Z"/><path class="a" d="M230.62,368,218.7,394.3l-31.52-14.17c-2.61-1.15-4.93-1.15-6.77-.22a10.29,10.29,0,0,0-4.68,4.75,10.94,10.94,0,0,0-.85,6.46,8.36,8.36,0,0,0,4,5.51L211,411l-11.9,26.25-56-25.18,9.68-21.32a60.84,60.84,0,0,1,7-21A40.64,40.64,0,0,1,172,356.42a56,56,0,0,1,.29-9,64.85,64.85,0,0,1,1.61-7.25,30.6,30.6,0,0,1,1.84-5.68c.77-1.6,1.16-2.84,1.62-3.68a44.57,44.57,0,0,1,7.81-12.19,33.88,33.88,0,0,1,10-7.76,29.68,29.68,0,0,1,11.67-2.81,27.62,27.62,0,0,1,12,2.59l31.35,14.1L238.3,351,207,337a7.66,7.66,0,0,0-7-.23,12.82,12.82,0,0,0-4.7,4.75,12.44,12.44,0,0,0-.87,6.52,8,8,0,0,0,4.13,5.51Z"/><path class="a" d="M284.74,205.56a58.28,58.28,0,0,1,16.09-8.43A52.53,52.53,0,0,1,317,194.72a37.91,37.91,0,0,1,13.88,3.06,25.22,25.22,0,0,1,15.3,20.79A35.69,35.69,0,0,1,344.84,233a55.83,55.83,0,0,1-7.17,14.58,52.76,52.76,0,0,1-12.31,12.33,53.68,53.68,0,0,1-16,8.4,48,48,0,0,1-16,2.34,36.16,36.16,0,0,1-14.14-3.35A25.22,25.22,0,0,1,264,246.67a33.35,33.35,0,0,1,1.5-14.47,45.51,45.51,0,0,1,7.08-14.27A53.79,53.79,0,0,1,284.74,205.56Zm12.75,17.08a19.61,19.61,0,0,0-4.48,4.67,19.4,19.4,0,0,0-2.29,5.34,12.53,12.53,0,0,0-.17,5.22,11.46,11.46,0,0,0,1.72,4.36,12,12,0,0,0,3.77,3,13.82,13.82,0,0,0,5.21,1.21,19,19,0,0,0,5.81-.64,17.61,17.61,0,0,0,5.47-3,17.14,17.14,0,0,0,4.7-4.63,17.75,17.75,0,0,0,2.35-5.4,15.71,15.71,0,0,0,.25-5.23,9.22,9.22,0,0,0-1.84-4.46,10.93,10.93,0,0,0-3.91-3,17.46,17.46,0,0,0-5.32-1.15,18.42,18.42,0,0,0-5.61.87A20.94,20.94,0,0,0,297.49,222.64Z"/><path class="a" d="M438.87,204.61,411,212.56l-9.43-32.93a7.71,7.71,0,0,0-4.39-5.45,11.22,11.22,0,0,0-6.52-.37,9.55,9.55,0,0,0-5.52,3.54,8.31,8.31,0,0,0-1.58,6.72l9.54,33.46-27.87,8.07-16.79-58.76,22.74-6.46A64.07,64.07,0,0,1,391.66,152a43,43,0,0,1,18.18.59,53.09,53.09,0,0,1,7.08-5.45,66,66,0,0,1,6.51-3.6,31,31,0,0,1,5.67-2.16,33.44,33.44,0,0,1,3.82-1.21,47.32,47.32,0,0,1,14.47-1.94,31.53,31.53,0,0,1,12.38,2.58,29.34,29.34,0,0,1,9.72,7,29.94,29.94,0,0,1,5.77,10.9l9.4,33-27.86,7.84-9.41-32.9c-.85-2.78-2.32-4.58-4.47-5.37a10.11,10.11,0,0,0-6.52-.36,10.34,10.34,0,0,0-5.6,3.45,7.7,7.7,0,0,0-1.56,6.66Z"/></svg>