<svg xmlns="http://www.w3.org/2000/svg" viewBox="0 0 1024 1024"><defs><style>.a{fill:#ec1e24;}.b{fill:#fff;}</style></defs><path class="a" d="M454.37,351.13s-11.26,18.41,0,27.81,37.41,3.81,39.43,30.48c0,0-4.37-7.21-17.4-8.23-12.87-1-37.73-9.53-37.73-30.94S454.37,351.13,454.37,351.13Z"/><path class="a" d="M321.63,476.12S354,444,372,443.29h-.73a54.88,54.88,0,0,0,2.34,7.79s-21.32,7.82-25.31,37.4c0,0,14.93-24.31,29.61-26.63,0,0,9.06,8.88,9.37,20.74s-3.15,14-3.15,14,11.64,4,13.6,10c0,0,5.31-23.64-4.12-37.37-9.27-13.79-10.7-17.46-10.7-17.46s13.21-8.82,32.83-1.86c0,0-22,57.17,46.39,76.55,0,0-46.88-28.08-34.44-69.55,0,0,30.87,11.26,38.49-15.65,0,0-27-3.65-27.55-16.53,0,0,15.7-3.85,18.85-12.37,0,0,9.82,3.85,24.43-2.93,0,0-36.28-2.88-46.88-29.2,0,0-8.46,17.2,12,27.92,0,0-1.61,9.21-15.49,8.25,0,0-3.7,25.6,19.06,31.38,0,0-10.77,9.69-29.3-7.22s-62.61-54.07-99.74,1.72c0,0,35.59-22.65,52.51-18.7,0,0-2.1,4.08-2.27,7.22C371.87,430.79,334.71,435.66,321.63,476.12Zm60.06-45.61c1.26-2.72,5-5.08,5-5.08,5.84,2,14.47,8.46,14.47,8.46C394.56,431.81,381.69,430.51,381.69,430.51Zm-2,6.54c12-.71,18.85,3.1,18.85,3.1-6.89.4-18.15,3.84-18.15,3.84A15.36,15.36,0,0,1,379.73,437.05Z"/><path class="a" d="M505.48,248.52s16.26,26.63,0,40.24-53.91,5.43-56.77,43.83c0,0,6.26-10.42,25-11.8,18.88-1.49,54.6-13.64,54.6-44.58S505.48,248.52,505.48,248.52Z"/><path class="a" d="M624.72,363.52c-.24-4.54-3.63-10.42-3.63-10.42,24.64-5.76,76,26.93,76,26.93C643.53,299.52,580,353.1,553.23,377.52S510.9,388,510.9,388c32.93-8.23,27.51-45.33,27.51-45.33-19.89,1.51-22.34-11.77-22.34-11.77,29.61-15.52,17.34-40.3,17.34-40.3-15.2,38-67.68,42-67.68,42,21,9.83,35.28,4.33,35.28,4.33,4.4,12.24,27.26,17.74,27.26,17.74-.76,18.71-39.71,23.88-39.71,23.88,10.94,38.86,55.34,22.54,55.34,22.54,17.87,59.9-49.57,100.36-49.57,100.36,98.58-28,66.77-110.33,66.77-110.33,28.42-10.09,47.47,2.59,47.47,2.59s-2,5.27-15.48,25.17-5.77,53.9-5.77,53.9c2.73-8.74,19.47-14.43,19.47-14.43s-5-2.87-4.47-20.09,13.46-30,13.46-30c21.15,3.35,42.89,38.36,42.89,38.36C652.83,404,622,392.71,622,392.71a62.52,62.52,0,0,0,3.4-11.15h-.95c26,.93,72.61,47.32,72.61,47.32C678.14,370.47,624.72,363.52,624.72,363.52ZM582.49,368s12.38-9.34,20.74-12.23c0,0,5.52,3.41,7.3,7.4C610.53,363.16,592,365,582.49,368Zm29.79,14.59S596,377.52,586.13,377c0,0,9.82-5.51,27-4.51A25.28,25.28,0,0,1,612.28,382.58Z"/><path class="a" d="M726.21,614.64l-25.55-51.87c-1.21-2.25-23.18-44.69-109.4-71l1.48-1.86,2.44-2.79,2.91-3.51,8-5.86V467.4l11.92-19.9s-.35-7.17,1.85-10.57,3-4.09,4.58-9.06c1.85-5,7.52-14.32,7.52-14.32s-1.75-18.08-1.75-19.64,11-25.52,10.07-28.88a11.76,11.76,0,0,1,0-6.29s-20.84-34.58-25.73-36.44c-5.07-1.85-8.74-9.26-12.8-13.61s-8.53-13.11-8.88-14c-.17-1-2.69-7.54-2.69-7.54s-1.29-4.34-4.09-4.34-10.07-5.24-10.38-6.49-5.6-2.22-5.6-2.22-7.27-13.07-13.52-13.69S540,256,540,256a6.16,6.16,0,0,0-2.8,0c-2.2.26.35.9-2.2.26s-8-3.05-10.56-3.05h-7.37s-3.57.57-3.89,1.7-1.29,2-8.31,4.14c-6.75,2.19-4,1.91-6.75,2.19s-11.92,0-11.92,0,1.26-1.23-2.9.17c-3.88,1.42-3.39-1.07-3.88,1.42-.7,2.48.91,9.66,0,10.58l-1.12.95-12.17,4H452.94l-7.37,2.45c.32-.11,1.14-.52-5.08,0l-7.27.62s-21.88,18.07-22.76,20.55a5.67,5.67,0,0,0,0,4.61,26.92,26.92,0,0,1-4.47,6.92c-2.52,2.5-1.44,2.5-3.39,5s-4.41,4.33-4.41,6.13v6.9s5.67,1.6,0,2.78S386,342,386,342v7.13h-6.64V355s-1.61.95-2.83,1.56l-1.26.63v19s-1.44,3.5-8,5.36l-11.33,3.05,2.17,11.17s0-1.87.31,2.88-.63,2.42.39,4.61c.84,2.17,5,8.06,5,8.06h10.59s17.86,12.2,20,25.6,3.81,15.53,6.26,17.71,5.35,2.51,8.71,6.25C413,464.6,428,477.4,428,477.4l8.71,9.68,2.78,3.45c-89.07,26.3-111.64,69.86-112.69,72.12l-25.66,51.8,41.81-40.23c36.51-35.34,93.95-50.65,132.07-57.17a49,49,0,0,0,12.49,3.62c14.37,1.87,22.82,1.87,30-6.5a7.68,7.68,0,0,1,1.44-1.28c23.36,1.87,114.66,12.32,165.63,61.45Z"/><path class="b" d="M504.57,240.28s16.33,26.48,0,40.14-53.9,5.39-56.8,43.83c0,0,6.29-10.41,25.06-11.83s54.5-13.62,54.5-44.55S504.57,240.28,504.57,240.28Z"/><path class="b" d="M623.81,355.18c-.17-4.58-3.56-10.44-3.56-10.44,24.54-5.74,75.89,27,75.89,27-53.48-80.48-117.11-27-143.85-2.52S510,379.6,510,379.6c32.9-8.27,27.41-45.3,27.41-45.3-19.72,1.48-22.27-11.88-22.27-11.88,29.64-15.36,17.37-40.28,17.37-40.28-15.17,38.12-67.64,42.11-67.64,42.11,21,9.88,35.31,4.35,35.31,4.35,4.4,12.22,27.16,17.77,27.16,17.77-.77,18.66-39.68,23.88-39.68,23.88,11,38.81,55.41,22.51,55.41,22.51,17.86,59.91-49.57,100.39-49.57,100.39,98.48-28.06,66.67-110.48,66.67-110.48,28.45-10,47.47,2.7,47.47,2.7s-1.92,5.27-15.49,25.13-5.66,53.9-5.66,53.9C589.1,455.79,606,450,606,450s-5-2.83-4.58-20.1S614.83,400,614.83,400c21.15,3.33,42.9,38.34,42.9,38.34-5.74-42.71-36.64-53.94-36.64-53.94a53.81,53.81,0,0,0,3.39-11.17l-.84-.09c25.91.92,72.5,47.37,72.5,47.37C677.2,362.1,623.81,355.18,623.81,355.18Zm-42.15,4.48s12.09-9.33,20.72-12.18c0,0,5.42,3.36,7.21,7.3C609.59,354.78,591,356.66,581.66,359.66Zm29.71,14.54s-16.33-5-26.15-5.54c0,0,9.65-5.53,27.06-4.53A25.37,25.37,0,0,1,611.37,374.2Z"/><path class="b" d="M457.76,342.68s-11.26,18.45,0,28,37.58,3.73,39.43,30.4c0,0-4.29-7.27-17.4-8.29s-37.69-9.43-37.69-30.83S457.76,342.68,457.76,342.68Z"/><path class="b" d="M325,467.8s32.37-32.23,50.48-32.83h-.69a51.78,51.78,0,0,0,2.3,7.75s-21.43,7.75-25.38,37.35c0,0,15-24.24,29.68-26.6,0,0,9,8.83,9.37,20.79s-3.11,14-3.11,14,11.6,3.94,13.56,9.92c0,0,5.14-23.64-4.12-37.42s-10.63-17.36-10.63-17.36,13.14-8.78,32.83-1.86c0,0-22.1,57.18,46.32,76.58,0,0-46.88-28.05-34.37-69.57,0,0,30.8,11.29,38.42-15.63,0,0-27.16-3.65-27.51-16.56,0,0,15.84-3.9,18.7-12.31,0,0,10,3.76,24.54-3,0,0-36.28-2.79-46.84-29.2,0,0-8.57,17.23,12,27.92,0,0-1.78,9.2-15.49,8.25,0,0-3.74,25.68,19.06,31.37,0,0-10.77,9.71-29.3-7.28-18.6-16.82-62.71-54-99.81,1.78,0,0,35.59-22.68,52.61-18.6,0,0-2.13,4-2.3,7.12C375.26,422.41,338.1,427.25,325,467.8Zm60-45.59c1.29-2.71,5-5.1,5-5.1,5.95,2,14.41,8.46,14.41,8.46C397.84,423.44,385,422.21,385,422.21Zm-1.86,6.46c11.93-.76,18.74,3.14,18.74,3.14-6.88.3-18.14,3.85-18.14,3.85A16.67,16.67,0,0,1,383.12,428.67Z"/><path class="a" d="M138.48,638.92v70.23a7.32,7.32,0,0,0,2.63,5.29,8.56,8.56,0,0,0,5.87,2.17h1.53l.14,1.14H108.56v-1.14h1.68a8.23,8.23,0,0,0,5.73-2.17,7.7,7.7,0,0,0,2.69-5.15V638.92H100.9c-4.05.05-7.27,1.25-9.58,3.45-2.51,2.22-3.6,5.1-3.6,8.79v1.44H86.5V631.74a37.72,37.72,0,0,0,6.61,1.4,59.64,59.64,0,0,0,8.84.77h53.14a59.06,59.06,0,0,0,10.56-1,34.5,34.5,0,0,0,5.06-1.2V652.6h-1.39v-1.44a11.47,11.47,0,0,0-3.5-8.79,14.34,14.34,0,0,0-9.65-3.45Z"/><path class="a" d="M229.1,632.35c16.25,0,29.29,3.86,38.77,11.72s14.4,18.42,14.4,31.85-4.83,24-14.4,31.83-22.52,11.69-38.77,11.69-29.16-3.84-38.81-11.69-14.37-18.44-14.37-31.83A39.86,39.86,0,0,1,201,637.63C209,634.1,218.36,632.35,229.1,632.35Zm-23,71.77c5.63,6.9,13.32,10.32,23,10.32s17.3-3.42,23-10.32,8.36-16.31,8.36-28.2c0-7.85-1.22-14.7-3.71-20.48A30.47,30.47,0,0,0,245.88,642a30,30,0,0,0-16.78-4.65c-9.65,0-17.34,3.4-23,10.29s-8.49,16.33-8.49,28.26S200.5,697.15,206.13,704.12Z"/><path class="a" d="M326.17,639.23h-6V709a7.47,7.47,0,0,0,4.19,6.61,10.34,10.34,0,0,0,4.23,1h1.79v1.14h-40.1v-1.14H292a7.72,7.72,0,0,0,8.39-7.46V642.77a7.09,7.09,0,0,0-2.49-5.36,8.43,8.43,0,0,0-5.9-2.17h-1.68V634h45.1q12.84,0,21.74,5a19.86,19.86,0,0,1,7.2,7,21.46,21.46,0,0,1,2.52,10.18,25.47,25.47,0,0,1-2.2,10.53A20.13,20.13,0,0,1,357.5,675a24.6,24.6,0,0,1-12.27,4.28c5.17,1.52,9.54,5.07,13.53,10.57,9.51,13.87,16.5,22,21,24.64a18.16,18.16,0,0,0,8.64,2.08v1.14H375.43c-7.34,0-13.67-1-18.66-2.79a25.3,25.3,0,0,1-12.24-9.57,118.13,118.13,0,0,1-6.08-10.49,89.83,89.83,0,0,1-4.83-10c-2.48-4.83-5.35-7.47-9.15-8v-1.19h4.15a17.35,17.35,0,0,0,10.53-3.23c3-2.11,5-5.67,6.08-10.56a20.66,20.66,0,0,0,.52-3.92c0-6.53-1.4-11.27-4.26-14.23a16.07,16.07,0,0,0-11.26-4.48Z"/><path class="a" d="M388.37,716.61a8.35,8.35,0,0,0,5.84-2.21,7.8,7.8,0,0,0,2.58-5.37V642.59a7.45,7.45,0,0,0-2.58-5.22,8.38,8.38,0,0,0-5.84-2.13h-1.68V634h40.1l-.18,1.21H425a9.46,9.46,0,0,0-6,2.13,6.77,6.77,0,0,0-2.44,5.22V709A7.09,7.09,0,0,0,419,714.4a9.44,9.44,0,0,0,6,2.21h1.61l.18,1.14h-40.1v-1.14Z"/><path class="a" d="M438.67,706.67c0-5.74,1.23-10.68,3.95-14.76h1.26c0,.68-.17,1.29-.17,2a19,19,0,0,0,6.6,14.45c4.24,4.09,10.25,6.12,17.76,6.12,6,0,10.67-1.34,13.88-3.82a11.93,11.93,0,0,0,5-9.69c0-4.71-3.63-8.88-10.55-12.33l-23-13.78c-4.48-2.4-7.87-5.28-9.83-8.69a19.82,19.82,0,0,1-2.86-10.29c0-7.54,2.44-13.33,7.86-17.41,5.18-4.09,11.85-6.08,20-6.08a159.58,159.58,0,0,1,17.83,1.16h8.46l-1.75,17.65h-1.29a11.85,11.85,0,0,0-5.25-10c-3.39-2.48-7.79-3.75-13.35-3.75-6.86,0-11.85,1.86-14.89,5.66a9.54,9.54,0,0,0-2.49,6.29c0,3.84,3.15,7.35,9.34,10.65l25.2,14.85c7.87,4.11,11.86,10.28,11.86,18.29,0,8.57-3.22,15.07-9.58,19.6s-14.79,6.73-25.45,6.73a69.28,69.28,0,0,1-16.5-1.9c-5-1.33-8.74-3.14-11.09-5.37A13.12,13.12,0,0,1,438.67,706.67Z"/><path class="a" d="M577.18,716.61a8.1,8.1,0,0,0,5.31-1.56c2-1.84,3-3.8,3-5.9V678.69H542.89V709a7.13,7.13,0,0,0,2.48,5.37,9,9,0,0,0,5.91,2.21h1.61l.17,1.14H513v-1.14h1.78a8.53,8.53,0,0,0,5.74-2.21A7.16,7.16,0,0,0,523,709V642.59a6.84,6.84,0,0,0-2.48-5.22,8.55,8.55,0,0,0-5.74-2.13H513V634h40l-.17,1.21h-1.61a9.06,9.06,0,0,0-5.91,2.13,6.81,6.81,0,0,0-2.48,5.22V673.5h42.65V642.59a6.78,6.78,0,0,0-2.45-5.22,8.68,8.68,0,0,0-5.91-2.13h-1.71V634H615.6v1.21h-1.78a8.5,8.5,0,0,0-5.91,2.17,7.08,7.08,0,0,0-2.48,5.36V709a7.13,7.13,0,0,0,2.48,5.37,8.63,8.63,0,0,0,5.91,2.21h1.78v1.14H575.47v-1.14Z"/><path class="a" d="M628.29,716.61A8.32,8.32,0,0,0,634,714.4a8.07,8.07,0,0,0,2.73-5.37V642.59a7.71,7.71,0,0,0-2.73-5.22,8.33,8.33,0,0,0-5.66-2.13h-1.78V634h40v1.21h-1.61a8.48,8.48,0,0,0-5.91,2.13,6.88,6.88,0,0,0-2.55,5.22V709A7.2,7.2,0,0,0,659,714.4a8.45,8.45,0,0,0,5.91,2.21h1.61v1.14h-40v-1.14Z"/><path class="a" d="M796.69,716.61h2.2v1.14H759.28v-1h2a4.91,4.91,0,0,0,3.88-1.6,4,4,0,0,0,1.29-3.54l-5.17-43.44L736.52,707c-3.39,4.9-5,9.29-5,13.25h-1.43l-34-51.73-5,43.09a3.91,3.91,0,0,0,1.26,3.54,4.89,4.89,0,0,0,3.7,1.6h2.21v1H670.59v-1.14h2.31a10.62,10.62,0,0,0,6.33-2.08,8.32,8.32,0,0,0,3.21-5.5l10.84-76.68h1.26l41,61.07,39.08-61.07h1.3L787,709a8.35,8.35,0,0,0,3.46,5.5A9.68,9.68,0,0,0,796.69,716.61Z"/><path class="a" d="M894.85,716.61H896v1.14H854v-1.14h1.18c2,0,3.39-.54,4.23-1.65a4.72,4.72,0,0,0,1.44-3.05,8.94,8.94,0,0,0-.6-2.88l-6.43-14.67h-31L815.91,709a9.69,9.69,0,0,0-.52,3,4.84,4.84,0,0,0,1.19,3,5.81,5.81,0,0,0,4.48,1.65h1.11v1.14H793.89v-1.14h1.29a12.64,12.64,0,0,0,6.08-1.68,15.2,15.2,0,0,0,5-5l30.55-62.65c4.13-7.89,6.26-13.07,6.43-15.66h1.26l39.08,78.06a13.22,13.22,0,0,0,5,5.18A12.53,12.53,0,0,0,894.85,716.61Zm-69.71-27.3h26.29l-12.86-29.48Z"/><path class="a" d="M899.18,716.61a8.21,8.21,0,0,0,5.74-2.21,6.73,6.73,0,0,0,2.62-5.37V642.59a6.44,6.44,0,0,0-2.62-5.22,8.23,8.23,0,0,0-5.74-2.13h-1.71V634h40l-.07,1.21h-1.54a9,9,0,0,0-6,2.13,6.85,6.85,0,0,0-2.52,5.22V709a7.17,7.17,0,0,0,2.52,5.37,9,9,0,0,0,6,2.21h1.54l.07,1.14h-40v-1.14Z"/><path class="a" d="M291.36,754.36a2.23,2.23,0,0,0-2.17,2.08v19.74a7.26,7.26,0,0,1-4.37,6.84,8.17,8.17,0,0,1-3.6.8c-.31,0-.56,0-.84,0v-.24a6.28,6.28,0,0,0,2.94-3,11,11,0,0,0,.87-4.47V756.44a1.92,1.92,0,0,0-1.05-1.85,2.63,2.63,0,0,0-1-.23h-.45v-.31h10.1v.31Z"/><path class="a" d="M325.76,776.83H326v.37H315.51v-.37h.25a1.24,1.24,0,0,0,1.05-.39,1.09,1.09,0,0,0,.38-.91,1.06,1.06,0,0,0-.21-.73l-1.61-4.12h-7.83l-1.6,4.12a1.26,1.26,0,0,0-.21.84.84.84,0,0,0,.38.8,1.19,1.19,0,0,0,1.05.39h.38v.37h-7.16v-.37h.35a3.24,3.24,0,0,0,1.4-.39,3.45,3.45,0,0,0,1.29-1.43l7.69-17.27a18.3,18.3,0,0,0,1.68-4.39h.28l9.78,21.58a3.61,3.61,0,0,0,1.37,1.44A2.69,2.69,0,0,0,325.76,776.83Zm-17.52-7.52h6.61l-3.21-8.13Z"/><path class="a" d="M353.55,763.53a6.55,6.55,0,0,1-4.09,3.56,6.28,6.28,0,0,1-1.71.31,7.46,7.46,0,0,1-4.3-1.25v-.34a4.82,4.82,0,0,0,4.12-1.6,5.35,5.35,0,0,0,1.33-3.78c0-2.39-.81-3.89-2.58-4.68a4.47,4.47,0,0,0-1.79-.36h-2.17V774.8a1.83,1.83,0,0,0,.56,1.41,2.65,2.65,0,0,0,1.61.62h.35v.37h-10v-.37h.35a2,2,0,0,0,1.43-.62,1.51,1.51,0,0,0,.67-1.41V756.32a1.8,1.8,0,0,0-1-1.73,3,3,0,0,0-1.08-.23h-.35v-.31H346c4,0,6.61,1.19,7.66,3.82a6.55,6.55,0,0,1,.56,2.78A6.17,6.17,0,0,1,353.55,763.53Z"/><path class="a" d="M388,776.83h.35v.37H377.56v-.37H378c.53,0,.88-.13,1-.39a1.57,1.57,0,0,0,.38-.91,1.19,1.19,0,0,0-.18-.73l-1.61-4.12h-7.69l-1.78,4.12a1.78,1.78,0,0,0-.14.84,1.64,1.64,0,0,0,.32.8,1.27,1.27,0,0,0,1.05.39h.38v.37h-7.24v-.37h.28a3.63,3.63,0,0,0,1.61-.39,3.84,3.84,0,0,0,1.26-1.43l7.69-17.27a14.57,14.57,0,0,0,1.61-4.39h.35l9.82,21.58a3.25,3.25,0,0,0,1.26,1.44A2.91,2.91,0,0,0,388,776.83Zm-17.52-7.52H377l-3.22-8.13Z"/><path class="a" d="M422.59,754.36a1.67,1.67,0,0,0-1.29.59,2.13,2.13,0,0,0-.77,1.4v17a18.23,18.23,0,0,0,.38,3.78l.07.47h-.28l-16.84-15.9v13.16a2.28,2.28,0,0,0,2.13,1.94h.52v.37h-10v-.37H397a2,2,0,0,0,1.54-.62,1.68,1.68,0,0,0,.55-1.41V757.74a13.86,13.86,0,0,0-.28-3.69l-.07-.52h.35l16.65,15.9v-13a2.08,2.08,0,0,0-.49-1.49,2.39,2.39,0,0,0-1.44-.59h-.73v-.31h10.21v.31Z"/><path class="a" d="M434.34,776.83a2.15,2.15,0,0,0,1.5-.62,1.82,1.82,0,0,0,.7-1.41V756.35a2.49,2.49,0,0,0-1.15-1.76,2.46,2.46,0,0,0-1.05-.23H434v-.31h12.8a13.58,13.58,0,0,0,2.13-.21,7.08,7.08,0,0,0,1.79-.4v5.79h-.36v-.4a3.41,3.41,0,0,0-.94-2.39,2.94,2.94,0,0,0-2.27-1h-5.59v9.62h4.33a2.18,2.18,0,0,0,1.93-.84,2.21,2.21,0,0,0,.94-2v-.31h.35v7.61h-.35v-.24a2.54,2.54,0,0,0-1.26-2.43,3.54,3.54,0,0,0-1.61-.4h-4.33v9.3h4.33A5.93,5.93,0,0,0,450,774.4a9.12,9.12,0,0,0,2.31-4h.32l-1.43,6.78H434v-.37Z"/><path class="a" d="M463.53,774.1a7,7,0,0,1,1-4.08h.25v.52a5.52,5.52,0,0,0,1.61,4,6.1,6.1,0,0,0,4.58,1.68,5.11,5.11,0,0,0,3.46-1,4.07,4.07,0,0,0,1.25-2.7c0-1.28-.9-2.48-2.68-3.42l-5.84-3.76A6.44,6.44,0,0,1,464,760a5.83,5.83,0,0,1,2.1-4.79,7.2,7.2,0,0,1,5-1.63,27.78,27.78,0,0,1,4.4.32h2.2l-.35,4.87h-.41a3.86,3.86,0,0,0-1.2-2.79,5.91,5.91,0,0,0-3.53-1.06,4.14,4.14,0,0,0-3.74,1.63,3.05,3.05,0,0,0-.59,1.73c0,1,.77,2,2.31,2.92l6.43,4.09a5.53,5.53,0,0,1,2.87,5,6.4,6.4,0,0,1-2.31,5.43,10.59,10.59,0,0,1-6.5,1.85,14.84,14.84,0,0,1-4.16-.53,7.54,7.54,0,0,1-2.76-1.46A4,4,0,0,1,463.53,774.1Z"/><path class="a" d="M491.18,776.83a1.8,1.8,0,0,0,1.44-.62,1.72,1.72,0,0,0,.69-1.41V756.35a2.12,2.12,0,0,0-1.11-1.76,4.21,4.21,0,0,0-1-.23h-.49v-.31h12.76a15.85,15.85,0,0,0,2.21-.21,5.65,5.65,0,0,0,1.71-.4v5.79h-.28v-.4a3.22,3.22,0,0,0-3.29-3.36h-5.48v9.62h4.29a3.39,3.39,0,0,0,2.14-.84,2.89,2.89,0,0,0,.73-2v-.31h.28v7.61h-.28v-.24a2.63,2.63,0,0,0-1.43-2.43,2.2,2.2,0,0,0-1.44-.4h-4.29v9.3h4.22a5.84,5.84,0,0,0,4.13-1.38,8.12,8.12,0,0,0,2.38-4h.42L508,777.2H490.69v-.37Z"/><path class="a" d="M550.33,777.63c-4.05,0-7.58-1-10-3.23a11.07,11.07,0,0,1-3.64-8.77c0-3.73,1.19-6.69,3.64-8.82s5.73-3.2,10-3.2a17.27,17.27,0,0,1,8.22,1.78v5.66h-.18c-1.26-4.07-3.7-6.1-7.86-6.1a7.12,7.12,0,0,0-6,2.92c-1.6,1.76-2.44,4.38-2.44,7.66a13.39,13.39,0,0,0,2.2,7.77,7.21,7.21,0,0,0,5.94,2.91c2.7,0,4.48-.57,5.91-1.84s2.27-3.66,2.87-6.85h.17l.35,5.62C557.71,776.18,554.67,777.63,550.33,777.63Z"/><path class="a" d="M595.78,754.36H595a2,2,0,0,0-1.11.45,1.31,1.31,0,0,0-.49,1.11v12.9a8.19,8.19,0,0,1-2.73,6.47c-1.61,1.54-3.88,2.34-6.92,2.34-3.5,0-6.19-.74-8-2.25a7.88,7.88,0,0,1-2.87-6.56V756a1.74,1.74,0,0,0-.42-1.16,1.79,1.79,0,0,0-1.29-.49h-.49v-.31h9.47v.31h-.42a1.7,1.7,0,0,0-1.26.45,1.43,1.43,0,0,0-.59,1.11v12.62a8.59,8.59,0,0,0,1.75,5.64,6.07,6.07,0,0,0,4.82,2,6.52,6.52,0,0,0,4.82-1.91A8.37,8.37,0,0,0,591,769V755.92c0-.45,0-.85-.41-1.11a2,2,0,0,0-1.2-.45h-.59v-.31h7Z"/><path class="a" d="M606.79,776.83a2.08,2.08,0,0,0,1.54-.62,1.78,1.78,0,0,0,.66-1.41V756.44a2.14,2.14,0,0,0-2.2-2.08h-.42v-.31h10.07v.31H616a2.16,2.16,0,0,0-1.43.59,2,2,0,0,0-.6,1.49V774.8a1.73,1.73,0,0,0,.6,1.41,2.2,2.2,0,0,0,1.43.62h.42v.37H606.37v-.37Z"/><path class="a" d="M627.94,774.1a7.83,7.83,0,0,1,.84-4.08h.35v.52a5.64,5.64,0,0,0,6.08,5.67,4.77,4.77,0,0,0,3.5-1,3.41,3.41,0,0,0,1.26-2.7c0-1.28-.77-2.48-2.56-3.42l-5.9-3.76a6.7,6.7,0,0,1-2.55-2.39,6.11,6.11,0,0,1-.67-2.9,6.19,6.19,0,0,1,2-4.79,8,8,0,0,1,5.14-1.63,29,29,0,0,1,4.51.32H642l-.41,4.87h-.35A3.46,3.46,0,0,0,640,756a5.37,5.37,0,0,0-3.46-1.06c-1.79,0-3,.52-3.74,1.63a2.63,2.63,0,0,0-.6,1.73c0,1,.77,2,2.38,2.92l6.36,4.09a5.59,5.59,0,0,1,2.94,5,6.74,6.74,0,0,1-2.34,5.43,10.67,10.67,0,0,1-6.44,1.85,14.81,14.81,0,0,1-4.33-.53,6.31,6.31,0,0,1-2.62-1.46A4,4,0,0,1,627.94,774.1Z"/><path class="a" d="M655.63,776.83a2.5,2.5,0,0,0,1.43-.62,1.92,1.92,0,0,0,.53-1.41V756.44a2.23,2.23,0,0,0-.53-1.49,2.44,2.44,0,0,0-1.43-.59h-.53v-.31h10v.31h-.35a1.81,1.81,0,0,0-1.43.59,1.64,1.64,0,0,0-.77,1.49V774.8a1.47,1.47,0,0,0,.77,1.41,1.84,1.84,0,0,0,1.43.62h.35v.37h-10v-.37Z"/><path class="a" d="M701.91,754.36a1.77,1.77,0,0,0-1.43.59,2,2,0,0,0-.52,1.4v17a12.39,12.39,0,0,0,.34,3.78v.47H700l-16.75-15.9v13.16a1.41,1.41,0,0,0,.66,1.32,1.56,1.56,0,0,0,1.37.62h.59v.37h-9.89v-.37h.49a1.72,1.72,0,0,0,1.43-.62,1.51,1.51,0,0,0,.6-1.41V757.74a20.32,20.32,0,0,0-.25-3.69l-.07-.52h.25l16.74,15.9v-13a2.14,2.14,0,0,0-.59-1.49,1.78,1.78,0,0,0-1.44-.59h-.49v-.31h10v.31Z"/><path class="a" d="M713.66,776.83a1.77,1.77,0,0,0,1.47-.62,1.72,1.72,0,0,0,.59-1.41V756.35a1.89,1.89,0,0,0-1-1.76,2.56,2.56,0,0,0-1.05-.23h-.42v-.31H726a16.79,16.79,0,0,0,2.27-.21,5.66,5.66,0,0,0,1.61-.4v5.79h-.32v-.4a2.78,2.78,0,0,0-.94-2.39,2.9,2.9,0,0,0-2.27-1h-5.6v9.62h4.4a3.05,3.05,0,0,0,2.1-.84,2.69,2.69,0,0,0,.7-2v-.31h.32v7.61H728v-.24a2.51,2.51,0,0,0-1.29-2.43,3,3,0,0,0-1.51-.4h-4.4v9.3h4.3a6.1,6.1,0,0,0,4.16-1.38,7,7,0,0,0,2.27-4h.42l-1.43,6.78H713.24v-.37Z"/></svg>