<svg xmlns="http://www.w3.org/2000/svg" viewBox="0 0 1024 1024"><defs><style>.a{fill:#885424;}.b{fill:#fff;}.c{fill:#542b10;}</style></defs><path class="a" d="M514.41,647.45c-21.5-242.61-146.15-275.58-146.15-275.58,54,4.46,80.39,26.08,80.39,26.08-1.7-78,24.41-148.25,54.62-202.92h-.69C389.07,195,296,317.18,286.46,473,435.29,523.27,514.41,647.45,514.41,647.45Z"/><path class="a" d="M548.82,566.7c32.9-94.23,100.07-137.28,161.11-156.58-25.23-115.73-98.28-202-186.79-213.73C451.11,389.9,548.82,566.7,548.82,566.7Z"/><path class="a" d="M514.67,731.76c-12.89-126.63-135.89-203-228.88-243-.08,3.5-.14,7-.14,10.54,0,158.89,86.86,289.28,197.66,303C514.28,781.36,516.94,753.24,514.67,731.76Z"/><path class="a" d="M572.27,651.86a301.77,301.77,0,0,1,5,38.1v-.09s27.43-50.25,75.51-62.39c0,0-69.69,68.61-75.66,115.55v.81c-.15,1.27-.15,2.55-.27,3.7-.32,7-.77,11.88-1.56,15.11-1.13,9.09-2.48,17.52-3.89,25.16,86-40.35,148-154.27,148-288.52a421.25,421.25,0,0,0-7-76.87C613.83,472.69,558.83,582.94,572.27,651.86Z"/><path class="a" d="M784.06,300c-79,28.49-48.29,73.25-48.29,73.25S789.5,383.49,784.06,300Z"/><path class="a" d="M840,484c-45.89-70.05-82.91-30.07-82.91-30.07S759.36,508.24,840,484Z"/><path class="a" d="M448.18,88.25c-11.18,82.92,43.08,76.5,43.08,76.5S525.17,122.13,448.18,88.25Z"/><path class="a" d="M628.63,148.76c-61.21-12.35-59.08,27.87-59.08,27.87S599.68,203.73,628.63,148.76Z"/><path class="b" d="M580.34,412.41c-35.48,48.13.77,62.54.77,62.54S617,459.69,580.34,412.41Z"/><path class="a" d="M231.54,386.3c.59,62.1,39.83,51.54,39.83,51.54S291.56,402.91,231.54,386.3Z"/><path class="a" d="M203.19,523.67c55.94,12.23,49.76-26.9,49.76-26.9S223.09,470.52,203.19,523.67Z"/><path class="b" d="M565.32,262.14c-59.87-4.73-53.22,33.46-53.22,33.46S544.06,318,565.32,262.14Z"/><path class="b" d="M703.19,518.36c-29.36-52.18-57.56-25.43-57.56-25.43S644.74,531.85,703.19,518.36Z"/><path class="b" d="M383.07,614.9c47.87,35.93,62.86,0,62.86,0S430.94,579.08,383.07,614.9Z"/><path class="b" d="M366.13,454.76c-9.31,59,29.62,55.13,29.62,55.13S420.44,480,366.13,454.76Z"/><path class="b" d="M406.55,266.3C403.68,326,441.85,318,441.85,318S463.37,285.54,406.55,266.3Z"/><path class="a" d="M548.82,566.7c.46-1.3.94-2.56,1.41-3.85-10.58-22.85-32-75.53-41.32-143.31-11.3-84.28-5.12-209.77,88.52-329.27L591.22,86c-.41.4-13.31,13-31.2,35.05C424.27,341.4,548.82,566.7,548.82,566.7Z"/><path class="a" d="M513.17,643.55c-5.55-7.43-13.76-17.79-24.51-29.83,17,20.07,25.75,33.73,25.75,33.73-16.26-183.51-91.53-247.06-127.24-267.14-4.57-.67-9.36-1.23-14.39-1.63l-38.11-3,36.57,9.8C372.46,385.83,488.71,419.77,513.17,643.55Z"/><path class="a" d="M814.07,401.91a352.06,352.06,0,0,0-70,7.07c-118.25,40.69-186.63,166.9-171.81,242.88a301.77,301.77,0,0,1,5,38.1v-.09s2.11-3.86,6.17-9.69c-.83-6.37-1.78-12.68-3.07-18.82-9.9-50.46,17.09-119.65,67.12-172.28,51.59-54.41,120.28-82.66,191.77-79.05l.77-7C839.53,403.05,829.86,401.91,814.07,401.91Z"/><path class="a" d="M641.48,639.25C621.5,660.89,581.55,708,577.09,743v.81c-.15,1.27-.15,2.55-.27,3.7-.32,7-.77,11.88-1.56,15.11l-.39,3,9.7-1.13c.14-2,.32-4.25.32-6.72a31.76,31.76,0,0,1,.3-3.52l.15-.67C591,708.29,659.08,640.76,659.84,640l9.08-9-13.16,3.37A96.35,96.35,0,0,0,641.48,639.25Z"/><path class="a" d="M515,742.35c.09.91.18,1.94.27,3a102.11,102.11,0,0,0-.57-13.62C497.89,567,294.6,487.34,213.72,462c-9.3-1.16-18.79-2-28.48-2.54l-1.24,6.8c.91.18,78.59,18.63,158,61.87C415,567.82,504.27,637.34,515,742.35Z"/><path class="c" d="M245.61,798.29,270.19,774c6.64,6.77,10.06,10,17.05,16.21L266.5,813.91q-3.47,3.93-5.95,6.37a48.78,48.78,0,0,1-5.5,4.67,16,16,0,0,1-5.77,2.83,20.46,20.46,0,0,1-6.18.37,18.44,18.44,0,0,1-7.13-2.24,55,55,0,0,1-8.14-5.44,87.23,87.23,0,0,1-9.63-9,88.63,88.63,0,0,1-8.4-10.28,56.64,56.64,0,0,1-5-8.59,19.17,19.17,0,0,1-1.86-7.38,19.64,19.64,0,0,1,.69-6.22,17.45,17.45,0,0,1,3.14-5.67,41.66,41.66,0,0,1,4.93-5.28q2.58-2.34,6.73-5.54l24.86-19.28c6,7.75,9.13,11.49,15.54,18.67l-25.72,23q-5.85,5.25-6.76,7.83c-.6,1.71.16,3.77,2.32,6.1,1.12,1.21,1.68,1.81,2.82,3,2.17,2.29,4.15,3.17,5.9,2.67S241.88,802,245.61,798.29Z"/><path class="c" d="M292.22,859.49c2.66-14.92,4.25-22.29,7.9-36.79.07-.47,0-.77-.16-.9s-.53-.1-.7.38a97.68,97.68,0,0,1-6.85,13.88,167.59,167.59,0,0,1-10,15.64l-6.54,9c-7.88-5.75-11.75-8.76-19.34-15l32.78-39.77c4.91-6,11.44-5.39,19.95,1,4.16,3.12,6.86,6.08,8.1,9.05s1.41,6.64.53,11.07c-3,14.63-4.31,22-6.34,37.06,0,.48.11.79.33.92s.59.08.71-.41a79.66,79.66,0,0,1,5.59-14.45A161.57,161.57,0,0,1,327,833.82c2.36-3.77,3.53-5.66,5.88-9.44,6.94,4.33,10.46,6.38,17.6,10.25l-24.61,45.3c-3.71,6.84-11.08,7.43-21.75,1-5.31-3.21-8.84-6.54-10.6-9.81S291.36,863.93,292.22,859.49Z"/><path class="c" d="M333.13,894.6l22.08-44.06a10.8,10.8,0,0,1,7.48-5.94c3.38-.8,7.15-.22,11.43,1.68,5.28,2.36,7.94,3.48,13.31,5.6,10.46,4.15,17.11,9,20.05,15.3s3.11,14.31.2,24.08a61.72,61.72,0,0,1-5.46,13.51,21.91,21.91,0,0,1-8,8c-3.36,1.95-7.58,2.77-12.6,2.37a64.67,64.67,0,0,1-18.25-4.75A166.13,166.13,0,0,1,333.13,894.6Zm49.67-6.55c1.24-3.35,1.87-5,3.11-8.39q2.07-5.6.74-8.84c-.88-2.17-3.14-3.94-6.8-5.42-1.48-.59-2.22-.89-3.69-1.51-1.19-.49-2-.27-2.39.67L362,892.29c.5.21,1.17.52,2,.94s1.6.77,2.28,1.08,1.34.59,2,.85c4.49,1.81,7.63,2.19,9.35,1.26S381.08,892.69,382.8,888.05Z"/><path class="c" d="M412.64,912.83c3.94-14.74,5.92-22.11,9.86-36.85,1-3.73,3-6.23,6-7.58s6.79-1.48,11.45-.46a287,287,0,0,0,33.64,5.67l-1.8,15.08c-10.42-1.23-15.63-2-25.95-4a2.6,2.6,0,0,0-1.53,0,1.44,1.44,0,0,0-.66,1.11c-.52,2.62-.79,3.94-1.31,6.56,10.21,2,15.36,2.85,25.67,4.15-.75,5.84-1.12,8.78-1.86,14.62-10.73-1.34-16.07-2.21-26.7-4.32-.56,2.81-.84,4.2-1.4,7a1.36,1.36,0,0,0,.21,1.28,3,3,0,0,0,1.53.63c11.24,2.17,16.9,3,28.25,4.38l-1.8,15.08a341.73,341.73,0,0,1-39.73-6.69c-5.49-1.21-9.45-3.25-11.85-6A9.91,9.91,0,0,1,412.64,912.83Z"/><path class="c" d="M518.86,938c-5-7.64-7.43-11.5-12-19.29-2.28-.16-4.07-.34-5.36-.5l-.65,19.59c-9.83-.32-14.75-.62-24.56-1.54l4.7-49.85a11,11,0,0,1,4.55-8.4c2.67-1.9,6.4-2.67,11.28-2.42,6,.3,9,.38,15,.43,9.36.06,16.11,1.66,20.47,5.24s6.88,8.8,7.36,15.77c.61,8.71-10.33,17.55-10.63,18.75-.14.53,3.92,5.31,7.62,10s6.75,8.39,9,11C535,937.62,529.62,937.86,518.86,938Zm-7.74-47.25c-2.71,0-4.07-.05-6.78-.12-1.27,0-1.93.45-2,1.47-.16,4.92-.25,7.37-.41,12.29,2.78.27,5.39.41,7.81.44,3,0,5-.45,6.06-1.42s1.51-2.61,1.49-4.9c0-.57,0-.86,0-1.44C517.29,892.83,515.22,890.77,511.12,890.73Z"/><path class="c" d="M586.12,931.66,577.9,886c-7.3,1.3-11,1.86-18.32,2.78-.79-6.2-1.18-9.3-2-15.51,23-2.9,34.47-5.32,56.82-12.08L619,876.16c-7.5,2.27-11.28,3.31-18.87,5.16,4.43,18,6.65,27,11.09,45C601.24,928.8,596.21,929.86,586.12,931.66Z"/><path class="c" d="M682.05,901.91l-10-21.9c-7.23,3.28-10.89,4.82-18.25,7.7,3.52,9,5.28,13.43,8.81,22.38-9.69,3.8-14.59,5.54-24.46,8.68-7.59-23.62-11.38-35.43-19-59.06,8.36-2.66,12.5-4.13,20.7-7.34,3.3,8.38,5,12.57,8.24,21,7.07-2.77,10.58-4.24,17.52-7.39-3.73-8.2-5.6-12.3-9.32-20.5,8-3.65,12-5.61,19.89-9.81,11.71,21.88,17.56,32.82,29.28,54.69C696.27,895.27,691.56,897.59,682.05,901.91Z"/><path class="c" d="M712.1,873c-7.68-13.2-11.52-19.8-19.19-33a10.7,10.7,0,0,1-1.06-9.66c1.22-3.11,3.88-5.93,8-8.59A282.13,282.13,0,0,0,728.6,801l9.48,11.86c-8.58,6.9-13,10.16-22,16.29a2.9,2.9,0,0,0-1.1,1.13,1.43,1.43,0,0,0,.32,1.26l3.73,5.55c8.92-6,13.29-9.21,21.83-16L750,832.75c-8.88,7-13.43,10.34-22.7,16.6l4,5.93a1.36,1.36,0,0,0,1.08.74,3.15,3.15,0,0,0,1.56-.68c9.77-6.67,14.56-10.22,23.9-17.73l9.49,11.86a332.77,332.77,0,0,1-33.94,24.47c-4.87,3.13-9.2,4.55-12.88,4.36A9.85,9.85,0,0,1,712.1,873Z"/><path class="c" d="M799.37,792.13a3.12,3.12,0,0,0-3.39-.92c-1.09.44-2.76,1.88-5.05,4.31-4.22,4.47-6.37,6.66-10.73,10.92-4.38-4.52-6.58-6.77-11-11.28,4-3.95,6-6,10-10.12a17.38,17.38,0,0,0,3.45-4.63,2.52,2.52,0,0,0-.83-3,3.2,3.2,0,0,0-3.77-.71c-1.3.62-3.74,2.88-7.4,6.65-2.76,2.84-6.32,6.86-10.81,11.91-4.9-4-7.34-6-12.19-10,5.66-7.08,10.41-12.87,14.51-17.21,7.45-7.89,13.75-13.16,19.36-15.45s11-1.58,16.12,2.44a12.54,12.54,0,0,1,5,7.94c.53,3.15-1.94,9.74-1.94,9.74s6.38-4.19,9.77-4.92a11.36,11.36,0,0,1,9.73,2.46c5.19,4,7.05,9.53,5.3,16.49s-7.11,15.78-16.38,25.61a139.9,139.9,0,0,1-21,18.26c-3.6-5.34-5.41-8-9.07-13.29a159.59,159.59,0,0,0,13.51-12.11c4.27-4.39,6.75-7.46,7.55-9A3.11,3.11,0,0,0,799.37,792.13Z"/></svg>