<svg xmlns="http://www.w3.org/2000/svg" xmlns:xlink="http://www.w3.org/1999/xlink" viewBox="0 0 1024 1024"><defs><style>.a{fill:#d69328;}.b{fill:url(#a);}.c{fill:url(#b);}.d{fill:url(#c);}.e{fill:url(#d);}.f{fill:url(#e);}.g{fill:url(#f);}.h{fill:url(#g);}.i{fill:url(#h);}.j{fill:url(#i);}.k{fill:url(#j);}.l{fill:url(#k);}.m{fill:url(#l);}.n{fill:url(#m);}.o{fill:url(#n);}.p{fill:url(#o);}.q{fill:url(#p);}.r{fill:url(#q);}.s{fill:url(#r);}.t{fill:url(#s);}.u{fill:url(#t);}.v{fill:url(#u);}.w{fill:url(#v);}.x{fill:url(#w);}.y{fill:url(#x);}.z{fill:url(#y);}.aa{fill:url(#z);}.ab{fill:url(#aa);}.ac{fill:url(#ab);}.ad{fill:url(#ac);}.ae{fill:url(#ad);}.af{fill:url(#ae);}.ag{fill:url(#af);}.ah{fill:url(#ag);}.ai{fill:url(#ah);}.aj{fill:url(#ai);}.ak{fill:url(#aj);}.al{fill:url(#ak);}.am{fill:url(#al);}.an{fill:url(#am);}.ao{fill:url(#an);}.ap{fill:url(#ao);}.aq{fill:url(#ap);}.ar{fill:url(#aq);}.as{fill:url(#ar);}.at{fill:url(#as);}.au{fill:url(#at);}.av{fill:url(#au);}.aw{fill:url(#av);}.ax{fill:url(#aw);}.ay{fill:url(#ax);}.az{fill:url(#ay);}.ba{fill:url(#az);}.bb{fill:url(#ba);}.bc{fill:url(#bb);}</style><linearGradient id="a" x1="130.84" y1="616.62" x2="130.84" y2="737.3" gradientUnits="userSpaceOnUse"><stop offset="0.05" stop-color="#b3d243"/><stop offset="0.54" stop-color="#94c849"/><stop offset="1" stop-color="#77a83d"/></linearGradient><linearGradient id="b" x1="132.6" y1="616.59" x2="132.6" y2="737.25" xlink:href="#a"/><linearGradient id="c" x1="191.09" y1="616.67" x2="191.09" y2="737.31" xlink:href="#a"/><linearGradient id="d" x1="201.73" y1="616.61" x2="201.73" y2="737.3" xlink:href="#a"/><linearGradient id="e" x1="256.04" y1="616.64" x2="256.04" y2="737.33" xlink:href="#a"/><linearGradient id="f" x1="276.07" y1="616.71" x2="276.07" y2="737.24" xlink:href="#a"/><linearGradient id="g" x1="352.97" y1="616.6" x2="352.97" y2="737.33" xlink:href="#a"/><linearGradient id="h" x1="330.91" y1="616.61" x2="330.91" y2="737.24" xlink:href="#a"/><linearGradient id="i" x1="369.42" y1="616.46" x2="369.42" y2="737.34" xlink:href="#a"/><linearGradient id="j" x1="420.39" y1="616.56" x2="420.39" y2="737.33" xlink:href="#a"/><linearGradient id="k" x1="596.45" y1="616.63" x2="596.45" y2="737.32" xlink:href="#a"/><linearGradient id="l" x1="642.31" y1="616.63" x2="642.31" y2="737.33" xlink:href="#a"/><linearGradient id="m" x1="644.05" y1="616.62" x2="644.05" y2="737.26" xlink:href="#a"/><linearGradient id="n" x1="702.57" y1="616.62" x2="702.57" y2="737.28" xlink:href="#a"/><linearGradient id="o" x1="713.18" y1="616.62" x2="713.18" y2="737.33" xlink:href="#a"/><linearGradient id="p" x1="513.81" y1="616.61" x2="513.81" y2="737.32" xlink:href="#a"/><linearGradient id="q" x1="793.43" y1="616.62" x2="793.43" y2="737.29" xlink:href="#a"/><linearGradient id="r" x1="801.72" y1="616.61" x2="801.72" y2="737.33" xlink:href="#a"/><linearGradient id="s" x1="908.72" y1="616.62" x2="908.72" y2="737.37" xlink:href="#a"/><linearGradient id="t" x1="866.78" y1="616.59" x2="866.78" y2="737.31" xlink:href="#a"/><linearGradient id="u" x1="399.13" y1="616.62" x2="399.13" y2="737.48" xlink:href="#a"/><linearGradient id="v" x1="84.85" y1="616.63" x2="84.85" y2="737.35" xlink:href="#a"/><linearGradient id="w" x1="744.69" y1="616.61" x2="744.69" y2="737.34" xlink:href="#a"/><linearGradient id="x" x1="175.27" y1="616.55" x2="175.27" y2="737.29" xlink:href="#a"/><linearGradient id="y" x1="682.09" y1="616.56" x2="682.09" y2="737.33" xlink:href="#a"/><linearGradient id="z" x1="785.43" y1="616.5" x2="785.43" y2="737.32" xlink:href="#a"/><linearGradient id="aa" x1="543.56" y1="616.56" x2="543.56" y2="737.33" xlink:href="#a"/><linearGradient id="ab" x1="945.72" y1="616.62" x2="945.72" y2="737.3" xlink:href="#a"/><linearGradient id="ac" x1="126.86" y1="384.25" x2="133.56" y2="538.39" xlink:href="#a"/><linearGradient id="ad" x1="123.75" y1="384.43" x2="130.45" y2="538.54" xlink:href="#a"/><linearGradient id="ae" x1="181.76" y1="381.86" x2="188.46" y2="536.08" xlink:href="#a"/><linearGradient id="af" x1="195.15" y1="381.28" x2="201.85" y2="535.57" xlink:href="#a"/><linearGradient id="ag" x1="228.15" y1="379.88" x2="234.86" y2="534.25" xlink:href="#a"/><linearGradient id="ah" x1="410.37" y1="372.03" x2="417.08" y2="526.14" xlink:href="#a"/><linearGradient id="ai" x1="585.34" y1="364.38" x2="592.05" y2="518.6" xlink:href="#a"/><linearGradient id="aj" x1="637.42" y1="362.14" x2="644.13" y2="516.34" xlink:href="#a"/><linearGradient id="ak" x1="634.3" y1="362.3" x2="641.01" y2="516.52" xlink:href="#a"/><linearGradient id="al" x1="692.24" y1="359.8" x2="698.94" y2="514" xlink:href="#a"/><linearGradient id="am" x1="705.61" y1="359.2" x2="712.31" y2="513.37" xlink:href="#a"/><linearGradient id="an" x1="505.55" y1="367.83" x2="512.26" y2="522.04" xlink:href="#a"/><linearGradient id="ao" x1="782.91" y1="355.83" x2="789.62" y2="510.15" xlink:href="#a"/><linearGradient id="ap" x1="794.19" y1="355.37" x2="800.9" y2="509.61" xlink:href="#a"/><linearGradient id="aq" x1="901.08" y1="350.74" x2="907.78" y2="504.95" xlink:href="#a"/><linearGradient id="ar" x1="856.05" y1="352.82" x2="862.75" y2="506.92" xlink:href="#a"/><linearGradient id="as" x1="264.16" y1="378.28" x2="270.87" y2="532.53" xlink:href="#a"/><linearGradient id="at" x1="373.12" y1="373.58" x2="379.82" y2="527.79" xlink:href="#a"/><linearGradient id="au" x1="316.94" y1="375.97" x2="323.65" y2="530.22" xlink:href="#a"/><linearGradient id="av" x1="316.52" y1="376.13" x2="323.22" y2="530.16" xlink:href="#a"/><linearGradient id="aw" x1="82.52" y1="386.12" x2="89.23" y2="540.48" xlink:href="#a"/><linearGradient id="ax" x1="485.65" y1="368.68" x2="492.35" y2="522.74" xlink:href="#a"/><linearGradient id="ay" x1="750.2" y1="356.85" x2="756.93" y2="511.52" xlink:href="#a"/><linearGradient id="az" x1="738.71" y1="357.79" x2="745.42" y2="512.06" xlink:href="#a"/><linearGradient id="ba" x1="845.69" y1="353.25" x2="852.39" y2="507.29" xlink:href="#a"/><linearGradient id="bb" x1="406.02" y1="372.24" x2="412.72" y2="526.23" xlink:href="#a"/></defs><polygon class="a" points="427.45 255.75 432.48 265.61 443.38 267.25 435.48 274.94 437.38 285.95 427.45 280.71 417.56 285.95 419.51 274.94 411.53 267.25 422.47 265.61 427.45 255.75"/><polygon class="a" points="467.96 255.75 472.9 265.61 483.92 267.25 475.98 274.94 477.85 285.95 467.96 280.71 458.02 285.95 460.01 274.94 452.06 267.25 463.01 265.61 467.96 255.75"/><polygon class="a" points="507.17 255.75 512.12 265.61 523.14 267.25 515.19 274.94 517.06 285.95 507.17 280.71 497.44 285.95 499.23 274.94 491.2 267.25 502.31 265.61 507.17 255.75"/><polygon class="a" points="547.67 255.75 552.58 265.61 563.68 267.25 555.69 274.94 557.56 285.95 547.67 280.71 537.86 285.95 539.73 274.94 531.74 267.25 542.81 265.61 547.67 255.75"/><polygon class="a" points="585.1 255.75 590 265.61 601.11 267.25 593.12 274.94 594.99 285.95 585.1 280.71 575.36 285.95 577.15 274.94 569.17 267.25 580.23 265.61 585.1 255.75"/><path class="a" d="M441.32,244.34H431.5V199h9.82v18.37h17.25V199h9.73v45.38h-9.73V225.08H441.32Z"/><path class="a" d="M498.45,244.34l-.74-2.42c-4.44,2.17-8.41,3.31-11.8,3.31s-5.84-.8-7.71-2.67c-2-1.68-3-4.4-3-8.1,0-7.7,5.29-11.61,15.58-11.61h5.91v-1.62c0-3.36-2.33-5-6.89-5a111.34,111.34,0,0,0-11.21.83l-.9-7.21a85,85,0,0,1,13.83-1.2c4.75,0,8.33.86,10.55,2.63s3.27,4.7,3.27,8.66v24.38Zm-1.8-8v-7.21h-4.9c-2.81,0-4.91.33-6.11,1s-1.72,2-1.72,3.75c0,2.95,1.44,4.44,4.48,4.44C490.12,238.31,492.84,237.67,496.65,236.34Z"/><path class="a" d="M526.18,237.19s.73-.1,2.26-.21l.66,7.36a43.77,43.77,0,0,1-6,.48c-4,0-6.5-.93-7.63-2.76s-1.79-4.87-1.79-9.08V194.81h8.72v38.07a5.55,5.55,0,0,0,.78,3.36C523.64,236.88,524.66,237.19,526.18,237.19Z"/><path class="a" d="M554.06,244.34l-.55-2.42c-4.63,2.17-8.49,3.31-11.87,3.31s-5.88-.8-7.87-2.67c-1.79-1.68-2.88-4.4-2.88-8.1,0-7.7,5.18-11.61,15.5-11.61h5.8v-1.62c0-3.36-2.22-5-6.7-5a109.19,109.19,0,0,0-11.21.83l-.94-7.21a83.28,83.28,0,0,1,13.75-1.2c4.75,0,8.41.86,10.55,2.63S561,216,561,220v24.38Zm-1.79-8v-7.21h-5c-2.68,0-4.71.33-5.84,1a4.07,4.07,0,0,0-1.87,3.75c0,2.95,1.56,4.44,4.6,4.44A28.84,28.84,0,0,0,552.27,236.34Z"/><path class="a" d="M581.79,237.19c.15,0,.85-.1,2.37-.21l.67,7.36a45.27,45.27,0,0,1-6.12.48c-3.85,0-6.42-.93-7.75-2.76s-1.79-4.87-1.79-9.08V194.81h9v38.07c0,1.64.23,2.8.74,3.36A3.68,3.68,0,0,0,581.79,237.19Z"/><path class="a" d="M137.94,828.34l-3-9.58h-16.7l-2.53,9.58h-9.43L116.64,793a13.54,13.54,0,0,1,3.51-5.87,9.88,9.88,0,0,1,6.31-1.82,9.62,9.62,0,0,1,6.23,1.82,14.19,14.19,0,0,1,3.58,6.08l11,35.14Zm-12.89-32.59-5,16.15h13.32l-4.83-16.15c-.47-1.81-1.13-2.7-1.68-2.7C126.1,793.05,125.4,793.94,125.05,795.75Z"/><path class="a" d="M171.12,820.21V795.27h8.3v33.07h-6.66a18,18,0,0,1-.59-2.35c-5.64,2.06-9.89,3-13,3-5.64,0-8.56-3.19-8.56-9.81V795.27h8.3v22.27c0,2.86,1.32,4.29,3.93,4.29A40.42,40.42,0,0,0,171.12,820.21Z"/><path class="a" d="M187.4,816.31V788.55h8.3v6.93h10.55v6.8H195.7v14c0,3.51,1.6,5.29,4.75,5.29,1.71,0,3.58-.17,5.57-.37l.74,6.9a65.87,65.87,0,0,1-8.77.75c-4,0-6.69-.93-8.29-2.8S187.4,820.84,187.4,816.31Z"/><path class="a" d="M219.72,803.38v25h-8.25v-46.8h8.25V797.3c5.19-1.87,9.2-2.88,12-2.88,5.76,0,8.53,3.32,8.53,9.89v24H232V806.13c0-3-1.4-4.39-4.05-4.39A40.45,40.45,0,0,0,219.72,803.38Z"/><path class="a" d="M273.62,821.1l.86,6.8a90.38,90.38,0,0,1-12,1c-5.8,0-9.73-1.18-11.91-3.55q-3.51-3.63-3.51-13.84,0-9.84,3.51-13.36c2.26-2.44,6.31-3.65,12.26-3.65,4.33,0,7.64,1,10,3s3.28,4.79,3.28,8.44a9.06,9.06,0,0,1-2.42,6.42c-1.59,1.78-4,2.72-7.4,2.72H255.79c0,2.61.66,4.44,1.91,5.43S260.93,822,264,822A81.49,81.49,0,0,0,273.62,821.1Zm-10.67-20c-3,0-4.9.6-5.88,1.64s-1.36,3.37-1.36,6.61h6.5c2.3,0,4-.25,4.91-.79a2.6,2.6,0,0,0,1.4-2.49,4.87,4.87,0,0,0-1.4-3.63A6.06,6.06,0,0,0,263,801.08Z"/><path class="a" d="M290.29,803.38v25H282V795.27h6.69c.08.34.39,1.18.67,2.3,5.41-2.09,9.81-3.15,12.93-3.15,5.64,0,8.52,3.32,8.52,9.89v24h-8.25V806.13c0-3-1.33-4.39-4-4.39A41.54,41.54,0,0,0,290.29,803.38Z"/><path class="a" d="M318.49,816.31V788.55h8.37v6.93h10.63v6.8H326.86v14c0,3.51,1.64,5.29,4.83,5.29a53.47,53.47,0,0,0,5.45-.37l.86,6.9a67.27,67.27,0,0,1-8.84.75c-3.9,0-6.66-.93-8.22-2.8S318.49,820.84,318.49,816.31Z"/><path class="a" d="M342.05,786.33c0-3.25,1.59-4.83,4.91-4.83s5,1.58,5,4.83-1.71,4.75-5,4.75S342.05,789.44,342.05,786.33Zm.7,42V795.17h8.45v33.17Z"/><path class="a" d="M377.41,808.79V805.2a2.85,2.85,0,0,0-1.05-2.63,5.14,5.14,0,0,0-3.23-.73c-2.61,0-4.37.73-5.15,2.12s-1.08,4.31-1.08,8.54V813c0,3.36.5,5.62,1.48,7s2.95,1.95,5.72,1.95a73.21,73.21,0,0,0,9.85-1.2l1.09,6.65a54,54,0,0,1-13,1.58c-5.45,0-9.22-1.26-11-3.75s-2.8-6.91-2.8-13.29a50.42,50.42,0,0,1,.55-7.8,13.5,13.5,0,0,1,2.14-5.28,8.39,8.39,0,0,1,4.4-3.21,24.54,24.54,0,0,1,7.4-.94c4.59,0,7.79.64,9.81,2s2.8,4.08,2.8,8v4.12Z"/><path class="a" d="M412.62,785a7.94,7.94,0,0,1,5.72,1.87,21.82,21.82,0,0,1,3.85,6.57c1.18,3.05,2.89,7.41,5,13.17s3.86,9.87,4.87,12.64c.42.89.7,1.33,1.24,1.33s.67-.48.59-1.47c-.39-8.25-.59-16.5-.59-24.4v-9h8.42v36.59a6.16,6.16,0,0,1-2.18,4.85,8.68,8.68,0,0,1-5.84,1.87c-2.65,0-4.6-.6-5.92-1.84s-2.46-3.49-3.71-6.66l-9.85-25.77c-.31-.83-.78-1.33-1.17-1.33s-.7.44-.7,1.25c.51,8.43.7,16.58.7,24.62v9.13h-8.52V791.66a6,6,0,0,1,2.22-4.83A8.54,8.54,0,0,1,412.62,785Z"/><path class="a" d="M470.56,820.21V795.27h8.3v33.07h-6.7a12,12,0,0,0-.62-2.35c-5.46,2.06-9.85,3-12.85,3-5.77,0-8.69-3.19-8.69-9.81V795.27h8.29v22.27c0,2.86,1.41,4.29,4,4.29A38.92,38.92,0,0,0,470.56,820.21Z"/><path class="a" d="M485.83,827.76l.78-6.53a86.66,86.66,0,0,0,10.24.8,12.79,12.79,0,0,0,4.95-.64,2.61,2.61,0,0,0,1.36-2.63,3,3,0,0,0-.93-2.45,8.51,8.51,0,0,0-3.59-1.24l-4.79-.85a11.71,11.71,0,0,1-6.5-2.92c-1.52-1.36-2.18-3.69-2.18-6.76,0-3.69,1-6.22,3.23-7.68s5.92-2.27,10.83-2.27a64.72,64.72,0,0,1,10.82,1.16l-.86,6.44c-4.7-.51-7.9-.8-9.5-.8a13.22,13.22,0,0,0-4.63.62,3,3,0,0,0-1.32,2.78,2.25,2.25,0,0,0,.89,2.15,8.56,8.56,0,0,0,3.39,1l4.59.83c3.28.6,5.65,1.62,7.17,3.11s2.14,3.79,2.14,6.82c0,3.6-1.05,6.26-3.38,7.84s-6,2.38-11.5,2.38A63.13,63.13,0,0,1,485.83,827.76Z"/><path class="a" d="M537,828.34l-.66-2.26c-4.17,2-7.9,3.11-11.1,3.11a10.31,10.31,0,0,1-7.28-2.47c-1.87-1.62-2.77-4.23-2.77-7.71q0-10.89,14.57-10.91h5.57v-1.61c0-3.11-2.19-4.65-6.43-4.65a91.35,91.35,0,0,0-10.63.73l-.78-6.82a81.81,81.81,0,0,1,12.81-1.08c4.64,0,8,.81,10.09,2.45s3.12,4.45,3.12,8.27v23Zm-1.67-7.63v-6.8h-4.71a12.16,12.16,0,0,0-5.58,1,3.74,3.74,0,0,0-1.71,3.49c0,2.8,1.44,4.23,4.29,4.23A26.43,26.43,0,0,0,535.33,820.71Z"/><path class="a" d="M559.78,803.38v25h-8.33V795.27h6.74c.11.34.31,1.18.58,2.3,5.49-2.09,9.86-3.15,12.93-3.15,5.76,0,8.65,3.32,8.65,9.89v24h-8.26V806.13c0-3-1.32-4.39-4.05-4.39A39.48,39.48,0,0,0,559.78,803.38Z"/><path class="a" d="M588,816.31V788.55h8.29v6.93H607v6.8H596.31v14c0,3.51,1.68,5.29,4.91,5.29,1.68,0,3.47-.17,5.45-.37l.78,6.9a66.19,66.19,0,0,1-8.88.75c-3.77,0-6.58-.93-8.22-2.8S588,820.84,588,816.31Z"/><path class="a" d="M631.68,828.34l-.67-2.26c-4.28,2-8.1,3.11-11.14,3.11a10.79,10.79,0,0,1-7.39-2.47c-1.84-1.62-2.73-4.23-2.73-7.71,0-7.26,5-10.91,14.56-10.91h5.57v-1.61c0-3.11-2.18-4.65-6.42-4.65a89.3,89.3,0,0,0-10.56.73l-.74-6.82A80.38,80.38,0,0,1,625,794.67c4.55,0,7.86.81,10,2.45s3.16,4.45,3.16,8.27v23Zm-1.8-7.63v-6.8h-4.63a12.27,12.27,0,0,0-5.61,1c-1.17.61-1.71,1.81-1.71,3.49,0,2.8,1.4,4.23,4.32,4.23C623.73,822.66,626.3,822,629.88,820.71Z"/><path class="a" d="M654.38,805.56v22.78h-8.3V795.27h7.17a48.7,48.7,0,0,1,.43,4.89c1.79-1.49,3.07-2.59,3.89-3.11a12.12,12.12,0,0,1,2.77-1.62,9,9,0,0,1,3.46-.76,19.82,19.82,0,0,1,3.39.37L666,804.16a32.7,32.7,0,0,0-4.08-.51A18.25,18.25,0,0,0,654.38,805.56Z"/><path class="a" d="M690.05,828.34l-.58-2.26c-4.25,2-8,3.11-11.14,3.11a10.79,10.79,0,0,1-7.44-2.47c-1.79-1.62-2.65-4.23-2.65-7.71q0-10.89,14.57-10.91h5.57v-1.61c0-3.11-2.22-4.65-6.39-4.65a90,90,0,0,0-10.67.73l-.82-6.82a83.4,83.4,0,0,1,13-1.08c4.52,0,7.83.81,10,2.45s3.11,4.45,3.11,8.27v23Zm-1.6-7.63v-6.8H683.7a11.8,11.8,0,0,0-5.56,1,3.7,3.7,0,0,0-1.8,3.49c0,2.8,1.37,4.23,4.33,4.23C682.3,822.66,684.79,822,688.45,820.71Z"/><path class="a" d="M741.5,801.68V796.9a3.69,3.69,0,0,0-1.4-3.2c-.9-.75-2.62-1.1-5.11-1.1-3.62,0-6,.89-7.08,2.67-1.33,1.82-1.79,4.89-1.79,9.18v4.88c0,4.58.46,7.69,1.79,9.43,1.12,1.78,3.58,2.63,7.35,2.63a75.92,75.92,0,0,0,12.86-1.33l1.28,7.26c-2,.44-4.67.81-7.9,1.25s-6,.52-8.22.52a22.37,22.37,0,0,1-8.18-1.29,10.23,10.23,0,0,1-5.1-4.19,19.36,19.36,0,0,1-2.53-6.86,51.7,51.7,0,0,1-.74-10,49.21,49.21,0,0,1,.74-9.94,18.29,18.29,0,0,1,2.61-6.76,10.72,10.72,0,0,1,5.37-4,29.82,29.82,0,0,1,9.08-1.18,32.48,32.48,0,0,1,7.9.73,10.14,10.14,0,0,1,4.83,2.38,9.28,9.28,0,0,1,2.14,3.78,22.4,22.4,0,0,1,.51,5.3v4.63Z"/><path class="a" d="M776,820.21V795.27h8.3v33.07h-6.7c-.28-1-.39-1.81-.58-2.35-5.65,2.06-9.9,3-13,3-5.65,0-8.57-3.19-8.57-9.81V795.27h8.29v22.27c0,2.86,1.29,4.29,4,4.29A39.25,39.25,0,0,0,776,820.21Z"/><path class="a" d="M791.73,786.33c0-3.25,1.6-4.83,4.91-4.83s5,1.58,5,4.83-1.68,4.75-5,4.75S791.73,789.44,791.73,786.33Zm.67,42V795.17h8.53v33.17Z"/><path class="a" d="M807.82,827.76l.78-6.53a88.93,88.93,0,0,0,10.28.8,13.89,13.89,0,0,0,5-.64c.9-.41,1.29-1.29,1.29-2.63a2.71,2.71,0,0,0-1-2.45,8.25,8.25,0,0,0-3.58-1.24l-4.67-.85c-3-.49-5.14-1.43-6.54-2.92-1.56-1.36-2.26-3.69-2.26-6.76,0-3.69,1.13-6.22,3.39-7.68s5.84-2.27,10.71-2.27A65.14,65.14,0,0,1,832,795.75l-.82,6.44c-4.63-.51-7.82-.8-9.42-.8a13.06,13.06,0,0,0-4.71.62,3.09,3.09,0,0,0-1.4,2.78,2.3,2.3,0,0,0,1,2.15,8.34,8.34,0,0,0,3.38,1l4.52.83c3.31.6,5.61,1.62,7.05,3.11s2.22,3.79,2.22,6.82c0,3.6-1,6.26-3.23,7.84s-6.16,2.38-11.61,2.38A65.31,65.31,0,0,1,807.82,827.76Z"/><path class="a" d="M839.05,786.33c0-3.25,1.52-4.83,4.91-4.83,3.15,0,4.87,1.58,4.87,4.83s-1.72,4.75-4.87,4.75C840.57,791.08,839.05,789.44,839.05,786.33Zm.59,42V795.17H848v33.17Z"/><path class="a" d="M864.6,803.38v25h-8.3V795.27h6.62a16,16,0,0,1,.67,2.3c5.45-2.09,9.89-3.15,13-3.15,5.65,0,8.57,3.32,8.57,9.89v24h-8.29V806.13c0-3-1.29-4.39-4.13-4.39A41.82,41.82,0,0,0,864.6,803.38Z"/><path class="a" d="M918.5,821.1l.7,6.8a86.44,86.44,0,0,1-11.8,1c-5.88,0-9.89-1.18-12.07-3.55s-3.31-7-3.31-13.84c0-6.56,1.05-11,3.42-13.36,2.18-2.44,6.35-3.65,12.27-3.65,4.32,0,7.63,1,10,3,2.18,1.94,3.31,4.79,3.31,8.44a9.24,9.24,0,0,1-2.42,6.42c-1.67,1.78-4.09,2.72-7.47,2.72H900.62c0,2.61.59,4.44,1.79,5.43s3.39,1.49,6.47,1.49A81.62,81.62,0,0,0,918.5,821.1Zm-10.71-20c-3,0-5,.6-5.84,1.64s-1.41,3.37-1.41,6.61h6.55a10.7,10.7,0,0,0,4.87-.79,2.55,2.55,0,0,0,1.4-2.49,4.44,4.44,0,0,0-1.52-3.63A5.49,5.49,0,0,0,907.79,801.08Z"/><path class="b" d="M112.86,530.78h36v53.71s-23.76,6.67-35.95,2Z"/><path class="c" d="M152.63,684.13S127.74,701,124,701c-3.46,0-10.48-15.9-11.18-34.15s0-69,0-69,32.56,0,36-3.78v73.25s.2,10.47,3.82,15.9"/><path class="d" d="M131.17,709.57s18.3-9.09,26.2-17.59c0,0,11.81,10.93,27.42,8.71,15.85-2.09,37.62-18,31.16-52.24,0,0,29.36-13.29,32-24,0,0,23,97-57.32,104.8C139.07,734.3,131.17,709.57,131.17,709.57Z"/><path class="e" d="M159.79,585.43v33.48s37.27-25.57,55.65,20c0,0,24.23-12.82,28.24-23.79C243.68,615.15,223.85,572.42,159.79,585.43Z"/><path class="f" d="M245.31,605.49s-1.36-21,13.75-31.07c0,0,6.74,12.83,0,24.56,0,0,4.56-.31,7.75,1.47C266.81,600.45,257.85,616.11,245.31,605.49Z"/><path class="g" d="M259.37,647.56s2.18,22.39-5,41.31L278,715.24s20.48-16.77,19.7-23.2Z"/><path class="h" d="M305.67,698.83,287,724.58s24.77,12.44,48.37,0L419,651.06s.74-11-17.21-19.61l-61,59.2S321,709.57,305.67,698.83Z"/><path class="i" d="M277.91,657.78l22.24,25.12s-3.86-10.18,3.81-14c0,0,40.35-17.09,49-2.62,0,0,27.5-27.11,31.59-28.75s1.28-57.91-57.21-54.53c-13.52.79-36.18,4.38-51.37,18.15l11,20.93s18-12.74,44-11.11,21.11,28,21.11,28S299.44,632.69,277.91,657.78Z"/><polygon class="j" points="352.99 718.36 352.99 724.76 385.86 725.74 385.86 692.17 352.99 718.36"/><polygon class="k" points="437.27 646.4 403.5 679.19 403.5 725.74 437.27 725.74 437.27 646.4"/><polygon class="l" points="579.14 643.6 579.14 725.74 613.76 725.74 613.76 680.79 579.14 643.6"/><path class="m" d="M624.39,531.87h35.83v53.78s-23.72,6.61-35.83,1.85Z"/><path class="n" d="M664,685.24s-24.85,16.82-28.31,16.82c-3.74,0-10.64-15.9-11.34-34.15s0-69,0-69,32.44,0,35.83-3.8v73.23s.35,10.45,3.82,15.94"/><path class="o" d="M642.58,710.64s18.38-9,26.21-17.52c0,0,11.8,10.91,27.61,8.69s37.58-18,31.08-52.24c0,0,29.48-13.39,32-24,0,0,23,97-57.37,104.82C650.76,735.38,642.58,710.64,642.58,710.64Z"/><path class="p" d="M671.2,586.54V620s37.31-25.66,55.77,20c0,0,24.14-12.79,28.19-23.76C755.16,616.29,735.34,573.48,671.2,586.54Z"/><path class="q" d="M618.36,665.82v-42l-13.21-17.67s-15.84-21.72-51.25-21.41c0,0-32-.71-39.14,19.24,0,0-10.47-21-38.7-21.19-28.43-.23-68.16,44.35-68.16,44.35s13.9,11,16.44,18.63c0,0,32.36-36.46,58.53-28.61,0,0,16.16.31,14.64,49.63v58.93h32.72V637.88s-4.79-24,25.07-21.77c21,1.51,49.5,40.34,64.42,63C618.75,671.56,618.36,665.82,618.36,665.82Z"/><path class="r" d="M770.47,630.16a27.24,27.24,0,0,1,.43,2.88c.93,8.74,3.19,34.6-4.71,45.26l34.54,33.63s20.49-3.36,19.94-21.42Z"/><polygon class="s" points="816.42 671.05 816.42 584.05 787.02 584.05 787.02 640.05 816.42 671.05"/><path class="t" d="M925.74,643.6V582.81h-34V643.6Z"/><path class="u" d="M891.7,654.26S896,703.14,829,696c0,0-8.29,18.17-21.14,19.26,0,0,11.06,15.74,53.78,10.37,42.22-5.33,63.71-40.82,64.14-71.35Z"/><path class="v" d="M393.14,614.92s-11.49-14.66-11-26.82c0,0,8.53,3.81,12.89,7,0,0-.12-12.54,3.39-15.42,0,0,4.6,5.16,5.06,15.42,0,0,4.48-8.8,12.62-5.88C416.12,589.24,409.19,625.54,393.14,614.92Z"/><path class="w" d="M95.61,591.25s-18.65.35-28.16-7.38c0,0,8.18-4.54,13.36-6,0,0-10-7.46-10.32-11.85,0,0,6.74-.63,15.42,5.1,0,0-4.47-8.85,2.85-13.54C88.76,557.54,113.84,584.86,95.61,591.25Z"/><path class="x" d="M729.27,581.79s-3.82-18.16,2.1-28.83c0,0,6.11,7.19,8.53,11.94,0,0,5.45-11.24,9.7-12.3,0,0,1.79,6.58-2.18,16.11,0,0,7.94-6,13.9.29C761.32,569,738.92,598.38,729.27,581.79Z"/><path class="y" d="M164.54,684.13s-1.52-21.07,13.67-31.06c0,0,6.78,12.94,0,24.65,0,0,4.64-.39,7.83,1.39C186,679.11,177.16,694.8,164.54,684.13Z"/><path class="z" d="M671.32,677.47s-1.4-21,13.55-31.06c0,0,6.9,12.84,0,24.64,0,0,4.68-.34,8,1.44C692.89,672.49,683.78,688.13,671.32,677.47Z"/><path class="aa" d="M796.45,722.29s-4.33,20.65-21.46,26.33c0,0-3.16-14.22,6.58-23.76,0,0-4.55-.89-7.17-3.5C774.4,721.36,787.1,708.69,796.45,722.29Z"/><path class="ab" d="M532.87,677.47s-1.55-21,13.64-31.06c0,0,6.81,12.84,0,24.64,0,0,4.55-.34,7.78,1.44C554.29,672.49,545.41,688.13,532.87,677.47Z"/><path class="ac" d="M934.93,593.38s-1.52-21,13.59-31c0,0,6.74,12.85,0,24.61a16.86,16.86,0,0,1,8,1.47S947.39,604.1,934.93,593.38Z"/><path class="ad" d="M106.75,306.79h35.91V360.5s-23.8,6.66-35.91,1.89Z"/><path class="ae" d="M146.47,460.08S121.62,477,118,477,107.49,461,106.75,442.71s0-68.88,0-68.88,32.56,0,35.91-3.79v73.12s.23,10.51,3.81,15.94"/><path class="af" d="M125.05,485.52s18.38-9.06,26.29-17.58c0,0,11.61,10.84,27.49,8.8s37.55-18.09,31-52.24c0,0,29.45-13.39,32-24.11,0,0,23,97-57.37,104.86C133.15,510.31,125.05,485.52,125.05,485.52Z"/><path class="ag" d="M153.71,361.39V395s37.31-25.67,55.7,20c0,0,24.22-12.89,28.19-23.75C237.6,391.17,217.74,348.37,153.71,361.39Z"/><path class="ah" d="M216.06,352s-1.36-21.08,13.64-31.11c0,0,6.81,12.89,0,24.69,0,0,4.71-.34,7.9,1.43C237.6,347,228.6,362.62,216.06,352Z"/><polygon class="ai" points="431.15 422.41 396.84 451.33 397.42 501.65 431.15 501.65 431.15 422.41"/><polygon class="aj" points="573.07 419.51 573.07 501.65 607.61 501.65 607.61 456.74 573.07 419.51"/><path class="ak" d="M618.36,307.82h35.82v53.74s-23.79,6.65-35.82,1.85Z"/><path class="al" d="M658,461.13s-24.88,16.94-28.46,16.94-10.56-16-11.14-34.21c-.82-18.34,0-69,0-69s32.48,0,35.82-3.81v73.28s.2,10.41,3.78,15.9"/><path class="am" d="M636.5,486.68s18.35-9.12,26.37-17.62c0,0,11.68,10.92,27.38,8.74,15.89-2.13,37.54-18.12,31.07-52.28,0,0,29.41-13.33,32.09-24,0,0,23,97.06-57.36,104.86C644.56,511.33,636.5,486.68,636.5,486.68Z"/><path class="an" d="M665.13,362.53v33.53s37.35-25.67,55.8,19.94c0,0,24.15-12.83,28.2-23.8C749.13,392.2,729.27,349.48,665.13,362.53Z"/><path class="ao" d="M612.28,441.77v-42L599.08,382s-15.89-21.74-51.41-21.33c0,0-31.78-.75-39,19.24,0,0-10.32-20.92-38.67-21.19s-68.23,44.41-68.23,44.41,13.94,11,16.59,18.49c0,0,32.13-36.34,58.42-28.52,0,0,16.08.39,14.72,49.57v58.94H524V413.84s-4.55-24,25.16-21.78c21,1.53,49.46,40.34,64.46,63C612.71,447.51,612.28,441.77,612.28,441.77Z"/><path class="ap" d="M764.4,406.11s.19,1.1.39,2.88c1,8.75,3.19,34.56-4.64,45.28l34.39,33.67s20.56-3.36,20.21-21.43Z"/><polygon class="aq" points="810.31 447 810.31 360.01 780.91 360.01 780.91 416 810.31 447"/><path class="ar" d="M919.74,419.51V358.76h-34v60.75Z"/><path class="as" d="M885.75,430.27s4.16,48.82-62.9,41.67c0,0-8.1,18.22-21.11,19.3,0,0,11,15.71,53.82,10.32,42.14-5.28,63.64-40.88,64.18-71.29Z"/><rect class="at" x="249.75" y="365.83" width="30.57" height="65.24"/><rect class="au" x="358.91" y="365.34" width="30.53" height="65.22"/><path class="av" d="M358.76,436.78l.15,2.42c0,.21,1,18-9.42,29.73-5.26,5.85-12.62,9.23-21.81,10.12l-.08-.31-2,.31a4.12,4.12,0,0,1-.66,0l-.47.09a65.68,65.68,0,0,1-10.86-.67l-1.91-.21-.43,1.2c-9.15-.89-16.43-4.31-21.69-10.23-10.32-11.64-9.31-29.43-9.31-29.57l.16-2.41H249.75l.16,2.26c.42,32.43,17.91,68.13,50.86,73.56a88.08,88.08,0,0,0,13.08,1.08,59,59,0,0,0,8.38-.58,79.28,79.28,0,0,0,16.35-1c32.83-5.45,50.44-41.07,50.86-73.5v-2.29Z"/><path class="aw" d="M313.66,473.76s-11.37-14.66-11-26.76c0,0,8.69,3.79,13,7,0,0-.19-12.48,3.27-15.34,0,0,4.48,5,5.11,15.34,0,0,4.48-8.77,12.66-5.87C336.68,448.09,329.78,484.33,313.66,473.76Z"/><path class="ax" d="M95.61,448s-18.65.35-28.16-7.36c0,0,8.18-4.54,13.36-6.09,0,0-10-7.39-10.32-11.84,0,0,6.74-.64,15.42,5.08,0,0-4.47-8.82,2.85-13.52C88.76,414.22,113.84,441.48,95.61,448Z"/><path class="ay" d="M473.48,348.6s-8.68-16.48-6-28.34c0,0,7.9,5.29,11.56,9.19,0,0,2.15-12.3,6-14.49,0,0,3.58,5.74,2.3,16.08,0,0,5.92-7.9,13.36-3.56C500.71,327.48,487.35,361.83,473.48,348.6Z"/><path class="az" d="M741.69,492.46s20.92-3.55,32.52,10.33c0,0-12.27,8.1-24.69,2.55,0,0,.82,4.56-.66,8C748.86,513.3,732.27,506.06,741.69,492.46Z"/><path class="ba" d="M728.18,364.36s-1.48-21.09,13.59-31.06c0,0,6.78,12.88,0,24.65,0,0,4.67-.39,7.83,1.37C749.6,359.32,740.64,375,728.18,364.36Z"/><path class="bb" d="M839.17,453.42s-1.44-21,13.67-31c0,0,6.85,12.79,0,24.59,0,0,4.71-.34,7.86,1.43C860.7,448.43,851.71,464.08,839.17,453.42Z"/><polyline class="bc" points="418.34 421.65 397.42 436.78 397.42 406.11 411.64 393.14 418.34 393.14"/></svg>