<svg xmlns="http://www.w3.org/2000/svg" xmlns:xlink="http://www.w3.org/1999/xlink" viewBox="0 0 1024 1024"><defs><style>.a{fill:url(#a);}.b{fill:url(#b);}.c{fill:#191818;}</style><linearGradient id="a" x1="504.6" y1="360.89" x2="511.86" y2="437.06" gradientUnits="userSpaceOnUse"><stop offset="0" stop-color="#f4803e"/><stop offset="0.34" stop-color="#c46e38"/><stop offset="0.68" stop-color="#936138"/><stop offset="1" stop-color="#754c28"/></linearGradient><linearGradient id="b" x1="512" y1="725.17" x2="512" y2="591.09" xlink:href="#a"/></defs><path class="a" d="M244,425.62H776.78a3.76,3.76,0,1,0,0-7.52H747.91a24,24,0,0,0,8.23-13.19c3.05-12.17-2.71-27.81-19.44-32.85-15.72-4.77-27.56,4.66-41.09,15.56s-28.91,23.18-53.25,26.79c-20.67,3.07-37.88-5.66-45.81-23.35-7.28-15.94-4.24-33.91,7.44-43.72a33,33,0,0,1,26.53-7.81,34.26,34.26,0,0,1,23.38,14.6c9.59,14.87.3,28.79,0,29.42a3.57,3.57,0,0,0,1,5.2,3.87,3.87,0,0,0,5.26-.92c.5-.75,12.5-18.57,0-37.79a41.45,41.45,0,0,0-28.58-17.9,40.31,40.31,0,0,0-32.41,9.47c-14.26,12-18.1,33.57-9.53,52.56a49.33,49.33,0,0,0,24,23.93H538.89a63.74,63.74,0,1,0-53.78,0H410.39a48.92,48.92,0,0,0,24-23.93c8.67-19,4.73-40.6-9.43-52.56a40.52,40.52,0,0,0-32.51-9.47A41.85,41.85,0,0,0,363.88,350c-12.51,19.22-.33,37,0,37.79a3.87,3.87,0,0,0,5.26.92,3.81,3.81,0,0,0,1.05-5.2c-.22-.18-9.85-14.37,0-29.42a33.84,33.84,0,0,1,23.29-14.6A33.46,33.46,0,0,1,420,347.34c11.68,9.81,14.72,27.78,7.44,43.72-7.93,17.69-25.13,26.42-45.81,23.35-24.34-3.61-39.73-16-53.25-26.79S303,367.29,287.3,372.06c-16.7,5-22.49,20.68-19.45,32.85a24.42,24.42,0,0,0,8.34,13.19H244a3.76,3.76,0,1,0,0,7.52Zm211.7-65a56.3,56.3,0,1,1,60.07,55.8v-14.6c14.65-2.41,25.87-20.68,25.87-43.55,0-24.58-12.9-43.83-29.15-43.83s-29.23,19.25-29.23,43.83c0,22.46,10.64,40.41,24.9,43.4v14.75A56,56,0,0,1,455.7,360.58Zm56.79,34c-11.77,0-21.63-16.69-21.63-36.35s9.86-36.33,21.63-36.33S534,338.51,534,358.23,524.17,394.58,512.49,394.58Zm187.85-1.17c12.87-10.35,22.33-17.79,34.17-14.19,12.34,3.77,16.57,14.86,14.36,23.84-2,7.74-9.46,15.77-24.51,12.91a14.16,14.16,0,0,1-9.46-7.43,10,10,0,0,1,.49-9.73,3.45,3.45,0,0,0-1.35-5.07,3.7,3.7,0,0,0-5.06,1.43,17.67,17.67,0,0,0-.9,16.57,20,20,0,0,0,5,6.36H658.93C676.86,412.23,689.69,402,700.34,393.41ZM315,395.17a3.75,3.75,0,0,0-6.55,3.64,10.61,10.61,0,0,1,.63,9.73,14.53,14.53,0,0,1-9.46,7.43c-15.05,2.86-22.66-5.17-24.48-12.91-2.25-9,2-20.07,14.32-23.84,11.85-3.6,21.31,3.84,34.18,14.19,10.64,8.6,23.65,18.82,41.41,24.69H311a23.61,23.61,0,0,0,4.89-6.36A17.64,17.64,0,0,0,315,395.17Z"/><path class="b" d="M917.79,598.38H106.2a3.75,3.75,0,0,0,0,7.5h170a24.27,24.27,0,0,0-8.34,13.26c-3,12.12,2.75,27.71,19.45,32.75,15.72,4.77,27.56-4.61,41.09-15.53s28.91-23.23,53.25-26.77c20.68-3.11,37.88,5.64,45.81,23.31,7.28,16,4.24,34-7.44,43.81a33.43,33.43,0,0,1-26.53,7.72c-9.43-1.43-18.26-6.83-23.29-14.56-9.69-14.87-.39-28.8,0-29.47a3.81,3.81,0,0,0-1.05-5.2,3.88,3.88,0,0,0-5.26.92c-.33.75-12.51,18.65,0,37.82a42,42,0,0,0,28.58,17.88,31.47,31.47,0,0,0,5.92.46A40.81,40.81,0,0,0,425,682.37c14.16-12,18.1-33.55,9.43-52.53a49.59,49.59,0,0,0-23.68-24h74.22A63.53,63.53,0,0,0,512,727c35.33,0,63.91-28.55,63.91-63.54a63.58,63.58,0,0,0-37-57.57h74.39a49,49,0,0,0-23.68,24c-8.57,19-4.73,40.55,9.53,52.53a40.74,40.74,0,0,0,26.49,9.91,30.84,30.84,0,0,0,5.92-.46,41.46,41.46,0,0,0,28.58-17.88c12.5-19.17.5-37.07,0-37.82a3.88,3.88,0,0,0-5.26-.92,3.54,3.54,0,0,0-1,5.17c.3.7,9.59,14.63,0,29.47a34.56,34.56,0,0,1-23.38,14.59A33.25,33.25,0,0,1,604,676.71c-11.68-9.86-14.72-27.81-7.44-43.81,7.93-17.67,25.14-26.42,45.81-23.31,24.34,3.54,39.73,16,53.25,26.77s25.37,20.3,41.09,15.53c16.73-5,22.49-20.63,19.44-32.75a23.86,23.86,0,0,0-8.23-13.26H917.79a3.75,3.75,0,0,0,0-7.5ZM323.66,630.59c-12.87,10.3-22.33,17.74-34.18,14.23-12.33-3.84-16.57-14.9-14.32-23.93,1.82-7.71,9.43-15.72,24.48-12.81a14.29,14.29,0,0,1,9.46,7.32,10.7,10.7,0,0,1-.63,9.78,3.74,3.74,0,1,0,6.55,3.6,17.59,17.59,0,0,0,.89-16.55,27.75,27.75,0,0,0-4.72-6.35h53.55C347.14,611.77,334.3,622,323.66,630.59ZM568.3,663.45a56.3,56.3,0,1,1-60.14-55.88V621c-8.8,1.51-17.3,8.23-17.3,12v63.76a3.73,3.73,0,0,0,7.45,0V659.06h9.85v37.67a3.77,3.77,0,0,0,3.84,3.71,3.65,3.65,0,0,0,3.77-3.71V659.06h9.92v37.67a3.72,3.72,0,0,0,7.44,0V633c0-3.72-8.5-10.44-17.36-12V607.57C545,609.54,568.3,633.81,568.3,663.45ZM512,628.11c6.42,0,12,4.42,13.69,6.07v17.36H498.31V634.18C500,632.53,505.45,628.11,512,628.11Zm236.87-7.22c2.21,9-2,20.09-14.36,23.93-11.84,3.51-21.3-3.93-34.17-14.23-10.65-8.6-23.48-18.82-41.24-24.71h53.81a19.65,19.65,0,0,0-4.83,6.35,17.61,17.61,0,0,0,.9,16.55,3.71,3.71,0,0,0,5.06,1.51,3.5,3.5,0,0,0,1.35-5.11,10.59,10.59,0,0,1-.49-9.78,13.92,13.92,0,0,1,9.46-7.32C739.41,605.17,746.85,613.18,748.87,620.89Z"/><path class="c" d="M216,490.32l-32-43.11H164.88v8.18H176.1v79.49h8.4v-73c.72,1,1.35,2,2.25,3.08,2.31,3.25,5.69,7.89,9.92,13.77,4.4,5.86,10.19,13.64,17.3,23.2l1.69,2.2,1.52-2.2c6.88-9.24,12.63-17.08,17-23.08,4.57-5.86,7.94-10.49,10.36-13.74.79-1.16,1.52-2.18,2.15-3.12v72.92h8.5V447.21h-7.78Z"/><path class="c" d="M285.94,447.21v8.18h9L261.6,534.88h9.13l12.5-29.76h36.69l12.57,29.76h9.42L304.7,447.21Zm8.11,31.84,5.43-13.48c.82-2,1.52-3.61,2-4.94l2.09,5.43c1.52,3.37,3.37,7.86,5.52,13.39,2.09,4.83,4.24,10.73,7.11,17.58H286.84C289.65,489.94,292,484,294.05,479.05Z"/><path class="c" d="M394.14,498a25.79,25.79,0,0,0-3.53-3.84,11.61,11.61,0,0,0-1.2-1.22c.57-.26,1.2-.47,1.69-.75a25.7,25.7,0,0,0,5.92-3.61,26.8,26.8,0,0,0,5.76-7.25A22.44,22.44,0,0,0,405,471.23a24.8,24.8,0,0,0-4.24-14.67A21.73,21.73,0,0,0,388.92,448a38.28,38.28,0,0,0-8.31-1.14c-3-.11-6.25-.14-9.29-.14h0l-33.48.49v8.14h11v79.49h8.47V495.42h13.36a25,25,0,0,1,6.41.76,15.53,15.53,0,0,1,5.46,2.87,28.08,28.08,0,0,1,4.86,4.82,62.69,62.69,0,0,1,5.23,7.12l15.61,23.89h10.49l-21.37-32.49A49,49,0,0,0,394.14,498ZM357.3,455.35c1.52-.05,3-.05,4.56-.08,1.69-.15,3.37-.15,5.06-.26h8.47c1.36,0,2.88,0,4.27.11a37.89,37.89,0,0,1,3.83.34,15.25,15.25,0,0,1,2.88.68,14.57,14.57,0,0,1,7.11,5.45,16.14,16.14,0,0,1,2.75,9.56,15,15,0,0,1-2.42,8.57,16.79,16.79,0,0,1-5.92,5.1,20.76,20.76,0,0,1-6.58,1.69c-2.55.23-5,.41-7.44.41H357.3Z"/><path class="c" d="M505.75,493.8h37.87v-8.26H505.75V455.39h40v-8.18H482.23l-.5,1.25c-3.83,9.16-7.27,17.11-10.15,23.87s-5.39,12.75-7.38,17.85-3.93,9.31-5.46,12.79l-3.67,9.12c-1.05,2.49-2.08,4.73-2.71,6.56,0,.14-.16.31-.16.43a1.56,1.56,0,0,0-.4-.81c-.83-1.83-1.69-4.1-2.65-6.7s-2.41-5.78-3.93-9.29-3.38-7.76-5.59-12.75c-2-5-4.57-10.83-7.22-17.57-2.87-6.76-6.08-14.57-9.85-23.5l-.47-1.25H410.88v8.18h5l33.31,79.49h5.69l33.31-79.49h9.13v79.49H548v-8.07H505.75Z"/><polygon class="c" points="569.03 447.21 549.54 447.21 549.54 455.39 560.69 455.39 560.69 534.88 612.42 534.88 612.42 526.81 569.03 526.81 569.03 447.21"/><path class="c" d="M683.77,457.62a39.26,39.26,0,0,0-14-8.86,46.83,46.83,0,0,0-33.64.13,41.82,41.82,0,0,0-14.16,9,45.33,45.33,0,0,0-9.69,14.29,48.15,48.15,0,0,0-3.54,18.69,48.74,48.74,0,0,0,2.74,16.71,42.62,42.62,0,0,0,8.07,14.53,41.07,41.07,0,0,0,13.53,10.37,44.49,44.49,0,0,0,19.16,3.89,44,44,0,0,0,19-4,43.52,43.52,0,0,0,14-10.4,42.38,42.38,0,0,0,8.5-14.58A50.87,50.87,0,0,0,696.64,491a53.36,53.36,0,0,0-3.34-19.17A42,42,0,0,0,683.77,457.62ZM652.68,454a36.41,36.41,0,0,1,13.53,2.56,31,31,0,0,1,11.14,7.33,35.69,35.69,0,0,1,7.78,11.59,44.57,44.57,0,0,1,0,30.61,38.43,38.43,0,0,1-7.45,11.78,31,31,0,0,1-11.14,7.62,35.15,35.15,0,0,1-13.86,2.72,35.75,35.75,0,0,1-14.39-2.76A34.26,34.26,0,0,1,620,505.91a39.71,39.71,0,0,1-2.65-15A40.49,40.49,0,0,1,620,475.6a33,33,0,0,1,7.28-11.68,33.64,33.64,0,0,1,11.11-7.36A38.77,38.77,0,0,1,652.68,454Z"/><path class="c" d="M773.05,498.16c0,1.85,0,4-.17,6.2s-.49,4.24-.79,6a23.21,23.21,0,0,1-9,12.86c-4.53,3.32-10.49,4.94-17.76,4.94-7.78,0-14-1.82-18.59-5.36a22.24,22.24,0,0,1-8.63-14.56,19.28,19.28,0,0,1-.5-4.72c-.13-1.84-.13-3.58-.13-5.24V447.21H698v8.18h10.82v42.9c0,2,0,4,.17,6.07a48.74,48.74,0,0,0,.89,6.22,33.78,33.78,0,0,0,4,10,31,31,0,0,0,7.44,8.35A35.2,35.2,0,0,0,732,534.44a41.52,41.52,0,0,0,13.36,1.95A40.51,40.51,0,0,0,758,534.55a33.86,33.86,0,0,0,10.15-4.95,31.55,31.55,0,0,0,7.44-7.55,30.36,30.36,0,0,0,4.73-9.55,47.9,47.9,0,0,0,1-7.3c.17-2.35.17-4.7.17-6.91V447.21h-8.47Z"/><path class="c" d="M849.82,502.21a24.7,24.7,0,0,0-4.57-6.69,28.56,28.56,0,0,0-6.81-4.86,83,83,0,0,0-8.4-3.77L822.43,484c-2.54-.93-4.86-1.89-7.11-2.87A30.65,30.65,0,0,1,809.7,478a15.2,15.2,0,0,1-3.34-4.11,14.43,14.43,0,0,1,0-12.23,10.71,10.71,0,0,1,3.73-4.26,15.65,15.65,0,0,1,5.69-2.46,34.83,34.83,0,0,1,7.88-.89,33.93,33.93,0,0,1,9.59,1.13,37.9,37.9,0,0,1,6.42,2.18v13h8.17V451.74l-1.06-.54c-2.25-1.05-5.29-2.23-9-3.5a47.61,47.61,0,0,0-14.58-2c-8.07,0-14.66,2-19.35,5.91a19.92,19.92,0,0,0-7.48,16.14,22.58,22.58,0,0,0,1.69,9.49A20.79,20.79,0,0,0,803,483.8a30,30,0,0,0,7.45,4.55c2.58,1.21,5.62,2.48,8.8,3.67l6.25,2.41c6.08,2.44,10.65,4.86,13.39,7.32a11.75,11.75,0,0,1,3.84,9.11,17.88,17.88,0,0,1-1.69,7.79,13.5,13.5,0,0,1-4.23,5.25,18.71,18.71,0,0,1-6.42,3.06,35.47,35.47,0,0,1-8.24,1,40.31,40.31,0,0,1-15.48-2.64,55.31,55.31,0,0,1-10.38-5.76L793,517.11v10.68l.89.64a74.67,74.67,0,0,0,11,5.2,46.3,46.3,0,0,0,16.41,2.65A43.22,43.22,0,0,0,831.56,535a31.37,31.37,0,0,0,9.63-4.15,23,23,0,0,0,7.28-7.81A23.34,23.34,0,0,0,851.34,511,22.81,22.81,0,0,0,849.82,502.21Z"/><path class="c" d="M204.11,574.61l-5.75-21.9h3l2.71,11.07c.66,2.77,1.36,5.43,1.69,7.59H206c.34-2.23,1-4.77,1.69-7.59l3-11.07h3.05l2.71,11.11a60.08,60.08,0,0,1,1.52,7.47h.17c.4-2.38,1-4.82,1.68-7.51l3.05-11.07h2.88l-6.26,21.9h-3l-2.88-11.32c-.63-2.86-1.12-5-1.52-7.17h0a43.52,43.52,0,0,1-1.68,7.08l-3.22,11.41Z"/><path class="c" d="M240.3,564.33h-8.8v7.9h9.86v2.38H228.62v-21.9H240.8v2.35h-9.3v7h8.8Z"/><path class="c" d="M244.73,571.18a9.56,9.56,0,0,0,5,1.36c3,0,4.73-1.51,4.73-3.68s-1.19-3.2-4.24-4.33c-3.7-1.24-5.85-3.16-5.85-6.15,0-3.43,2.81-6,7.21-6a10.3,10.3,0,0,1,5,1.08l-.9,2.27a8.49,8.49,0,0,0-4.23-1.06c-3,0-4.24,1.86-4.24,3.32,0,2,1.52,3.07,4.57,4.23,3.73,1.48,5.75,3.18,5.75,6.42s-2.71,6.3-7.93,6.3a12.3,12.3,0,0,1-5.76-1.39Z"/><path class="c" d="M265.7,555.14h-6.81v-2.43h16.57v2.43h-6.71v19.47H265.7Z"/><path class="c" d="M289.65,564.33h-8.73v7.9h9.76v2.38H278v-21.9h12.17v2.35h-9.29v7h8.73Z"/><path class="c" d="M294.45,553.06a31.73,31.73,0,0,1,5.52-.47c3,0,5.13.59,6.65,1.8a6,6,0,0,1,1.69,4.18,5.7,5.7,0,0,1-4.27,5.52v.06c1.69.64,2.74,2.2,3.37,4.42.73,3.07,1.19,5.2,1.69,6h-3c-.5-.6-1-2.57-1.52-5.29-.63-3-1.85-4.1-4.57-4.23h-2.71v9.52h-2.81Zm2.81,9.93h3c3,0,5-1.62,5-4.12,0-2.85-2.08-4.07-5.12-4.07a18.61,18.61,0,0,0-2.88.23Z"/><path class="c" d="M312.31,574.61v-21.9h3.27l7.05,11.07a55.22,55.22,0,0,1,4.07,7.1h.17a85.61,85.61,0,0,1-.3-9v-9.18h2.71v21.9H326.4l-7.31-11.08A58.72,58.72,0,0,1,315,556.2l-.16.08c.16,2.72.16,5.31.16,8.94v9.39Z"/><path class="c" d="M360.17,565c0-3-.29-6.71-.29-9.4h0c-.9,2.56-1.69,5.28-2.88,8.35l-3.94,10.58h-2.15l-3.77-10.4c-1-3.15-1.85-5.89-2.48-8.53h0c-.17,2.72-.17,6.33-.56,9.66l-.5,9.39h-2.88l1.53-21.9H346l3.83,10.62c.9,2.65,1.69,5,2.25,7.32h.17a63.48,63.48,0,0,1,2.31-7.32l4.07-10.62h3.54l1.36,21.9h-2.72Z"/><path class="c" d="M379.79,564.33H371v7.9h9.86v2.38H368.11v-21.9h12.18v2.35H371v7h8.8Z"/><path class="c" d="M384.52,553.06a44.39,44.39,0,0,1,6.25-.47c4.07,0,7.11.88,9,2.64a10.17,10.17,0,0,1,3.21,7.87,11.79,11.79,0,0,1-3.21,8.54c-2.14,2-5.59,3.16-10,3.16-2,0-3.7-.08-5.22-.23Zm2.87,19.33a25.09,25.09,0,0,0,3.05.11c6.09,0,9.46-3.36,9.46-9.21,0-5.24-2.88-8.49-9.13-8.49a25.17,25.17,0,0,0-3.38.26Z"/><path class="c" d="M409.76,552.71v21.9h-3.05v-21.9Z"/><path class="c" d="M419.05,555.14h-7v-2.43h16.57v2.43h-6.71v19.47h-2.88Z"/><path class="c" d="M442.83,564.33H434.1v7.9h9.76v2.38H431.22v-21.9h12.14v2.35H434.1v7h8.73Z"/><path class="c" d="M447.63,553.06a35.63,35.63,0,0,1,5.52-.47c3.21,0,5.3.59,6.65,1.8a5.31,5.31,0,0,1,1.69,4.18,5.7,5.7,0,0,1-4.27,5.52v.06c1.86.64,2.75,2.2,3.38,4.42a32.49,32.49,0,0,0,1.68,6h-3a46,46,0,0,1-1.52-5.29c-.5-3-1.85-4.1-4.4-4.23h-2.65v9.52h-3Zm3,9.93h2.88c3,0,5-1.62,5-4.12,0-2.85-2-4.07-5-4.07a14.22,14.22,0,0,0-2.88.23Z"/><path class="c" d="M465.49,553.06a35.18,35.18,0,0,1,5.59-.47c3.05,0,5.3.59,6.58,1.8a5.83,5.83,0,0,1,1.92,4.18,5.74,5.74,0,0,1-4.43,5.52v.06a5.66,5.66,0,0,1,3.37,4.42c.9,3.07,1.36,5.2,1.69,6h-3a46,46,0,0,1-1.52-5.29c-.5-3-1.86-4.1-4.4-4.23h-2.88v9.52h-2.88Zm2.88,9.93h3c3,0,5.13-1.62,5.13-4.12,0-2.85-2.08-4.07-5.29-4.07a18.61,18.61,0,0,0-2.88.23Z"/><path class="c" d="M487.32,567.68l-2.38,6.93h-2.88l7.61-21.9h3.44l7.61,21.9h-3l-2.42-6.93Zm7.48-2.13-2.42-6.3c-.33-1.43-.62-2.71-1-4h-.17c-.33,1.31-.66,2.64-.95,4L488,565.55Z"/><path class="c" d="M504.06,574.61v-21.9h3.21l7.31,11.07a65.53,65.53,0,0,1,3.84,7.1h0c-.17-3-.17-5.59-.17-9v-9.18H521v21.9h-2.88l-7.27-11.08a49.33,49.33,0,0,1-4-7.33l-.17.08c.17,2.72.17,5.31.17,8.94v9.39Z"/><path class="c" d="M537.54,564.33H528.9v7.9h9.86v2.38H526v-21.9h12v2.35H528.9v7h8.64Z"/><path class="c" d="M546.2,567.68l-2.58,6.93h-2.88l7.61-21.9h3.38l7.77,21.9h-3.21l-2.18-6.93Zm7.21-2.13-2.18-6.3c-.46-1.43-.86-2.71-1.19-4h0c-.33,1.31-.8,2.64-1.19,4l-2.18,6.34Z"/><path class="c" d="M562.77,574.61v-21.9H566l7.18,11.07c1.52,2.57,2.91,4.87,3.94,7.1h.16a77.86,77.86,0,0,1-.33-9v-9.18h2.75v21.9h-2.91l-7.12-11.08a60.56,60.56,0,0,1-4.23-7.33l-.16.08c.16,2.72.33,5.31.33,8.94v9.39Z"/><path class="c" d="M591.85,552.71h12v2.35h-9.14v7.29h8.41v2.36h-8.41v9.9h-2.87Z"/><path class="c" d="M610.9,552.71v13c0,4.86,2.22,6.93,5.26,6.93,3.37,0,5.39-2.11,5.39-6.93v-13h3.05v12.84c0,6.68-3.71,9.4-8.44,9.4S608,572.42,608,565.6V552.71Z"/><path class="c" d="M629.16,571.18a10.65,10.65,0,0,0,5.26,1.36c3,0,4.56-1.51,4.56-3.68s-1.19-3.2-4.06-4.33c-3.71-1.24-5.92-3.16-5.92-6.15,0-3.43,2.87-6,7.11-6a10.6,10.6,0,0,1,5.06,1.08l-.83,2.27a9,9,0,0,0-4.23-1.06c-3.05,0-4.24,1.86-4.24,3.32,0,2,1.36,3.07,4.4,4.23,3.94,1.48,5.76,3.18,5.76,6.42s-2.55,6.3-7.77,6.3a12.21,12.21,0,0,1-5.76-1.39Z"/><path class="c" d="M648.94,552.71v21.9h-3v-21.9Z"/><path class="c" d="M662.87,575c-6.09,0-10.19-4.5-10.19-11,0-7,4.4-11.52,10.35-11.52,6.22,0,10.09,4.59,10.09,11.06,0,7.46-4.56,11.5-10.25,11.5Zm0-2.31c4.73,0,7.21-4.11,7.21-9.06,0-4.33-2.35-8.9-7.05-8.9-5,0-7.31,4.42-7.31,9.1s2.58,8.86,7.15,8.86Z"/><path class="c" d="M676.86,574.61v-21.9h3.21l7.28,11.07a46.23,46.23,0,0,1,3.86,7.1h.14c-.14-3-.3-5.59-.3-9v-9.18h2.71v21.9h-2.88l-7.11-11.08a39.82,39.82,0,0,1-4.17-7.33l-.26.08c.26,2.72.26,5.31.26,8.94v9.39Z"/><path class="c" d="M721.65,573.93a14.23,14.23,0,0,1-6.09,1c-6.25,0-11-3.92-11-11,0-6.93,4.73-11.52,11.67-11.52a12.3,12.3,0,0,1,5.4,1l-.67,2.3a10.41,10.41,0,0,0-4.56-.92c-5.29,0-8.8,3.33-8.8,9.06,0,5.36,3.21,8.72,8.63,8.72a13.16,13.16,0,0,0,4.9-.86Z"/><path class="c" d="M728.26,552.71v13c0,4.86,2.19,6.93,5.23,6.93,3.21,0,5.42-2.11,5.42-6.93v-13h2.91v12.84c0,6.68-3.6,9.4-8.5,9.4-4.56,0-8.1-2.53-8.1-9.35V552.71Z"/><path class="c" d="M749.73,552.71v21.9h-3v-21.9Z"/><path class="c" d="M754.46,571.18a10.54,10.54,0,0,0,5.06,1.36c3,0,4.7-1.51,4.7-3.68s-1.13-3.2-4.17-4.33c-3.58-1.24-5.92-3.16-5.92-6.15,0-3.43,2.91-6,7.31-6a9.4,9.4,0,0,1,4.86,1.08l-.86,2.27a7.87,7.87,0,0,0-4-1.06c-3.31,0-4.27,1.86-4.27,3.32,0,2,1.22,3.07,4.4,4.23,3.7,1.48,5.69,3.18,5.69,6.42s-2.48,6.3-7.9,6.3a11.53,11.53,0,0,1-5.53-1.39Z"/><path class="c" d="M774.07,552.71v21.9H771.2v-21.9Z"/><path class="c" d="M779.13,574.61v-21.9h3.18l7.31,11.07c1.69,2.57,2.88,4.87,4.07,7.1h0c-.17-3-.33-5.59-.33-9v-9.18H796v21.9h-2.77l-7.15-11.08a43.43,43.43,0,0,1-4.23-7.33l-.17.08c.17,2.72.17,5.31.17,8.94v9.39Z"/><path class="c" d="M812.74,564.33H804v7.9h9.62v2.38h-12.5v-21.9H813.3v2.35H804v7h8.73Z"/></svg>