<svg xmlns="http://www.w3.org/2000/svg" viewBox="0 0 1024 1024"><defs><style>.a{fill:#1d1d1d;}.b{fill:#e4c021;}.c{fill:#ec1e24;}</style></defs><path class="a" d="M258.53,611h-2.59c-10.37,0-17.82,3.09-22.58,9.12s-7,16.11-7.22,29.85H211.39v-53H332.82v53H318.07c-.1-13.58-2.52-23.52-7.24-29.71S298.73,611,288.45,611h-2.83v87.68c0,5.15.74,8.43,2.12,9.73s4.9,2.1,10.66,2.1h11.08v14.61H234.63V710.47h11.14c5.79,0,9.23-.69,10.61-2s2.15-4.62,2.15-9.83Z"/><path class="a" d="M393.33,714.09A35.6,35.6,0,0,1,380.08,725a43.15,43.15,0,0,1-17.87,3.48c-8.08,0-14.68-2.35-19.87-7s-7.63-10.45-7.63-17.68c0-6.85,2.17-12.47,6.6-16.81s11.88-8.06,22.55-11.27c2.5-.77,6.6-1.87,12.16-3.34s9.35-2.6,11.26-3.78a13.4,13.4,0,0,0,4.82-5,14.8,14.8,0,0,0,1.46-7.17c0-4.68-1.69-8.24-5-10.72-3.51-2.57-8.45-3.79-14.83-3.79a34.71,34.71,0,0,0-10.5,1.32,20.52,20.52,0,0,0-7.69,4.22h.61c3.78,0,6.79.89,8.86,2.7a9.68,9.68,0,0,1,3.27,7.75,11.54,11.54,0,0,1-3.68,8.86c-2.56,2.3-5.82,3.38-9.9,3.38a15.36,15.36,0,0,1-11-4.18,14.19,14.19,0,0,1-4.37-10.76c0-7,3.37-12.82,10.22-17.21s15.89-6.74,27.11-6.74a78.35,78.35,0,0,1,17.13,1.81,38.09,38.09,0,0,1,12.35,4.78,20,20,0,0,1,7.73,9.26c1.58,3.7,2.22,10,2.22,18.62v40.15a8.69,8.69,0,0,0,1.15,4.92,3.67,3.67,0,0,0,3.24,1.63,4.62,4.62,0,0,0,4.71-3.64c.84-2.44,1.28-8.18,1.28-17.32h11.69v4.07c0,11.58-1.79,20.06-5.56,25.21s-9.81,7.74-18.2,7.74c-5.76,0-10.33-1.19-13.68-3.48S394.83,719,393.33,714.09ZM393,677.87c-2.62,1.18-6.29,2.81-11,4.72-14.15,6.12-21.33,12.49-21.33,19,0,3.44.94,6.17,3.12,8s5,2.85,8.77,2.85c6.22,0,11.22-2.14,15-6.31,3.57-4.15,5.45-10,5.45-17.42Z"/><path class="a" d="M609.11,675.44h16.51q-1.87,25.47-15.77,39.49c-9.33,9.32-21.87,13.94-37.74,13.94a70.78,70.78,0,0,1-25.64-4.4A57.85,57.85,0,0,1,526,711a66.92,66.92,0,0,1-15-22.63,74.73,74.73,0,0,1-5.1-27.62,71.46,71.46,0,0,1,5-27.14,66.8,66.8,0,0,1,14.95-22.37,61.58,61.58,0,0,1,20.37-13.61A63,63,0,0,1,570.42,593a59.16,59.16,0,0,1,19.45,3.18,65.38,65.38,0,0,1,18,9.92l3.88-11.5h13.88v52.55H610.79c-1.45-12.23-5.45-21.75-11.83-28.41s-14.75-10.15-24.86-10.15c-11.84,0-21.13,4.74-27.84,14.1s-10.07,22.42-10.07,39c0,15.85,3.35,28,9.95,36.63s16.23,12.92,28.29,12.92c9.47,0,17.12-3,23-9.14S607.23,687,609.11,675.44Z"/><path class="a" d="M639.8,725.08V712.22H647c4.28,0,7.22-.67,8.67-2s2.32-4.48,2.32-9.37V659.07c0-4.93-.82-8.07-2.32-9.41s-4.39-2-8.67-2H639.8V634.82h41.59v66c0,4.79.76,7.85,2.28,9.26s4.29,2.12,8.8,2.12h5.86v12.86Zm14-115.71a13.41,13.41,0,0,1,4-10,13.78,13.78,0,0,1,10.11-4.09,14,14,0,0,1,10.27,4.09,13.56,13.56,0,0,1,4.19,10,14.41,14.41,0,0,1-14.46,14.45,14.11,14.11,0,0,1-14.12-14.45Z"/><path class="a" d="M782.33,692.75h16.08c-1.37,11.1-5.76,19.73-13.35,26.2s-17.21,9.55-28.9,9.55c-14.73,0-26.38-4.42-35.14-13.21-8.59-8.83-13-20.57-13-35.37q0-21.76,13.21-35.18c8.74-8.9,20.39-13.47,34.91-13.47,13.9,0,24.47,4.35,32,13Q799,657.19,799,681.8H734.19c.41,10.19,2.62,18.06,6.6,23.36s9.5,8,16.72,8,13-1.51,16.74-4.64S780.73,700.11,782.33,692.75Zm-8.72-24.47C773,660,771.3,653.91,768.46,650c-2.87-3.78-7.07-5.78-12.51-5.78a17.59,17.59,0,0,0-13.8,6.11c-3.45,4.08-5.85,10.13-7,18Z"/><path class="a" d="M253.11,795.87h.33v.29H241.38v-.29h.33a1.4,1.4,0,0,0,1.23-.53,1.73,1.73,0,0,0,.43-1.06c0-.28-.1-.67-.1-.93l-1.89-4.88h-8.86l-2,4.88a1.81,1.81,0,0,0-.2.93,1.68,1.68,0,0,0,.41,1.06,1.45,1.45,0,0,0,1.25.53h.33v.29h-8.07v-.29h.29a4.31,4.31,0,0,0,1.79-.53,4.62,4.62,0,0,0,1.37-1.77l8.76-20.82c1.25-2.58,1.89-4.31,1.89-5.18h.3l11.22,26a4.29,4.29,0,0,0,1.46,1.65A2.85,2.85,0,0,0,253.11,795.87Zm-20-9.12h7.62l-3.7-9.82Z"/><path class="a" d="M280.7,768.77h-.63a1.7,1.7,0,0,0-1.36.52,1.75,1.75,0,0,0-.63,1.35v15.55a10.5,10.5,0,0,1-2.9,7.73,10.75,10.75,0,0,1-7.95,2.89c-4,0-7-.94-9.11-2.81a9.7,9.7,0,0,1-3.2-7.77V770.78a2,2,0,0,0-.64-1.49,2.15,2.15,0,0,0-1.35-.52h-.66v-.37h11v.37h-.64a1.61,1.61,0,0,0-1.37.52,1.84,1.84,0,0,0-.62,1.41v15.22a10.28,10.28,0,0,0,2,6.68A6.33,6.33,0,0,0,268,795a6.73,6.73,0,0,0,5.34-2.28,9.31,9.31,0,0,0,2.11-6.31V770.7a1.85,1.85,0,0,0-.64-1.41,1.72,1.72,0,0,0-1.37-.52h-.62v-.37h7.92Z"/><path class="a" d="M297.25,770v23.34a2.56,2.56,0,0,0,.87,1.83,2,2,0,0,0,1.56.69h.51v.29H288.76v-.29h.54a2.3,2.3,0,0,0,1.55-.69,2.83,2.83,0,0,0,.74-1.71V770h-5a3.24,3.24,0,0,0-2.71,1.16,3.73,3.73,0,0,0-1.07,2.89v.46h-.43v-6.91a8.24,8.24,0,0,0,1.89.53,16.23,16.23,0,0,0,2.63.22h15.26a20.29,20.29,0,0,0,3-.32,13.84,13.84,0,0,0,1.38-.43v6.91h-.33v-.46a4.21,4.21,0,0,0-1.05-2.89,3.48,3.48,0,0,0-2.83-1.16Z"/><path class="a" d="M327,795.87a2,2,0,0,0,1.45-.53,2.72,2.72,0,0,0,.95-2V783.24H317.13v10.11a2.54,2.54,0,0,0,.74,1.73,2.38,2.38,0,0,0,1.78.79h.41v.29H308.64v-.29h.41a2.06,2.06,0,0,0,1.7-.79,2.72,2.72,0,0,0,.82-1.73v-22.1a2.58,2.58,0,0,0-.82-1.71,1.89,1.89,0,0,0-1.7-.77h-.41v-.37h11.42v.37h-.41a2.17,2.17,0,0,0-1.78.77,2.42,2.42,0,0,0-.74,1.71v10.36h12.31V771.25a2.48,2.48,0,0,0-.72-1.71,2.13,2.13,0,0,0-1.68-.77h-.53v-.37h11.54v.37h-.51a2,2,0,0,0-1.7.77,2.16,2.16,0,0,0-.74,1.71v22.1a2.63,2.63,0,0,0,2.44,2.52h.51v.29H326.51v-.29Z"/><path class="a" d="M327.16,795.87a2.18,2.18,0,0,0,1.66-.79,3.4,3.4,0,0,0,.74-1.73V771.17a2.75,2.75,0,0,0-1.27-2.1,2.63,2.63,0,0,0-1.13-.3h-.55v-.37h14.48a16.76,16.76,0,0,0,2.58-.26,11.4,11.4,0,0,0,2-.47v7h-.41v-.47a3.84,3.84,0,0,0-.94-2.91,4,4,0,0,0-2.69-1.2h-6.38v11.6h4.92a2.86,2.86,0,0,0,2.3-1,3.24,3.24,0,0,0,1-2.44v-.37h.41v9.2h-.41v-.31a3.14,3.14,0,0,0-1.62-2.91,2.55,2.55,0,0,0-1.58-.46h-5v11.17h4.92a6.7,6.7,0,0,0,4.66-1.67,9.06,9.06,0,0,0,2.73-4.78H348l-1.68,8.06H326.61v-.29Z"/><path class="a" d="M379.79,768.77a2.4,2.4,0,0,0-1.7.67,2.6,2.6,0,0,0-.61,1.73V791.7a27,27,0,0,0,.3,4.46l.13.65h-.33l-19.14-19.19v15.85a2.17,2.17,0,0,0,.74,1.71,1.85,1.85,0,0,0,1.56.69h.76v.29H350.05v-.29h.74a2,2,0,0,0,1.56-.69,2.55,2.55,0,0,0,.65-1.71V772.75a17.44,17.44,0,0,0-.32-4.35v-.57H353l19.12,19.07V771.17a2.74,2.74,0,0,0-.71-1.73,2.49,2.49,0,0,0-1.71-.67h-.61v-.37h11.42v.37Z"/><path class="a" d="M397,770v23.34a2.54,2.54,0,0,0,.74,1.83,2.24,2.24,0,0,0,1.66.69h.43l.09.29H388.43v-.29h.51a2.28,2.28,0,0,0,1.7-.69,2.4,2.4,0,0,0,.72-1.71V770h-5.05a3.69,3.69,0,0,0-2.87,1.16,4.21,4.21,0,0,0-.94,2.89v.46h-.43v-6.91a5.71,5.71,0,0,0,1.89.53,15.94,15.94,0,0,0,2.68.22h15.1a17.8,17.8,0,0,0,3-.32,7.94,7.94,0,0,0,1.51-.43v6.91h-.41v-.46a4,4,0,0,0-1-2.89,3.58,3.58,0,0,0-2.73-1.16Z"/><path class="a" d="M408.82,795.87a2,2,0,0,0,1.68-.79,2.21,2.21,0,0,0,.72-1.73v-22.1a2.12,2.12,0,0,0-.72-1.71,1.88,1.88,0,0,0-1.68-.77h-.54v-.37h11.55v.37h-.51a2.13,2.13,0,0,0-1.7.77,2.1,2.1,0,0,0-.74,1.71v22.1a2.2,2.2,0,0,0,.74,1.73,2.36,2.36,0,0,0,1.7.79h.51v.29H408.28v-.29Z"/><path class="a" d="M437.8,796.81c-4.8,0-8.72-1.32-11.47-3.93a14,14,0,0,1-4.18-10.58c0-4.5,1.33-8,4.18-10.62s6.53-3.85,11.24-3.85a18.41,18.41,0,0,1,9.34,2.18l.14,6.76h-.33c-1.27-4.89-4.2-7.23-8.82-7.23a8.34,8.34,0,0,0-7,3.36c-1.66,2.26-2.53,5.33-2.53,9.32s.87,7,2.53,9.29a8.25,8.25,0,0,0,6.68,3.67,9,9,0,0,0,6.65-2.4c1.56-1.54,2.61-4.31,3.24-8.14h.35l.43,6.84C446.11,795,442.62,796.81,437.8,796.81Z"/><path class="a" d="M476.71,796.81c-4.84,0-8.76-1.32-11.49-3.93s-4.08-6.13-4.08-10.58,1.38-8,4.08-10.62,6.55-3.85,11.26-3.85a19.07,19.07,0,0,1,9.44,2.18l.12,6.76h-.33c-1.25-4.89-4.18-7.23-8.8-7.23a8.25,8.25,0,0,0-7.07,3.36c-1.81,2.26-2.61,5.33-2.61,9.32s.8,7,2.51,9.29a8.6,8.6,0,0,0,6.74,3.67,8.91,8.91,0,0,0,6.61-2.4c1.58-1.54,2.73-4.31,3.34-8.14h.23l.43,6.84C485.1,795,481.63,796.81,476.71,796.81Z"/><path class="a" d="M508.73,795.87a2.65,2.65,0,0,0,1.58-.53,3.15,3.15,0,0,0,.84-2V783.24H499v10.11a2.22,2.22,0,0,0,.73,1.73,2.06,2.06,0,0,0,1.66.79h.44v.29H490.39v-.29h.51a2.47,2.47,0,0,0,1.71-.79,2.62,2.62,0,0,0,.61-1.73v-22.1a2.5,2.5,0,0,0-.61-1.71,2.22,2.22,0,0,0-1.71-.77h-.51v-.37h11.43v.37h-.44a1.89,1.89,0,0,0-1.66.77,2.12,2.12,0,0,0-.73,1.71v10.36h12.16V771.25a2.09,2.09,0,0,0-.76-1.71,1.94,1.94,0,0,0-1.66-.77h-.41v-.37h11.46v.37h-.51a2.12,2.12,0,0,0-1.68.77,2.58,2.58,0,0,0-.74,1.71v22.1a2.63,2.63,0,0,0,.74,1.73,2.35,2.35,0,0,0,1.68.79h.51v.29H508.32v-.29Z"/><path class="a" d="M523.35,795.87a2,2,0,0,0,1.66-.79,2.09,2.09,0,0,0,.76-1.73v-22.1a2,2,0,0,0-.76-1.71,1.82,1.82,0,0,0-1.66-.77h-.41v-.37h11.47v.37h-.53a2.07,2.07,0,0,0-1.71.77,2.13,2.13,0,0,0-.74,1.71v22.1a2.23,2.23,0,0,0,.74,1.73,2.28,2.28,0,0,0,1.71.79h.53v.29H522.94v-.29Z"/><path class="a" d="M566.76,768.77a2.19,2.19,0,0,0-1.67.67,2.53,2.53,0,0,0-.65,1.73V791.7a25.58,25.58,0,0,0,.33,4.46l.1.65h-.31l-19.13-19.19v15.85a2.18,2.18,0,0,0,.71,1.71,2.12,2.12,0,0,0,1.7.69h.62v.29H537v-.29h.74a2.43,2.43,0,0,0,1.69-.69,2.67,2.67,0,0,0,.61-1.71V772.75a25.1,25.1,0,0,0-.31-4.35l-.1-.57H540L559.1,786.9V771.17a3.3,3.3,0,0,0-.74-1.73,2.36,2.36,0,0,0-1.66-.67h-.65v-.37h11.44v.37Z"/><path class="a" d="M570,795.87a2.06,2.06,0,0,0,1.68-.79,2.21,2.21,0,0,0,.72-1.73V771.17a2.54,2.54,0,0,0-1.26-2.1,3.07,3.07,0,0,0-1.14-.3h-.54v-.37H584a13.11,13.11,0,0,0,2.51-.26,8.23,8.23,0,0,0,2-.47v7h-.31v-.47a4.44,4.44,0,0,0-1.05-2.91,4.05,4.05,0,0,0-2.72-1.2h-6.32v11.6h5a2.73,2.73,0,0,0,2.21-1,3.55,3.55,0,0,0,.94-2.44v-.37h.41v9.2h-.41v-.31a3.3,3.3,0,0,0-1.47-2.91,3.06,3.06,0,0,0-1.68-.46h-5v11.17h4.94a6.56,6.56,0,0,0,4.62-1.67,10.19,10.19,0,0,0,2.83-4.78h.3l-1.66,8.06H569.48v-.29Z"/><path class="a" d="M593.65,792.53a9.73,9.73,0,0,1,1.16-4.9h.42a1.36,1.36,0,0,0-.11.67,6.93,6.93,0,0,0,1.89,4.77,6.69,6.69,0,0,0,5.19,2.11,5.42,5.42,0,0,0,3.88-1.36,4,4,0,0,0,1.48-3.24c0-1.55-1-2.89-3-4L598,782a6.6,6.6,0,0,1-2.9-2.91,6.86,6.86,0,0,1-.84-3.44c0-2.54.64-4.45,2.19-5.78a8.68,8.68,0,0,1,5.83-2,45.29,45.29,0,0,1,5.15.39h2.3l-.41,5.84h-.44a3.94,3.94,0,0,0-1.45-3.32,5.6,5.6,0,0,0-3.88-1.2c-1.88,0-3.38.55-4.2,1.81a3.13,3.13,0,0,0-.64,2.14c0,1.2.74,2.4,2.52,3.47l7.25,5a6.69,6.69,0,0,1,3.44,6.09,7.79,7.79,0,0,1-2.83,6.49,10.78,10.78,0,0,1-7.22,2.26,17.3,17.3,0,0,1-4.78-.65,6.54,6.54,0,0,1-3.13-1.84A4.5,4.5,0,0,1,593.65,792.53Z"/><path class="a" d="M615.51,795.87a2.31,2.31,0,0,0,1.66-.79,2.74,2.74,0,0,0,.8-1.73V771.17a2.82,2.82,0,0,0-1.31-2.1,3.07,3.07,0,0,0-1.15-.3H615v-.37h14.52a15.39,15.39,0,0,0,2.5-.26,12.27,12.27,0,0,0,2-.47v7h-.43v-.47a4.23,4.23,0,0,0-.94-2.91,4.13,4.13,0,0,0-2.71-1.2h-6.4v11.6h5.05a2.91,2.91,0,0,0,2.3-1,3.35,3.35,0,0,0,.81-2.44v-.37h.44v9.2h-.44v-.31a3.08,3.08,0,0,0-3.11-3.37h-5.05v11.17h5.05a6.29,6.29,0,0,0,4.49-1.67,9.3,9.3,0,0,0,2.83-4.78h.41l-1.78,8.06H615v-.29Z"/><path class="a" d="M664.1,796.81c-5,0-8.73-1.32-11.46-3.93s-4.21-6.13-4.21-10.58,1.38-8,4.1-10.62,6.51-3.85,11.27-3.85a19.13,19.13,0,0,1,9.43,2.18l.11,6.76H673c-1.24-4.89-4.19-7.23-8.78-7.23a8.28,8.28,0,0,0-7.08,3.36c-1.68,2.26-2.63,5.33-2.63,9.32s.85,7,2.51,9.29a8.55,8.55,0,0,0,6.77,3.67,8.87,8.87,0,0,0,6.6-2.4c1.56-1.54,2.73-4.31,3.26-8.14H674l.43,6.84C672.29,795,669,796.81,664.1,796.81Z"/><path class="a" d="M706.05,768.77h-.64a1.9,1.9,0,0,0-1.37.52,1.74,1.74,0,0,0-.62,1.35v15.55a10.49,10.49,0,0,1-2.87,7.73c-2,2-4.63,2.89-8.08,2.89q-5.85,0-9-2.81a9.81,9.81,0,0,1-3.18-7.77V770.78a2,2,0,0,0-.66-1.49,2.11,2.11,0,0,0-1.36-.52h-.63v-.37h10.85v.37H688a1.66,1.66,0,0,0-1.38.52,2,2,0,0,0-.72,1.41v15.22a10.89,10.89,0,0,0,2,6.68,6.69,6.69,0,0,0,5.44,2.42,6.8,6.8,0,0,0,5.37-2.28,9.83,9.83,0,0,0,2.07-6.31V770.7a1.93,1.93,0,0,0-2-1.93h-.62v-.37h7.92Z"/><path class="a" d="M709,795.87a2,2,0,0,0,1.56-.79,2.15,2.15,0,0,0,.76-1.73v-22.1a2.06,2.06,0,0,0-.76-1.71,1.78,1.78,0,0,0-1.56-.77h-.51v-.37h11.4v.37h-.41a2.4,2.4,0,0,0-2.42,2.48v22.1a2.45,2.45,0,0,0,.64,1.73,2.59,2.59,0,0,0,1.78.79h.41v.29h-11.4v-.29Z"/><path class="a" d="M723.34,792.53a8.64,8.64,0,0,1,1.17-4.9h.29v.67a6.91,6.91,0,0,0,2,4.77,6.39,6.39,0,0,0,5,2.11,5.66,5.66,0,0,0,4-1.36,3.91,3.91,0,0,0,1.37-3.24c0-1.55-1.06-2.89-2.95-4l-6.6-4.58a8.85,8.85,0,0,1-2.9-2.91,8.56,8.56,0,0,1-.84-3.44,7.23,7.23,0,0,1,2.26-5.78,8.62,8.62,0,0,1,5.76-2,43.43,43.43,0,0,1,5.15.39h2.42l-.53,5.84h-.41a3.91,3.91,0,0,0-1.48-3.32,5.48,5.48,0,0,0-3.77-1.2,4.91,4.91,0,0,0-4.31,1.81,3.74,3.74,0,0,0-.62,2.14c0,1.2.84,2.4,2.61,3.47l7.26,5a6.77,6.77,0,0,1,3.34,6.09,8,8,0,0,1-2.73,6.49,11.22,11.22,0,0,1-7.21,2.26,16.8,16.8,0,0,1-4.83-.65,3.13,3.13,0,0,1-3.42-3.63Z"/><path class="a" d="M745.17,795.87a2.19,2.19,0,0,0,1.66-.79,2.23,2.23,0,0,0,.74-1.73v-22.1a2.13,2.13,0,0,0-.74-1.71,2,2,0,0,0-1.66-.77h-.58v-.37h11.57v.37h-.54a2.2,2.2,0,0,0-1.68.77,2.57,2.57,0,0,0-.71,1.71v22.1a2.71,2.71,0,0,0,.71,1.73,2.46,2.46,0,0,0,1.68.79h.54v.29H744.59v-.29Z"/><path class="a" d="M788.55,768.77a2.33,2.33,0,0,0-1.73.67,2.51,2.51,0,0,0-.63,1.73V791.7a24.75,24.75,0,0,0,.32,4.46l.11.65h-.33l-19.12-19.19v15.85a2.29,2.29,0,0,0,.68,1.71,2.38,2.38,0,0,0,1.68.69h.72v.29H758.78v-.29h.72a2.22,2.22,0,0,0,1.6-.69,2.29,2.29,0,0,0,.72-1.71V772.75a22.92,22.92,0,0,0-.43-4.35v-.57h.33l19,19.07V771.17a2.23,2.23,0,0,0-.72-1.73,1.86,1.86,0,0,0-1.56-.67h-.65v-.37h11.51v.37Z"/><path class="a" d="M791.81,795.87a2.2,2.2,0,0,0,1.68-.79,2.61,2.61,0,0,0,.72-1.73V771.17a2.51,2.51,0,0,0-1.25-2.1,2.57,2.57,0,0,0-1.15-.3h-.51v-.37h14.45a16.64,16.64,0,0,0,2.61-.26,17.12,17.12,0,0,0,1.95-.47v7h-.47v-.47a4.29,4.29,0,0,0-1-2.91,4,4,0,0,0-2.72-1.2h-6.3v11.6h5a2.63,2.63,0,0,0,2.17-1,3.37,3.37,0,0,0,.94-2.44v-.37h.43v9.2H808v-.31a3.15,3.15,0,0,0-1.56-2.91,2.46,2.46,0,0,0-1.55-.46h-5v11.17h4.94a6.44,6.44,0,0,0,4.59-1.67,9.9,9.9,0,0,0,2.92-4.78h.29l-1.79,8.06H791.3v-.29Z"/><polygon class="b" points="414.05 900.59 419.94 912.66 433.29 914.53 423.71 923.85 425.9 937 414.05 930.81 402.15 937 404.37 923.85 394.7 914.53 408.1 912.66 414.05 900.59"/><path class="b" d="M413.33,886.14a3.5,3.5,0,0,0,2.3-.73,5,5,0,0,0,1.37-2.8V868.36H398.7v14.18a3.35,3.35,0,0,0,1.05,2.56,3.74,3.74,0,0,0,2.5,1H403v.55H386v-.55h.63a3.43,3.43,0,0,0,2.53-1,4.16,4.16,0,0,0,1.15-2.56v-31a3.71,3.71,0,0,0-1.15-2.49,3.42,3.42,0,0,0-2.53-1H386v-.61h17v.61h-.74a3.71,3.71,0,0,0-2.5,1,3,3,0,0,0-1.05,2.49V866H417V851.55a3.65,3.65,0,0,0-1.17-2.49,3.5,3.5,0,0,0-2.5-1h-.74v-.61h17.15v.61H429a3.47,3.47,0,0,0-2.56,1.07,3.1,3.1,0,0,0-1.05,2.45v30.93a3.42,3.42,0,0,0,1.05,2.56,3.82,3.82,0,0,0,2.56,1h.74v.55H412.59v-.55Z"/><path class="b" d="M487.6,886.14H488v.55H470.15v-.55h.57a2.45,2.45,0,0,0,1.89-.77,3.25,3.25,0,0,0,.2-2.83l-2.75-6.86H457l-3,6.86a4,4,0,0,0-.28,1.35,2.47,2.47,0,0,0,.61,1.48,2.08,2.08,0,0,0,1.89.77h.43v.55h-12v-.55H445a5.74,5.74,0,0,0,2.65-.77A6.06,6.06,0,0,0,449.8,883l13-29.26c1.79-3.69,2.63-6.09,2.73-7.29h.53l16.82,36.4a5.64,5.64,0,0,0,2.1,2.44A4.6,4.6,0,0,0,487.6,886.14Zm-29.7-12.73h11.22l-5.48-13.85Z"/><path class="b" d="M503.5,886.14a3.57,3.57,0,0,0,3.55-3.6V851.61a3.62,3.62,0,0,0-3.55-3.52h-.74v-.61h17.15v.61h-.74a3.4,3.4,0,0,0-2.52,1.07,3.12,3.12,0,0,0-1.07,2.45v32.6h7.36a10.87,10.87,0,0,0,6.92-2.28,14.7,14.7,0,0,0,4.14-6.66h.63L532,886.69H502.76v-.55Z"/><path class="b" d="M590.71,886.14h.52v.55h-18v-.55h.53a2.36,2.36,0,0,0,2.44-2.25,3.24,3.24,0,0,0-.29-1.35l-2.79-6.86H559.94l-2.82,6.86a3.12,3.12,0,0,0-.31,1.35,2.86,2.86,0,0,0,.51,1.48,2.31,2.31,0,0,0,1.89.77h.51v.55H547.64v-.55h.51a5,5,0,0,0,2.52-.77,6.71,6.71,0,0,0,2.2-2.42l13.07-29.26c1.66-3.69,2.6-6.09,2.7-7.29h.52l16.74,36.4a5.46,5.46,0,0,0,2.21,2.44A4.27,4.27,0,0,0,590.71,886.14Zm-29.82-12.73h11.32l-5.56-13.85Z"/><path class="b" d="M606.61,886.14a3.48,3.48,0,0,0,2.5-1,3.44,3.44,0,0,0,1.07-2.56V851.61a3.12,3.12,0,0,0-1.07-2.45,3.18,3.18,0,0,0-2.5-1.07h-.76v-.61H623l-.1.61h-.66a3.24,3.24,0,0,0-2.51,1.07,3.13,3.13,0,0,0-1,2.45v32.6H626a10.42,10.42,0,0,0,6.83-2.28,15,15,0,0,0,4.2-6.66h.51L635,886.69h-29.1v-.55Z"/><polygon class="b" points="462.9 900.59 468.79 912.66 482.27 914.53 472.61 923.85 474.82 937 462.9 930.81 451.07 937 453.26 923.85 443.56 914.53 456.96 912.66 462.9 900.59"/><polygon class="b" points="510.31 900.59 516.34 912.66 529.63 914.53 520.01 923.85 522.31 937 510.31 930.81 498.45 937 500.67 923.85 491.11 914.53 504.32 912.66 510.31 900.59"/><polygon class="b" points="559.21 900.59 565.2 912.66 578.55 914.53 568.87 923.85 571.04 937 559.21 930.81 547.31 937 549.63 923.85 539.97 914.53 553.3 912.66 559.21 900.59"/><polygon class="b" points="604.51 900.59 610.47 912.66 623.73 914.53 614.05 923.85 616.35 937 604.51 930.81 592.5 937 594.81 923.85 585.15 914.53 598.53 912.66 604.51 900.59"/><path class="c" d="M615.41,154.3s11.89-6.09,50.81-11.81c1.78-.32,3.44-.47,5.13-.63V131.32h-58.9A43.92,43.92,0,0,1,615.41,154.3Z"/><path class="c" d="M393.76,313.86l-8.16,36.95,20.08,13.07c16.65-19.7,21.6-59.59,21.6-59.59Z"/><polygon class="c" points="556.89 261.38 634.65 247.6 644.14 210.66 635.18 204.17 550.98 221.65 556.89 261.38"/><path class="c" d="M506.33,347.53l152.91-30.09a95.21,95.21,0,0,1,12.11,2.7V301.83L496.67,328.49S481.72,375.41,446,384.06c0,0,39.24-45.19,35.76-104.47L493.84,304l177.51-26.78V226.33c-7.55,9.89-15.15,23-18.53,39l-111,16.28s-6.17-51.79-21.55-75.41c0,0,79.17-2,133.36-25.93l17.69,12.21V182.38L737,151.12l-65.67,15.34c-20.7,4.38-47.08,9.88-79.69,16.75-92.57,19.56-118.72-5.67-118.72-5.67,12.26,2,118.72-20,118.72-20h-2a181.31,181.31,0,0,1-14.38-26.25L560.89,87s-4.52,25.13-1.25,44.32H320.19V480.48H591c1.36-43,2.4-108.53-9.76-123.15C581.28,357.33,508.22,376.84,506.33,347.53Zm-76.59,66.22-20.8-24.07s-30.09,36-75.93,38.95c0,0,53.63-26.58,63.91-50.82l-25.23-23.6,7.45-34.53-30.75,14L327,305.9s37.53,5.05,55-4.46c0,0,13.37-97.12,11-118.33,0,0,28.45,6,23.12,35.57L398,299.49l33.76-7.84-4.45-24.23s19.63,6.89,25.76,13.31v5.92l19.67-1L452,295.36s-14.44,56.35-31.75,80l30.28,32.56Z"/><path class="c" d="M671.35,340c-21.77,1.31-47.21,3.61-52.87,7.53l.33,103.83h-.33s4.95,21.16-7,75.15c0,0,27.34-25.54,31.16-46h28.68V352.8c46-5.45,21.12,19.66,21.12,19.66s22.61-3.22,21-18.88S671.35,340,671.35,340Z"/></svg>